<svg xmlns="http://www.w3.org/2000/svg" width="25" height="25" xmlns:v="https://vecta.io/nano"><path fill="#ffcc4d" d="M24.168 12.5c0 6.418-5.25 11.668-11.667 11.668S.833 18.918.833 12.5 6.083.832 12.5.832 24.168 6.082 24.168 12.5"/><path d="M9.875 11.55c0 1.24-.73 2.26-1.605 2.26s-1.605-1.02-1.605-2.26.73-2.26 1.605-2.26 1.605.95 1.605 2.26m9.188 0c0 1.24-.73 2.26-1.604 2.26s-1.605-1.02-1.605-2.26.73-2.26 1.605-2.26 1.604.95 1.604 2.26m-2.043 6.128H7.98c-.364 0-.656-.293-.656-.656s.292-.656.656-.656h9.043a.65.65 0 1 1 0 1.312" fill="#664500"/></svg>