<?xml version="1.0" encoding="utf-8"?>
<!-- Generator: Adobe Illustrator 16.0.0, SVG Export Plug-In . SVG Version: 6.00 Build 0)  -->
<!DOCTYPE svg PUBLIC "-//W3C//DTD SVG 1.1//EN" "http://www.w3.org/Graphics/SVG/1.1/DTD/svg11.dtd">
<svg version="1.1" id="Capa_1" xmlns="http://www.w3.org/2000/svg" xmlns:xlink="http://www.w3.org/1999/xlink" x="0px" y="0px"
	 width="150px" height="150px" viewBox="-55 -55 150 150" enable-background="new -55 -55 150 150" xml:space="preserve">
<polygon fill="#D1D1D1" points="-17.943,-24.039 -22.044,-21.621 -17.881,-24.029 "/>
<path fill="#C8CED6" d="M67.872,38.42L48.498,49.609c0-0.003,0-0.007,0-0.007l0,0c-0.422-1.601-0.655-3.216-0.655-4.766
	l-0.029-81.989c0-6.6-4.227-14.423-9.269-16.739c-1.815-0.835-3.441-0.782-4.733-0.021l-0.003-0.006l-55.853,32.297
	c0,0-5.242,3.074-5.829,9.52c-0.491,5.38,0,13.641,0,13.641L-8.72-9.519c0.41,1.57,0.64,3.159,0.64,4.682l0.026,81.991
	c0,6.599,4.227,14.42,9.269,16.733c1.814,0.837,3.441,0.786,4.731,0.029c0,0,0,0-0.002,0c0.002,0,0.004-0.003,0.006-0.003
	l0.003,0.003l56.092-32.332c0,0,5.241-3.077,5.827-9.523C68.367,46.686,67.872,38.42,67.872,38.42z"/>
<g>
	<path fill="#8392A5" d="M-17.348-21.574c-1.797-0.828-3.412-0.784-4.696-0.047c0,0-5.242,3.074-5.829,9.52
		c-0.491,5.38,0,13.641,0,13.641L-8.716-9.521C-10.077-14.755-13.47-19.793-17.348-21.574z"/>
	<polygon fill="#8392A5" points="0.271,6.329 27.035,-9.194 27.035,-0.215 0.271,15.309 	"/>
	<polygon fill="#8392A5" points="33.045,-12.704 40.688,-17.13 40.688,-8.15 33.045,-3.724 	"/>
	<polygon fill="#8392A5" points="0.271,28.374 27.035,12.852 27.035,21.831 0.271,37.354 	"/>
	<polygon fill="#8392A5" points="33.045,9.341 40.688,4.914 40.688,13.894 33.045,18.323 	"/>
	<polygon fill="#8392A5" points="0.271,50.417 27.035,34.896 27.035,43.877 0.271,59.399 	"/>
	<polygon fill="#8392A5" points="33.045,31.386 40.688,26.963 40.688,35.939 33.045,40.367 	"/>
</g>
<path fill="#E8EDEF" d="M67.872,38.42L8.962,72.418l0,0v14.348c0,3.499-1.157,6.06-3.018,7.151c0.002,0,0.004-0.003,0.006-0.003
	l0.003,0.003l56.092-32.332c0,0,5.241-3.077,5.827-9.523C68.367,46.686,67.872,38.42,67.872,38.42z"/>
</svg>
