<svg xmlns="http://www.w3.org/2000/svg" width="40" height="40" viewBox="380 480 40 40" xmlns:v="https://vecta.io/nano"><path fill="#a8d3d8" d="M383.665 497.528v7.578h23.88l-5.105-7.578z"/><path fill="#deecf1" d="M383.665 497.528h14.954v7.578h-14.954z"/><path fill="#ff3f5c" d="M383.665 497.528h8.163v7.578h-8.163z"/><path fill="#c2132c" d="M409.287 504.446l-5.2-7.646a1.18 1.18 0 0 0-.973-.516H383.45c-.65 0-1.175.526-1.175 1.176s.526 1.175 1.175 1.175h19.05l4.842 7.13c.227.335.597.516.973.516.23 0 .457-.066.66-.204.537-.364.676-1.096.3-1.632z"/><path fill="#ff3f5c" d="M398.62 496.284h-15.17c-.65 0-1.175.526-1.175 1.176s.526 1.175 1.175 1.175h15.17v-2.35z"/><path fill="#c2132c" d="M410.643 503.932h-27.026c-1.997 0-3.62 1.624-3.62 3.62v5.74c0 1.998 1.625 3.622 3.62 3.622h32.768c1.997 0 3.62-1.624 3.62-3.622-.001-5.162-4.2-9.36-9.363-9.36z"/><path fill="#ff3f5c" d="M398.62 503.932h-15.003c-1.997 0-3.62 1.624-3.62 3.62v5.74c0 1.998 1.625 3.622 3.62 3.622h15.003V503.93z"/><path d="M411.57 485.288c-3.338-3.337-7.77-5.176-12.478-5.176s-9.14 1.838-12.478 5.176c-.46.46-.46 1.204 0 1.663a1.17 1.17 0 0 0 1.662 0c2.894-2.894 6.735-4.488 10.815-4.488s7.922 1.594 10.815 4.488c.46.46 1.204.46 1.663 0s.46-1.203 0-1.663zm-12.476-.464a12.25 12.25 0 0 0-8.72 3.612c-.46.46-.46 1.203 0 1.662s1.203.46 1.663 0a9.91 9.91 0 0 1 7.057-2.923c2.667 0 5.172 1.038 7.058 2.923a1.17 1.17 0 0 0 1.661 0c.46-.46.46-1.203 0-1.662a12.25 12.25 0 0 0-8.72-3.612zm0 4.8a6.37 6.37 0 0 0-4.563 1.9c-.46.46-.46 1.204 0 1.663s1.203.46 1.662 0c.775-.775 1.806-1.202 2.9-1.202s2.126.427 2.9 1.202a1.17 1.17 0 0 0 1.663 0c.46-.46.46-1.204 0-1.663a6.41 6.41 0 0 0-4.564-1.89z" fill="#f2a01c"/><path d="M399.094 480.112c-4.708 0-9.14 1.838-12.478 5.176-.46.46-.46 1.204 0 1.663a1.17 1.17 0 0 0 1.662 0c2.894-2.894 6.735-4.488 10.815-4.488v-2.35zm0 4.712a12.25 12.25 0 0 0-8.72 3.612c-.46.46-.46 1.203 0 1.662s1.203.46 1.663 0a9.91 9.91 0 0 1 7.057-2.923v-2.35zm0 4.8a6.37 6.37 0 0 0-4.563 1.9c-.46.46-.46 1.204 0 1.663s1.203.46 1.662 0c.775-.775 1.806-1.202 2.9-1.202v-2.35z" fill="#ffc87d"/><path fill="#deecf1" d="M403.124 507.852h-1.856c-.65 0-1.176.526-1.176 1.176s.526 1.175 1.176 1.175h1.856c.65 0 1.176-.526 1.176-1.175s-.527-1.176-1.176-1.176z"/><path fill="#3b4a51" d="M388.34 511.592c-2.286 0-4.146 1.86-4.146 4.147a4.15 4.15 0 0 0 4.146 4.146 4.15 4.15 0 0 0 4.147-4.146c0-2.286-1.86-4.147-4.147-4.147z"/><g fill="#6099b1"><path d="M388.34 511.592c-2.286 0-4.146 1.86-4.146 4.147a4.15 4.15 0 0 0 4.146 4.146v-8.293z"/><circle cx="388.34" cy="515.739" r="1.781"/></g><path fill="#deecf1" d="M388.34 517.52a1.78 1.78 0 1 1 0-3.561v3.56z"/><path fill="#3b4a51" d="M410.03 511.592c-2.286 0-4.146 1.86-4.146 4.147a4.15 4.15 0 0 0 4.146 4.146 4.15 4.15 0 0 0 4.146-4.146 4.15 4.15 0 0 0-4.146-4.147z"/><g fill="#6099b1"><path d="M410.03 511.592c-2.286 0-4.146 1.86-4.146 4.147a4.15 4.15 0 0 0 4.146 4.146v-8.293z"/><circle cx="410.029" cy="515.739" r="1.781"/></g><path fill="#deecf1" d="M410.03 517.52a1.78 1.78 0 1 1 0-3.561v3.56z"/></svg>