<svg width="40" height="40" id="Call_for_Vehicle" data-name="Call for Vehicle" xmlns="http://www.w3.org/2000/svg" viewBox="0 0 32.73 40"><defs><style>.cls-1{fill:#212121;}</style></defs><title>Call for Vehicle</title><path class="cls-1" d="M32.58,1.84A2.7,2.7,0,0,0,30,0H10A2.72,2.72,0,0,0,7.42,1.84L3.64,12.73V27.27a1.82,1.82,0,0,0,1.81,1.82H7.27a1.83,1.83,0,0,0,1.82-1.82V25.45H30.91v1.82a1.83,1.83,0,0,0,1.82,1.82h1.82a1.82,1.82,0,0,0,1.81-1.82V12.73ZM10.64,3.64H29.35l2,5.65H8.67ZM32.73,21.82H7.27V12.73H32.73Z" transform="translate(-3.64)"/><circle class="cls-1" cx="8.18" cy="17.27" r="2.73"/><circle class="cls-1" cx="24.55" cy="17.27" r="2.73"/><polygon class="cls-1" points="7.27 34.55 14.54 34.55 14.54 30.91 25.45 36.36 18.18 36.36 18.18 40 7.27 34.55"/></svg>