<svg xmlns="http://www.w3.org/2000/svg" width="150" height="150" xmlns:v="https://vecta.io/nano"><path fill="#5da4da" d="M133 134.4c-22.4 18.2-92.2 18.2-114.1 0-22.3-18.3-20-96.3.1-116.8C39-3 113-3 133 17.6c20.1 20.5 22.4 98.5 0 116.8z"/><path fill="#6eafe0" d="M76.5 102.4c-20.1 16-42.4 24.2-63.4 24.6C-2.5 100.6.7 36.3 19 17.6 35.4.7 86.9-2.5 116.6 8c7.3 30.1-7.8 68.4-40.1 94.4z"/><path fill="#fff" d="M104.7 41.3c5.9 5 8.7 12.3 8.7 22.4 0 10-2.7 17.3-8.7 22.4-5.9 4.6-15.1 6.8-26.9 6.8H66.9v22.8H48.6V34h29.2c11.9 0 21 2.3 26.9 7.3zM91.1 73.7c2.3-2.3 3.2-5.9 3.2-10.9 0-4.6-1.4-8.2-4.1-10s-7.3-3.2-13.2-3.2H66.4v27.8h12.3c6-.1 10.1-1.4 12.4-3.7z"/></svg>