<?xml version="1.0" encoding="iso-8859-1"?>
<!-- Generator: Adobe Illustrator 19.0.0, SVG Export Plug-In . SVG Version: 6.00 Build 0)  -->
<svg version="1.1" id="Capa_1" xmlns="http://www.w3.org/2000/svg" xmlns:xlink="http://www.w3.org/1999/xlink" x="0px" y="0px"
	 viewBox="0 0 511.999 511.999" style="enable-background:new 0 0 511.999 511.999;" xml:space="preserve">
<path style="fill:#F8E8B9;" d="M383.956,185.397c-2.637-7.579-7.224-13.984-13.032-18.808c-3.09-2.567-4.595-6.516-3.989-10.488
	c1.058-6.934,0.528-14.172-1.709-20.996l0,0c-2.856-8.713-8.015-15.822-14.466-20.684c-3.118-2.35-4.954-6.066-4.564-9.951
	c0.514-5.116-0.014-10.377-1.65-15.369l0,0c-4.368-13.324-15.271-22.08-27.392-22.877c-3.669-0.241-6.963-2.33-8.475-5.681
	c-9.461-20.967-32.58-45.314-47.551-58.068c-4.827-4.112-12.256-2.981-15.437,2.504c-17.986,31.009-57.175,51.717-58.512,78.625
	c-0.226,4.546-3.507,8.357-7.969,9.256l-0.02,0.004c-14.014,2.808-22.512,19.051-17.922,34.255l0.759,3.088
	c1.206,4.904-1.109,9.902-5.495,12.404c-12.169,6.941-18.606,23.25-13.947,38.678l1.384,4.583c1.212,4.015,0.088,8.404-2.991,11.252
	c-8.876,8.21-12.785,21.22-8.546,33.663l8.742,25.657h209.838l25.666-31.553C385.678,213.828,388.642,198.866,383.956,185.397z"/>
<path style="fill:#F0DBA5;" d="M212.787,181.851c-13.338-13.014-15.446-28.979-9.331-43.873c1.651-4.021,1.122-8.538-1.379-12.093
	c-13.819-19.645-1.406-54.299,4.592-76.411c-10.594,11.139-18.907,22.025-19.491,34.176c-0.218,4.529-3.522,8.314-7.967,9.21
	l-0.02,0.004c-14.014,2.808-22.512,19.051-17.922,34.255l0.759,3.088c1.206,4.904-1.109,9.902-5.495,12.404
	c-12.169,6.941-18.606,23.25-13.947,38.677l1.384,4.583c1.212,4.015,0.088,8.404-2.991,11.252
	c-8.876,8.21-12.785,21.22-8.546,33.663l8.742,25.657h179.04c-42.233-3.886-100.469-30.558-103.761-66.656
	C216.18,186.789,214.943,183.954,212.787,181.851z"/>
<path style="fill:#EBCE72;" d="M300.952,481.531l30.858-77.372c8.583-21.521,8.294-45.565-0.803-66.874l0,0
	c-30.469-71.366-100.58-117.667-178.178-117.667h-17.275c-13.881,0-23.378,14.012-18.236,26.906l93.728,235.007
	C227.248,522.155,284.75,522.155,300.952,481.531z"/>
<path style="fill:#F4E08F;" d="M211.046,481.531l-30.858-77.372c-8.583-21.521-8.294-45.565,0.803-66.874l0,0
	c30.469-71.366,100.581-117.667,178.179-117.667h17.275c13.881,0,23.378,14.012,18.236,26.906l-93.728,235.007
	C284.75,522.155,227.248,522.155,211.046,481.531z"/>
<g>
	<path style="fill:#F0DBA5;" d="M179.849,196.876c-4.142,0-7.5-3.358-7.5-7.5s3.358-7.5,7.5-7.5c6.375,0,51.632-2.79,64.898-5.444
		c4.066-0.811,8.013,1.822,8.826,5.883c0.813,4.062-1.822,8.013-5.883,8.826C232.964,194.086,186.849,196.876,179.849,196.876z"/>
	<path style="fill:#F0DBA5;" d="M265.502,79.806c0.347,0,0.699-0.024,1.053-0.074c19.782-2.781,41.481-8.766,52.274-13.329
		c-0.556-0.071-1.112-0.142-1.674-0.179c-3.669-0.241-6.963-2.33-8.475-5.681c-0.795-1.761-1.693-3.547-2.667-5.347
		c-10.291,3.439-26.217,7.527-41.545,9.682c-4.102,0.576-6.959,4.369-6.383,8.471C258.612,77.097,261.823,79.806,265.502,79.806z"/>
</g>
<g>
	<ellipse style="fill:#E87684;" cx="200.259" cy="146.789" rx="20.566" ry="16.378"/>
	<ellipse style="fill:#E87684;" cx="311.739" cy="146.789" rx="20.566" ry="16.378"/>
</g>
<g>
	<path style="fill:#414C59;" d="M212.248,137.955c-4.142,0-7.5-3.358-7.5-7.5v-7.263c0-4.142,3.358-7.5,7.5-7.5s7.5,3.358,7.5,7.5
		v7.263C219.748,134.598,216.39,137.955,212.248,137.955z"/>
	<path style="fill:#414C59;" d="M299.75,137.955c-4.142,0-7.5-3.358-7.5-7.5v-7.263c0-4.142,3.358-7.5,7.5-7.5s7.5,3.358,7.5,7.5
		v7.263C307.25,134.598,303.892,137.955,299.75,137.955z"/>
	<path style="fill:#414C59;" d="M255.999,143.532c-6.588,0-12.854-2.853-17.189-7.827c-2.721-3.123-2.396-7.86,0.727-10.582
		c3.123-2.721,7.86-2.396,10.582,0.727c1.485,1.705,3.629,2.683,5.88,2.683c2.251,0,4.395-0.978,5.88-2.683
		c2.721-3.123,7.458-3.447,10.582-0.727c3.123,2.722,3.448,7.459,0.727,10.582C268.852,140.679,262.587,143.532,255.999,143.532z"/>
</g>
<g>
	<path style="fill:#EBCE72;" d="M261.154,330.664c-1.92,0-3.839-0.732-5.303-2.197c-2.929-2.929-2.929-7.678,0-10.606l58.261-58.261
		c2.929-2.929,7.678-2.929,10.606,0c2.929,2.929,2.929,7.678,0,10.606l-58.261,58.261
		C264.993,329.932,263.074,330.664,261.154,330.664z"/>
	<path style="fill:#EBCE72;" d="M256.307,396.238c-1.919,0-3.839-0.732-5.303-2.197c-2.929-2.929-2.929-7.678,0-10.607
		l70.287-70.286c2.929-2.929,7.678-2.929,10.606,0c2.929,2.929,2.929,7.678,0,10.607l-70.287,70.286
		C260.146,395.505,258.226,396.238,256.307,396.238z"/>
	<path style="fill:#EBCE72;" d="M322.239,359.68c-1.919,0-3.839-0.732-5.303-2.197l-53.168-53.168
		c-2.929-2.929-2.929-7.678,0-10.606c2.929-2.929,7.678-2.929,10.606,0l53.168,53.168c2.929,2.929,2.929,7.678,0,10.606
		C326.078,358.948,324.158,359.68,322.239,359.68z"/>
	<path style="fill:#EBCE72;" d="M281.536,404.677c-1.919,0-3.839-0.732-5.303-2.197l-50.464-50.465
		c-2.929-2.929-2.929-7.678,0-10.606c2.929-2.929,7.678-2.93,10.606,0l50.464,50.465c2.929,2.929,2.929,7.678,0,10.606
		C285.375,403.945,283.455,404.677,281.536,404.677z"/>
	<path style="fill:#EBCE72;" d="M258.14,444.997c-1.919,0-3.839-0.732-5.303-2.197l-38.382-38.382
		c-2.929-2.929-2.929-7.678,0-10.606c2.929-2.929,7.678-2.929,10.606,0l38.382,38.382c2.929,2.929,2.929,7.678,0,10.607
		C261.979,444.265,260.059,444.997,258.14,444.997z"/>
</g>
<g>
	<path style="fill:#F4E08F;" d="M160.289,298.786c-1.919,0-3.839-0.732-5.303-2.197c-2.929-2.929-2.929-7.678,0-10.606
		l31.002-31.001c2.929-2.929,7.678-2.929,10.606,0c2.929,2.929,2.929,7.678,0,10.607l-31.002,31.001
		C164.128,298.054,162.209,298.786,160.289,298.786z"/>
	<path style="fill:#F4E08F;" d="M192.579,284.245c-1.919,0-3.839-0.732-5.303-2.197l-27.913-27.913
		c-2.929-2.929-2.929-7.678,0-10.606c2.929-2.929,7.678-2.929,10.606,0l27.913,27.913c2.929,2.929,2.929,7.678,0,10.606
		C196.417,283.512,194.498,284.245,192.579,284.245z"/>
</g>
<g>
</g>
<g>
</g>
<g>
</g>
<g>
</g>
<g>
</g>
<g>
</g>
<g>
</g>
<g>
</g>
<g>
</g>
<g>
</g>
<g>
</g>
<g>
</g>
<g>
</g>
<g>
</g>
<g>
</g>
</svg>
