<?xml version="1.0" encoding="utf-8"?>
<!-- Generator: Adobe Illustrator 16.0.0, SVG Export Plug-In . SVG Version: 6.00 Build 0)  -->
<!DOCTYPE svg PUBLIC "-//W3C//DTD SVG 1.1//EN" "http://www.w3.org/Graphics/SVG/1.1/DTD/svg11.dtd">
<svg version="1.1" id="Layer_1" xmlns="http://www.w3.org/2000/svg" xmlns:xlink="http://www.w3.org/1999/xlink" x="0px" y="0px"
	 width="250px" height="80px" viewBox="125 210 250 80" enable-background="new 125 210 250 80" xml:space="preserve">
<g id="Black">
	<title>Dinamic_Logo</title>
	<g id="Logo">
		<polygon fill="#FFBB00" points="177.4,245.2 166.2,270 179.5,283.4 190.7,258.7 201.9,234 		"/>
		<polygon fill="#55D292" points="164,231.9 139.3,243.2 152.8,256.5 177.4,245.2 188.6,220.6 		"/>
		<polygon opacity="0.2" fill="#BF360C" enable-background="new    " points="190.7,258.7 201.9,234 188.6,240.1 		"/>
		<path fill="#694C99" d="M177.8,245.6L177.8,245.6L177.8,245.6z"/>
		<polygon fill="#5B32BC" points="201.9,234 177.4,245.2 188.6,220.6 		"/>
		<polygon opacity="0.2" fill="#FFFFFF" enable-background="new    " points="140.2,243.3 187.1,221.9 187.1,221.9 188.2,221.4 
			188.6,220.6 164,231.9 139.3,243.2 139.3,243.2 		"/>
		<polygon opacity="0.2" fill="#263238" enable-background="new    " points="152.9,255.9 140.2,243.3 139.3,243.2 152.8,256.5 
			152.8,256.5 		"/>
		<polygon opacity="0.2" fill="#263238" enable-background="new    " points="152.9,255.9 152.8,256.5 177.4,245.2 177.7,244.5 
			176.9,244.9 		"/>
		<polygon opacity="0.2" fill="#FFFFFF" enable-background="new    " points="166.8,269.8 166.8,269.8 177.7,245.7 177.7,245.7 
			178.1,244.9 177.4,245.2 166.2,270 166.2,270 		"/>
		<polygon opacity="0.2" fill="#BF360C" enable-background="new    " points="190.7,258.7 201.9,234 201.2,234.4 200.8,235.1 
			200.8,235.1 179.3,282.4 179.3,282.4 179.3,282.4 179.5,283.3 179.5,283.4 		"/>
		<polygon opacity="0.2" fill="#BF360C" enable-background="new    " points="166.8,269.8 166.2,270 179.5,283.3 179.3,282.4 		"/>
		<polyline fill="none" points="188.7,221.6 178.5,244.2 178.5,244.2 178.5,244.2 201,233.9 201,233.9 		"/>
		<polyline fill="none" points="201,233.9 188.7,221.6 188.7,221.6 		"/>
		<polygon opacity="0.2" fill="#263238" enable-background="new    " points="188.7,221.6 201,233.9 201.9,234 188.6,220.7 		"/>
		<polyline opacity="0.2" fill="#FFFFFF" enable-background="new    " points="188.7,221.6 188.6,220.7 188.6,220.6 177.4,245.2 
			177.4,245.2 178.5,244.2 178.5,244.2 		"/>
		<polyline opacity="0.2" fill="#263238" enable-background="new    " points="177.4,245.2 201.9,234 201.9,234 201,233.9 
			201,233.9 178.5,244.2 		"/>
	</g>
	<g opacity="0.87" enable-background="new    ">
		<path d="M237,262.2c0,2.3-0.7,4.1-2.1,5.5s-3.2,2-5.6,2h-12v-39.4h12c2.3,0,4.2,0.7,5.6,2s2.1,3.2,2.1,5.5V262.2z M231.1,261.2
			v-22.6c0-2.2-1.2-3.3-3.5-3.3h-4.4v29.3h4.2C229.9,264.5,231.1,263.4,231.1,261.2z"/>
		<path d="M247.1,240.5h-5.8v-5.9h5.8V240.5z M247.1,269.6h-5.7v-25.4h5.7V269.6z"/>
		<path d="M271.6,269.6h-5.2l-9.4-24.8c0.3,1.2,0.4,2.2,0.4,2.8v22h-5.7v-39.4h5.2l9.4,24.3c-0.3-1.2-0.4-2.2-0.4-2.8v-21.5h5.7
			V269.6z"/>
		<path d="M296.3,269.6h-5.8l-1.2-7.5h-7.4l-1.2,7.5h-5.8v-0.1l7.6-39.4h6.2L296.3,269.6z M288.5,257l-2.9-17.8l-2.9,17.8H288.5z"/>
		<path d="M323.5,269.6h-5.7v-19.4c0-1,0.1-2.5,0.4-4.3l-5.1,20.1h-3l-5.1-20.1c0.2,1.9,0.4,3.3,0.4,4.3v19.4h-5.7v-39.4h5.6
			l6.2,21.8c0.1,0.2,0.1,0.8,0.2,1.8c0-0.4,0-1,0.2-1.8l6.2-21.8h5.6V269.6z"/>
		<path d="M334.2,269.6h-5.9v-39.4h5.9V269.6z"/>
		<path d="M358.4,266c0,2.4-1.2,3.6-3.6,3.6h-12.3c-2.3,0-3.5-1.2-3.5-3.6v-32.2c0-2.4,1.2-3.6,3.5-3.6h12.3c2.4,0,3.6,1.2,3.6,3.6
			v9.2h-5.9v-7.8h-7.6v29.3h7.6v-8.3h5.9V266z"/>
	</g>
</g>
</svg>
