<svg xmlns="http://www.w3.org/2000/svg" width="600" height="600" viewBox="-50 -50 600 600" xmlns:v="https://vecta.io/nano"><path fill="#fb0" d="M304.2 195.8L214.6 393l106.3 107 178.6-393z"/><path fill="#55d292" d="M197 89.9L.7 179.8l107.3 106 196.2-90L393.2 0z"/><path opacity=".2" fill="#bf360c" d="M410.2 303.5L499.5 107l-106.4 48.4z"/><path fill="#694c99" d="M307.3 199h0z"/><path fill="#5b32bc" d="M499.5 107l-195.3 88.8L393.2 0z"/><path opacity=".2" fill="#fff" d="M7.8 181.1L390.6 5.7l2.6-5.7L.7 179.8z"/><g fill="#263238"><path opacity=".2" d="M108.8 280.8l-101-99.7-7.1-1.3 107.3 106z"/><path opacity=".2" d="M108.8 280.8l-.8 5 196.2-90 2.6-5.6-7.1 3.2z"/></g><path opacity=".2" fill="#fff" d="M219.5 392.2v-.1L310 193.3l-5.8 2.5L214.6 393z"/><g fill="#bf360c"><path opacity=".2" d="M410.2 303.5L499.5 107l-5.7 2.5-2.6 5.7-171.6 377.6 1.3 7.2z"/><path opacity=".2" d="M219.5 392.2l-4.9.8 106.3 107-1.3-7.2z"/></g><path opacity=".2" fill="#263238" d="M394.5 7.1l97.9 98.5 7.1 1.4L393.2 0l1.3 7.2z"/><path opacity=".2" fill="#fff" d="M394.5 7.2L393.2 0l-89 195.8 8.3-8.2"/><path opacity=".2" fill="#263238" d="M304.2 195.8L499.5 107l-7.1-1.4-179.9 82"/></svg>