<svg xmlns="http://www.w3.org/2000/svg" width="120" height="45" viewBox="65 17.5 120 45" xmlns:v="https://vecta.io/nano"><path fill="#fb0" d="M89.5 37.6L83.9 50l6.6 6.6L101.7 32z"/><path fill="#55d292" d="M82.8 31l-12.3 5.6 6.7 6.6 12.3-5.6L95 25.4z"/><path opacity=".2" fill="#bf360c" d="M96.1 44.3l5.6-12.3-6.7 3.1z"/><path fill="#694c99" d="M89.7 37.8h0z"/><path fill="#5b32bc" d="M101.7 32l-12.2 5.6L95 25.4z"/><path opacity=".2" fill="#fff" d="M70.9 36.7L94.3 26l.5-.2.2-.4L82.8 31l-12.3 5.6z"/><g fill="#263238"><path opacity=".2" d="M77.3 42.9l-6.4-6.2-.4-.1 6.7 6.6z"/><path opacity=".2" d="M77.3 42.9l-.1.3 12.3-5.6.1-.3-.4.2z"/></g><path opacity=".2" fill="#fff" d="M84.2 49.9h0l5.4-12 .2-.4-.3.1L83.9 50z"/><g fill="#bf360c"><path opacity=".2" d="M96.1 44.3l5.6-12.3-.4.2-.2.4-10.7 23.5.1.5z"/><path opacity=".2" d="M84.2 49.9l-.3.1 6.6 6.6-.1-.5z"/></g><path opacity=".2" fill="#263238" d="M95.1 25.9l6.1 6.1h.5L95 25.4z"/><path opacity=".2" fill="#fff" d="M95.1 25.9l-.1-.5-5.5 12.2.5-.5"/><path opacity=".2" fill="#263238" d="M89.5 37.6l12.2-5.6h-.5L90 37.1"/><path d="M119.1 46.1c0 1.1-.3 2-1 2.7s-1.6 1-2.8 1h-6V30.2h6c1.1 0 2.1.3 2.8 1 .7.6 1 1.6 1 2.7v12.2zm-2.9-.5V34.3c0-1.1-.6-1.6-1.7-1.6h-2.2v14.6h2.1c1.2-.1 1.8-.6 1.8-1.7zm8-10.3h-2.9v-2.9h2.9v2.9zm0 14.5h-2.8V37.1h2.8v12.7zm12.2 0h-2.6l-4.7-12.4c.2.6.2 1.1.2 1.4v11h-2.8V30.1h2.6l4.7 12.1-.2-1.4V30.1h2.8v19.7zm12.3 0h-2.9l-.6-3.7h-3.7l-.6 3.7H138l3.8-19.6h3.1l3.8 19.6zm-3.9-6.3l-1.4-8.9-1.4 8.9h2.8zm17.4 6.3h-2.8v-9.7c0-.5 0-1.2.2-2.1l-2.5 10h-1.5L153 38l.2 2.1v9.7h-2.8V30.1h2.8l3.1 10.9c0 .1 0 .4.1.9 0-.2 0-.5.1-.9l3.1-10.9h2.8l-.2 19.7zm5.4 0h-2.9V30.1h2.9v19.7zm12-1.8c0 1.2-.6 1.8-1.8 1.8h-6.1c-1.1 0-1.7-.6-1.7-1.8V32c0-1.2.6-1.8 1.7-1.8h6.1c1.2 0 1.8.6 1.8 1.8v4.6h-2.9v-3.9h-3.8v14.6h3.8v-4.1h2.9V48z" opacity=".87"/></svg>