<svg id="图层_2" data-name="图层 2" xmlns="http://www.w3.org/2000/svg" xmlns:xlink="http://www.w3.org/1999/xlink" viewBox="0 0 198.05 56.69"><defs><style>.cls-1{fill:#fff;}.cls-2{mask:url(#mask);}.cls-3{mask:url(#mask-2);}</style><mask id="mask" x="0" y="0" width="198.05" height="56.69" maskUnits="userSpaceOnUse"><g transform="translate(-0.99)"><g id="b"><path id="a" class="cls-1" d="M1,0H199V56.69H1Z"/></g></g></mask><mask id="mask-2" x="0" y="0" width="198.05" height="56.69" maskUnits="userSpaceOnUse"><g transform="translate(-0.99)"><g id="d"><path id="c" class="cls-1" d="M1,0H199V56.69H1Z"/></g></g></mask></defs><title>park-hyatt-vector-logo-white</title><g class="cls-2"><path class="cls-1" d="M4.91,28.71a5.91,5.91,0,0,0,1.18.18A3.67,3.67,0,0,0,10,25.07c0-1.7-.67-3.38-3.57-3.38a8.68,8.68,0,0,0-1.51.09Zm0,4.23c0,1.22.37,1.68,1.75,1.68h.72V35h-6v-.42h.3c1.14,0,1.47-.24,1.47-1.26V23.05c0-.81-.27-1.16-1-1.16H1v-.41c.61,0,1.68-.09,2.75-.14s2.11-.06,2.7-.06c4.56,0,5.6,2.18,5.6,3.86,0,2.55-2,4.16-5.27,4.16a8.88,8.88,0,0,1-1.86-.17v3.81Z" transform="translate(-0.99)"/></g><path class="cls-1" d="M23.91,23l-1.86,5.08h3.77L23.9,23Zm-2.23,6-1.26,3.43A6.3,6.3,0,0,0,20,33.81c0,.59.57.81,1.77.81h.35V35h-5v-.41c1.42,0,1.66-.26,2.36-2.16l4-10.84-.19-.47h1.9l4.55,12.1a1.71,1.71,0,0,0,2,1.37V35h-6v-.41h.56c1.25,0,1.71-.13,1.71-.74a2.4,2.4,0,0,0-.25-.9l-1.46-4Zm19.41-.12a10.25,10.25,0,0,0,1.35,0c2.42,0,4-1,4-3.64,0-2-.92-3.59-4.27-3.59a9.66,9.66,0,0,0-1.09,0v7.15Zm0,4.1c0,1.3.52,1.63,1.74,1.63h.5V35H37.16v-.41h.37c1.29,0,1.75-.35,1.75-1.81V23.63c0-1.35-.37-1.74-1.64-1.74h-.48v-.41c.52,0,1.85-.09,2.75-.13s1.33-.07,2.74-.07c4,0,5.85,1.65,5.85,3.88a3.71,3.71,0,0,1-2.91,3.53A25.72,25.72,0,0,1,48.08,31l1.72,1.72a6.62,6.62,0,0,0,4.3,2.21v.39c-3.81.17-4.8-.66-6.74-2.6l-1.43-1.43a17.19,17.19,0,0,0-2.25-1.95c-.55,0-.89.05-1.48.05s-.77,0-1.11,0V33Zm27,2v-.42c1,0,1.42-.2,1.42-.61S69,32.9,66.83,30.7c-1.74-1.75-2.27-2.08-3.22-2v4.07c0,1.37.39,1.81,1.74,1.81h.28V35h-6v-.41h.39c1.4,0,1.75-.48,1.75-1.59V23.46c0-1.31-.59-1.57-1.75-1.57h-.39v-.42h5.89v.42h-.2c-1.31,0-1.74.41-1.74,1.72v4.71a3.92,3.92,0,0,0,2.44-1.4c1.7-1.69,3-3.66,3-4.36,0-.49-.33-.67-1.51-.67v-.42h5.74v.42c-1.55,0-2.23.24-2.89.89s-2,3.4-4.33,5.15c.39.06.78.39,1.74,1.35,2.3,2.29,3.52,4,4.23,4.71.37.37.94.63,2.42.63V35H68.1Zm28.51-6.48V32.7c0,1.42.28,1.92,1.74,1.92h.07V35H93v-.42h.13c1.29,0,1.72-.35,1.72-1.59V23.44c0-1.14-.37-1.46-1.57-1.55v-.41h5.19v.41c-1.55,0-1.81.41-1.81,2.09v3.8h8.55v-4.3c0-1.15-.37-1.59-1.73-1.59H103v-.41h5.6v.41c-1.3.05-1.65.44-1.65,1.79v9c0,1.55.43,1.89,1.74,1.89h.22V35h-6.17v-.42h.67c1.42,0,1.73-.5,1.73-1.63V28.56Zm29.13-5.1c.7-1.2.28-1.57-1.11-1.57v-.41h4.92v.41a3,3,0,0,0-2.72,1.72l-3.62,6.13V33c0,1.15.41,1.61,1.74,1.61h.29V35h-6v-.42h.42c1.35,0,1.74-.5,1.74-1.57V30l-3.88-6.06c-1.07-1.68-1.57-2-3-2v-.41h5.8v.41c-1.7,0-1.81.41-1.15,1.42l3.49,5.38,3.07-5.23Zm13.6-.48-1.85,5.08h3.77Zm-2.22,6-1.27,3.42a6.39,6.39,0,0,0-.43,1.37c0,.59.56.81,1.76.81h.35V35h-5v-.41c1.42,0,1.66-.26,2.36-2.16l4-10.83-.2-.48h1.9l4.56,12.1a1.71,1.71,0,0,0,2,1.37V35h-6v-.41h.57c1.24,0,1.7-.13,1.7-.74a2.35,2.35,0,0,0-.24-.89l-1.46-4Zm23,4c0,1.18.39,1.59,1.72,1.59h.81V35H155.8v-.42h.81c1.33,0,1.72-.41,1.72-1.59V22.26h-3.79c-.88,0-1.27.5-1.59,2.42h-.4l.35-3.53h.41a.37.37,0,0,0,.24.26,1.62,1.62,0,0,0,.44.07h10.49c.3,0,.63-.07.67-.33h.42l.35,3.53h-.4c-.32-1.92-.72-2.42-1.59-2.42h-3.79V33Zm21.08,0c0,1.18.39,1.59,1.72,1.59h.81V35h-6.87v-.42h.81c1.33,0,1.72-.41,1.72-1.59V22.26h-3.79c-.87,0-1.27.5-1.59,2.42h-.4l.35-3.53h.41a.35.35,0,0,0,.25.26,1.55,1.55,0,0,0,.43.07h10.49c.3,0,.63-.07.67-.33h.42l.35,3.53h-.39c-.33-1.92-.72-2.42-1.6-2.42h-3.79V33Z" transform="translate(-0.99)"/><g class="cls-3"><path class="cls-1" d="M150.88.91h-112V0h112V.91Zm0,55.78h-112v-.9h112ZM194.12,25h.76c.66,0,1.26,0,1.26-.78s-.55-.73-1-.73h-1V25Zm-.75-2.11h1.84c1.13,0,1.67.45,1.67,1.36a1.22,1.22,0,0,1-1.26,1.29l1.36,2.1h-.79l-1.29-2h-.78v2h-.75ZM195,28.75a3.47,3.47,0,1,0-3.36-3.49A3.36,3.36,0,0,0,195,28.75Zm0-7.53a4.07,4.07,0,0,1,.06,8.13H195a4.07,4.07,0,1,1,0-8.13Z" transform="translate(-0.99)"/></g></svg>