<svg id="Layer_1" data-name="Layer 1" xmlns="http://www.w3.org/2000/svg" viewBox="0 0 299.3 300"><defs><style>.cls-1,.cls-2{fill:#212121;}.cls-1{fill-rule:evenodd;}</style></defs><title>uru-logo-black</title><path class="cls-1" d="M136.28,56.31c-46.23,4.8-88.77,51-80.13,104.87,4.19,26.15,19.41,50.88,41.89,65.18,17.5,11.14,40.21,17.51,62,14.09,25.39-4,43.82-14.78,59.44-32.9,32.27-37.47,26-98.48-12.85-130-18.25-14.83-39.78-24.38-70.3-21.21M60.8,145.16C65.18,101.09,97,68.34,140.08,61.51,170,59.5,199.51,72,217.72,96.43c22.1,30.94,19.86,73.76-1.18,103.91-16.21,23.2-42.79,36-76.11,33.45-24.62-1.88-47.17-14.83-62.16-34.14C66.13,184,58.82,165,60.8,145.16Z" transform="translate(-0.35)"/><path class="cls-2" d="M118.39,118.66H112v26.2a11.84,11.84,0,0,1-1.2,5.71,6.73,6.73,0,0,1-1.11,1.54,8,8,0,0,1-.83.71,8.13,8.13,0,0,1-4,1.52,10.06,10.06,0,0,1-1.37.09,10.65,10.65,0,0,1-1.15-.06,8.64,8.64,0,0,1-2.5-.61A7.45,7.45,0,0,1,97.23,152q-2.3-2.43-2.3-7.49V118.66H81.76v26.13a27.1,27.1,0,0,0,1.5,9.48,19.17,19.17,0,0,0,1.59,3.28,16.18,16.18,0,0,0,2.7,3.37,16,16,0,0,0,2.4,1.83,18.15,18.15,0,0,0,4,1.93l.34.13a26.67,26.67,0,0,0,3,.71,29.79,29.79,0,0,0,4,.48c.64,0,1.3.07,2,.07s1,0,1.55,0c.83,0,1.64-.1,2.42-.19s1.66-.22,2.45-.38a25.79,25.79,0,0,0,2.59-.64c.38-.12.72-.27,1.08-.4a18.82,18.82,0,0,0,2.32-1,16.08,16.08,0,0,0,2.56-1.71c.3-.24.61-.47.89-.73l.22-.24a16,16,0,0,0,2.58-3.26c.26-.43.52-.85.75-1.31a18.36,18.36,0,0,0,.84-1.91c.23-.61.43-1.25.61-1.91s.32-1.32.45-2a32.79,32.79,0,0,0,.5-5.82v-25.8h-6.72Z" transform="translate(-0.35)"/><path class="cls-2" d="M207,118.66h-6.41v26.2a11.85,11.85,0,0,1-1.22,5.75,6.87,6.87,0,0,1-1.09,1.5c-.21.2-.43.39-.65.57a7.55,7.55,0,0,1-2.34,1.26,10.12,10.12,0,0,1-3.22.49l-.45,0A9.6,9.6,0,0,1,189,154a7.58,7.58,0,0,1-3.1-2,7.22,7.22,0,0,1-.5-.6c-1.2-1.61-1.81-3.9-1.81-6.89V118.66H170.38v26.13a27.34,27.34,0,0,0,1.49,9.48,18.16,18.16,0,0,0,1.28,2.7,14.6,14.6,0,0,0,.95,1.53,16.41,16.41,0,0,0,2,2.32.81.81,0,0,1,.09.1c.27.25.57.48.86.71a17.13,17.13,0,0,0,2.92,1.92c.45.23.9.45,1.38.65s1.06.43,1.62.61,1.29.37,2,.52a27.5,27.5,0,0,0,2.86.48,34.66,34.66,0,0,0,4.16.26h.15c1,0,2-.05,2.94-.14.77-.06,1.53-.16,2.26-.28a25.43,25.43,0,0,0,3.66-.83l.31-.12a18,18,0,0,0,5.29-2.74c.43-.33.86-.67,1.25-1a16,16,0,0,0,1.8-2,18.8,18.8,0,0,0,2.59-4.68,20.4,20.4,0,0,0,.7-2.21,30.33,30.33,0,0,0,.86-7.53v-25.8H207Z" transform="translate(-0.35)"/><path class="cls-2" d="M134.58,139.15v26.14h12.29v-25h0c.7-6,6.07-10.46,12.59-10.47H163V118.64h-6.9v0c-11.89,0-21.54,9.11-21.54,20.34,0,.05,0,.1,0,.15Z" transform="translate(-0.35)"/><path class="cls-2" d="M89.17,177.56H87.82v-1.79H94.1c2.47,0,4.25,1.37,4.25,3.74a3.4,3.4,0,0,1-1.82,3.16v0a3.52,3.52,0,0,1,2.41,3.55c0,2.77-2.12,4.18-4.72,4.18H90.5c-.93,0-1.33-.39-1.33-1.33Zm5,4.38a2.07,2.07,0,0,0,2.12-2.22,2,2,0,0,0-2.16-2.16H91.25v4.38Zm-2.41,6.71h2.61a2.31,2.31,0,0,0,2.48-2.49,2.35,2.35,0,0,0-2.48-2.51H91.25v4.55A.41.41,0,0,0,91.71,188.65Z" transform="translate(-0.35)"/><path class="cls-2" d="M104.09,177.56h-1.35v-1.79h6.4a4.08,4.08,0,0,1,4.38,4.3,3.78,3.78,0,0,1-2.64,3.89v0a1.56,1.56,0,0,1,.62.67l1.77,3.51c.21.43.54.47,1,.47h.27v1.79h-1c-1.14,0-1.56-.15-2-1.1l-2-4c-.37-.68-.64-.79-1.45-.79h-1.91v5.84h-2.08Zm4.78,5.26a2.39,2.39,0,0,0,2.51-2.66,2.33,2.33,0,0,0-2.47-2.6h-2.74v5.26Z" transform="translate(-0.35)"/><path class="cls-2" d="M119,177.56h-1.36v-1.79h8.63c.93,0,1.33.4,1.33,1.33V179h-1.9V178a.4.4,0,0,0-.45-.46h-4.18v4.59h5.13v1.79h-5.13v4.26a.41.41,0,0,0,.46.45h4.28a.41.41,0,0,0,.46-.45v-.94h1.91v1.85c0,.94-.4,1.33-1.33,1.33h-6.52c-.94,0-1.33-.39-1.33-1.33Z" transform="translate(-0.35)"/><path class="cls-2" d="M131.8,178c-.1-.38-.33-.46-.7-.46h-.32v-1.79H132c1,0,1.56.21,1.81,1.21l2.26,9.43c.19.79.29,1.56.29,1.56h0s.13-.75.36-1.56l3-10.59h1.87l2.74,10.59c.2.81.31,1.56.31,1.56h0a13.58,13.58,0,0,1,.27-1.56l2.31-9.43c.25-1,.74-1.21,1.78-1.21h1.19v1.79h-.31c-.38,0-.61.08-.71.46L146,190.44h-2.41l-2.49-9.27c-.25-.95-.42-2-.42-2h0s-.21,1.06-.48,2l-2.66,9.29H135Z" transform="translate(-0.35)"/><path class="cls-2" d="M155.09,177.56h-1.35v-1.79h6.46a4.36,4.36,0,0,1,4.59,4.59A4.41,4.41,0,0,1,160.2,185h-3v5.42h-2.08Zm4.78,5.67a2.62,2.62,0,0,0,2.78-2.87,2.56,2.56,0,0,0-2.76-2.8h-2.72v5.67Z" transform="translate(-0.35)"/><path class="cls-2" d="M166.37,188.65h.29c.38,0,.56-.08.69-.45l4.59-12.43h2.18l4.59,12.43a.61.61,0,0,0,.69.45h.31v1.79h-1.16c-1,0-1.38-.25-1.71-1.2l-1.1-3h-5.4l-1.1,3a1.47,1.47,0,0,1-1.72,1.2h-1.15Zm8.85-4.17-1.6-4.47c-.27-.77-.58-2-.58-2h0s-.29,1.28-.56,2l-1.6,4.47Z" transform="translate(-0.35)"/><path class="cls-2" d="M183.09,177.56h-1.35v-1.79h6.4a4.08,4.08,0,0,1,4.38,4.3,3.78,3.78,0,0,1-2.64,3.89v0a1.61,1.61,0,0,1,.63.67l1.76,3.51c.21.43.54.47,1,.47h.27v1.79h-1c-1.14,0-1.55-.15-2-1.1l-2-4c-.37-.68-.64-.79-1.45-.79h-1.91v5.84h-2.08Zm4.78,5.26a2.39,2.39,0,0,0,2.51-2.66,2.33,2.33,0,0,0-2.47-2.6h-2.74v5.26Z" transform="translate(-0.35)"/><path class="cls-2" d="M197.32,178a.4.4,0,0,0-.45-.46H196v-1.79h2.1c.94,0,1.33.4,1.33,1.33v4.84h1.39c.54,0,1-.08,1.21-.5l3.26-5.67h2.33L204,181.86a2.51,2.51,0,0,1-.83,1v0s.42.1.83.91l2.21,4.41c.2.43.54.47,1,.47h.4v1.79h-1.14c-1.15,0-1.56-.15-2-1.1L202,184.25c-.25-.48-.71-.54-1.31-.54H199.4v6.73h-2.08Z" transform="translate(-0.35)"/><path class="cls-2" d="M130.62,299.73c-17.11-1.54-32.64-9.56-46.81-24.1-2.75-2.82-8.13-4.83-13.83-7-4.58-1.71-9.31-3.47-12.79-5.77l-.7-.46c-14-9.23-25.1-16.51-33.94-31.79-6.41-11.09-8-21.6-9.58-31.76-1.09-7.07-2.21-14.38-5-21.71-13.6-36.07-9.07-69.92,13.85-103.49C31.5,59.55,46.78,45.11,68.55,29.55c24-17.15,44.08-24.23,69.33-24.43,5.75,0,14.22-1.34,22.4-2.6C171.54.8,182.16-.82,186.82.46s12.92,8.42,21.05,15.36c5.82,5,11.32,9.65,15.19,12.07,24,15,32.4,29,42.08,45.25A256.14,256.14,0,0,0,280.92,97.3c25,33.23,25,72.24,0,115.93l-.77-.45.77.45c-1.86,3.25-3.57,6.41-5.23,9.46-7.92,14.61-14.76,27.22-31.2,37.41-7.93,4.92-16.86,7.59-25.49,10.17-8.37,2.5-16.27,4.87-22.89,9.08-24.1,15.34-45.82,22.14-65.45,20.38M184.46,1.87c-5.1-.46-14.64,1-23.9,2.42-8.26,1.27-16.79,2.57-22.67,2.62C113,7.1,93.25,14.08,69.58,31,48,46.44,32.85,60.73,23.31,74.7.74,107.75-3.72,141.07,9.66,176.55c2.83,7.5,4,14.91,5.07,22.07,1.54,10,3.13,20.33,9.37,31.13,8.62,14.91,19.54,22.1,33.37,31.2l.7.46c3.32,2.18,8,3.91,12.43,5.59,5.9,2.2,11.46,4.28,14.49,7.38,29.75,30.52,65.73,31.65,110,3.46,6.83-4.34,14.85-6.74,23.34-9.29s17.33-5.18,25.06-10c16-9.93,22.77-22.36,30.57-36.74,1.66-3.06,3.38-6.23,5.25-9.5,24.62-43,24.68-81.36.16-114a253.44,253.44,0,0,1-15.88-24.32c-9.56-16-17.82-29.91-41.49-44.65-4-2.48-9.54-7.21-15.41-12.22-8-6.81-16.24-13.86-20.37-15A11,11,0,0,0,184.46,1.87Z" transform="translate(-0.35)"/><path class="cls-2" d="M262,118.1c-19.24-27.61-19.51-46-49.13-65.94C169.3,22.79,203.11,30.1,148,28.54,107.86,27.41,63.51,62.23,38.83,92.33,19,116.57,22,134.8,31.52,163c5.46,16.23,6.87,35.73,14.77,50.61C52.45,225.22,57.5,233.9,68,241.37c7.72,5.49,23.47,8.49,30.85,14.44,27.42,22.11,50.05,17.35,78.88,2.75,32.94-16.69,57.35-19.7,79-54.56,16.62-26.75,26-56.15,5.25-85.9m-8.2,84.4c-21.07,33.91-44.81,36.85-76.86,53.07-28.05,14.21-50.06,18.84-76.74-2.66-7.18-5.79-22.5-8.71-30-14-10.23-7.27-15.14-15.72-21.13-27C41.38,197.39,40,178.41,34.7,162.62c-9.24-27.43-12.22-45.17,7.11-68.75,24-29.28,67.15-63.16,106.17-62,53.64,1.51,20.75-5.6,63.13,23,28.82,19.42,29.08,37.29,47.8,64.15C279.07,147.88,270,176.48,253.8,202.5Z" transform="translate(-0.35)"/><path class="cls-2" d="M248,131.57c-8.83-31-14.36-42.28-39.19-61.52C190,55.54,174.39,47.49,151.07,45.28,128,43.09,105.67,53.79,87.54,67c-28.95,21-48.66,49.45-41,86.64,9.51,38.89,14.66,62.72,50.26,85.05,24.47,14.21,47.88,14.6,73.89,5.87,27.59-9.26,52.59-16.51,68-42.63A89.72,89.72,0,0,0,248,131.57m-15.38,67.17c-14.64,24.81-36.79,32.17-63,41-24.69,8.29-46.93,7.92-70.16-5.57-15.18-8.81-24.69-18-31.2-28.5-8.8-14.21-12.11-30.85-16.54-52.27C44.36,118,63.88,92.64,91.37,72.67,108.6,60.15,129,49.16,150.91,51.24c22.14,2.1,38.29,7.56,56.06,21.33,23.58,18.28,27.56,30.42,35.95,59.87C249.3,154.84,244.57,178.41,232.57,198.74Z" transform="translate(-0.35)"/><path class="cls-2" d="M130.77,283.33c-13.13-1.11-24.7-7.44-35.39-19.34-3.7-4.12-10.66-7.13-17.38-10-4.89-2.12-10-4.3-13.73-6.89l-2.53-1.72c-10.92-7.43-19.55-13.29-26-24.86-5.14-9.27-6.55-19.63-7.9-29.64-1-7.56-2.09-15.38-4.73-22.78-11-30.8-6.73-58.41,13.47-86.9,28-39.44,63.71-60.08,103.38-59.69,5.19.05,22.91,0,32.93-2.59l3.8-1c3.49-1,5.6-1.53,7.2-1.4,2.33.2,3.8,2,7.74,6.72,1.16,1.4,2.53,3.06,4.19,5,4.34,5,10.17,8.64,15.82,12.12q2.27,1.39,4.47,2.8c13.61,8.81,22.91,18.17,31.11,31.3,2.58,4.13,5,8.48,7.3,12.68.87,1.58,1.74,3.16,2.63,4.74A190.08,190.08,0,0,0,269,110.56c20.2,27.89,19.18,58.39-3.24,96-1.91,3.21-3.68,6.39-5.38,9.46-6.91,12.48-12.89,23.26-25.6,30.83-7,4.14-16.08,6.79-24.88,9.35-9.14,2.66-18.58,5.4-25.86,9.85-21.34,13.07-38.27,18.56-53.26,17.28Zm52.17-263.9c-1.77-.15-3.89.43-7.41,1.39-1.08.3-2.29.63-3.66,1-9.55,2.48-26.57,2.51-31.56,2.46C101.47,23.89,66.49,44.06,39.17,82.6c-19.82,28-24,55.05-13.21,85.3,2.52,7,3.54,14.54,4.52,21.8,1.33,9.81,2.71,20,7.8,29.14,6.37,11.47,14.83,17.22,25.54,24.51L66.27,245c3.76,2.58,8.71,4.72,13.5,6.79,6.39,2.76,13,5.62,16.39,9.39,10.58,11.78,22.06,18.05,35.1,19.15,14.81,1.26,31.44-4.12,52.35-16.91,6.9-4.22,16-6.86,24.72-9.4,8.61-2.51,17.51-5.09,24.39-9.19,12.6-7.51,18.47-18.08,25.25-30.33,1.65-3,3.35-6,5.19-9.12,21.7-36.4,22.7-67.26,3.07-94.35a182,182,0,0,1-11.36-18c-.86-1.53-1.7-3.06-2.55-4.59-2.25-4.08-4.57-8.3-7.09-12.33-8-12.87-17.17-22-30.51-30.69-1.43-.92-2.89-1.83-4.36-2.73-5.38-3.33-10.94-6.76-15-11.48-1.6-1.86-2.92-3.46-4-4.81C187.36,21.64,185.73,19.67,182.94,19.43Z" transform="translate(-0.35)"/><path class="cls-2" d="M126.41,261.85c-10-1.13-19.19-5.24-28.14-12.59-8.21-6.73-14.89-11.55-20.79-15.8C65.71,225,58.6,219.84,53,209.11c-4-7.6-6-17.07-8.13-27.09a220,220,0,0,0-5.75-22.76C26.25,119.8,28.05,108.4,77.79,66.18,95.19,51.42,122.92,36,148.58,36.93a81.81,81.81,0,0,0,13.53-1c4.76-.62,9.25-1.21,13.26-.76a17.79,17.79,0,0,1,4,.9c6.1,2.2,11.2,7.17,16.61,12.45A99,99,0,0,0,208.9,59.7c22.76,15.63,28.72,28,38.61,48.59,2.14,4.46,4.57,9.51,7.36,15,12.5,24.38,10.49,51.82-5.63,77.27-16,25.25-41,35.87-67.45,47.1-2.85,1.22-5.73,2.44-8.61,3.69-15,6.5-31.1,12.28-46.77,10.53h0m48-223.22c-4-.45-8.38.12-13,.72a77.2,77.2,0,0,1-12.75.94c-24.95-.93-51.86,14-68.72,28.32-48.27,40.94-50,52.05-37.44,90.54a212.46,212.46,0,0,1,5.47,21.68c2.07,9.7,4,18.85,7.89,26.29,5.48,10.56,12.77,15.82,23.81,23.78,5.64,4.07,12,8.68,19.86,15.11,8.77,7.2,17.8,11.24,27.63,12.35,15.3,1.72,30.9-3.87,45.47-10.18,2.75-1.19,5.51-2.36,8.25-3.52,25.54-10.84,49.67-21.08,65.22-45.6,15.71-24.78,17.65-51.53,5.48-75.31-2.67-5.22-5-10.06-7-14.32-9.56-19.89-15.33-31.9-37.41-47.08a92.77,92.77,0,0,1-12.19-10.58c-5.27-5.15-10.26-10-16.37-12.21A17.7,17.7,0,0,0,174.37,38.63Z" transform="translate(-0.35)"/><path class="cls-2" d="M274.14,100.58a213.8,213.8,0,0,1-14-21l0-.06c-2.69-4.42-5.47-9-8.47-13.41-9.33-13.78-20.15-23.89-35.07-32.79-4.74-2.82-13.22-9.64-20.71-15.65-6.24-5-12.69-10.19-13.9-10.5a13.84,13.84,0,0,0-2.7-.4C175.5,6.54,171.6,7.8,167.83,9c-1,.32-1.87.61-2.76.87-6.3,1.89-16.12,3-30,3.37C81.13,14.73,46.45,50.71,26.86,80.63,6,112.51,2.47,142.88,15.79,176.22c3,7.44,4.27,15,5.54,22.37,1.72,10.06,3.51,20.46,9.62,30.57,8,13.15,17.87,19.39,30.43,27.29l1.94,1.22c3.11,2,8.53,4.15,13.78,6.27,7,2.8,13.51,5.45,15.88,7.9,12.85,13.29,26.62,20.11,42.1,20.84,17,.81,36-6,58.25-20.71,7.08-4.7,15.42-7.38,24.26-10.23,8.65-2.78,17.59-5.66,25.24-10.61,14.31-9.25,20.4-21.15,27.45-34.93,1.59-3.12,3.25-6.36,5.05-9.65,22.63-41.37,22.24-76-1.19-106m-.53,105.32c-1.71,3.14-3.32,6.28-4.87,9.31l0,.07c-7,13.64-13,25.41-27.31,34.67-7.64,4.94-16.47,7.78-25,10.53s-16.53,5.33-23.24,9.78c-21.95,14.58-40.85,21.27-57.77,20.46C120.06,290,105.88,283,93.23,269.9c-2.07-2.13-8.61-4.77-14.93-7.32-5.17-2.09-10.53-4.25-13.69-6.24l-1.89-1.19c-12.43-7.82-22.25-14-30.19-27.15-6.12-10.12-7.89-20.42-9.61-30.41-1.21-7.06-2.47-14.36-5.29-21.43-13-32.6-9.45-63.57,10.94-94.7C56.27,39.15,93.2,16.19,135.37,15c13.41-.37,22.85-1.42,28.85-3.22.87-.26,1.74-.54,2.65-.84h0c3.79-1.23,7.72-2.5,11.7-2.31a14.88,14.88,0,0,1,2.95.44c1.46.37,5.88,3.89,14.23,10.58,7.23,5.82,15.44,12.41,20,15.1,14.76,8.8,25.46,18.81,34.7,32.45,3,4.4,5.73,8.91,8.39,13.28a205.33,205.33,0,0,0,13.47,20.28C295.6,130.55,296,164.93,273.61,205.9Z" transform="translate(-0.35)"/></svg>