<?xml version="1.0" encoding="utf-8"?>
<!-- Generator: Adobe Illustrator 16.0.0, SVG Export Plug-In . SVG Version: 6.00 Build 0)  -->
<!DOCTYPE svg PUBLIC "-//W3C//DTD SVG 1.1//EN" "http://www.w3.org/Graphics/SVG/1.1/DTD/svg11.dtd">
<svg version="1.1" id="Capa_1" xmlns="http://www.w3.org/2000/svg" xmlns:xlink="http://www.w3.org/1999/xlink" x="0px" y="0px"
	 width="25px" height="25px" viewBox="0 0 25 25" enable-background="new 0 0 25 25" xml:space="preserve">
<g transform="matrix(1.25 0 0 -1.25 0 45)">
	<g>
		<g>
			<path fill="#C5BBA2" d="M19.334,26c0-5.155-4.179-9.334-9.334-9.334S0.666,20.845,0.666,26S4.845,35.334,10,35.334
				S19.334,31.155,19.334,26"/>
			<path fill="#A7A092" d="M10,24.444c-1.879,0-3.126,0.22-4.667,0.52c-0.352,0.067-1.037,0-1.037-1.038
				c0-2.075,2.382-4.667,5.705-4.667c3.319,0,5.704,2.592,5.704,4.667c0,1.038-0.684,1.105-1.036,1.038
				C13.126,24.664,11.88,24.444,10,24.444"/>
			<path fill="#C5C5C5" d="M5.333,23.927c0,0,1.555-0.52,4.667-0.52c3.111,0,4.667,0.52,4.667,0.52S13.63,21.852,10,21.852
				C6.37,21.852,5.333,23.927,5.333,23.927"/>
			<path id="SVGCleanerId_0" fill="#A7A092" d="M8.184,28.334c0-1.004-0.58-1.816-1.297-1.816c-0.716,0-1.295,0.812-1.295,1.816
				c0,1.002,0.579,1.814,1.295,1.814C7.605,30.149,8.184,29.336,8.184,28.334"/>
			<g transform="translate(12)">
				<path id="SVGCleanerId_0_1_" fill="#A7A092" d="M2.953,28.334c0-1.004-0.578-1.816-1.295-1.816
					c-0.716,0-1.297,0.812-1.297,1.816c0,1.002,0.581,1.814,1.297,1.814C2.375,30.149,2.953,29.336,2.953,28.334"/>
			</g>
		</g>
	</g>
</g>
</svg>
