<?xml version="1.0" encoding="utf-8"?>
<!-- Generator: Adobe Illustrator 16.0.0, SVG Export Plug-In . SVG Version: 6.00 Build 0)  -->
<!DOCTYPE svg PUBLIC "-//W3C//DTD SVG 1.1//EN" "http://www.w3.org/Graphics/SVG/1.1/DTD/svg11.dtd">
<svg version="1.1" id="Capa_1" xmlns="http://www.w3.org/2000/svg" xmlns:xlink="http://www.w3.org/1999/xlink" x="0px" y="0px"
	 width="25px" height="25px" viewBox="7.5 7.5 25 25" enable-background="new 7.5 7.5 25 25" xml:space="preserve">
<g transform="matrix(1.25 0 0 -1.25 0 45)">
	<g>
		<g>
			<path fill="#C5BBA2" d="M25.3,20c0-5.2-4.2-9.3-9.3-9.3c-5.2,0-9.3,4.2-9.3,9.3c0,5.2,4.2,9.3,9.3,9.3
				C21.2,29.3,25.3,25.2,25.3,20"/>
			<path fill="#A7A092" d="M19.9,15.1c0,0.1-0.6,2.3-3.9,2.3c-3.3,0-3.9-2.2-3.9-2.3c0-0.1,0-0.2,0.1-0.3c0.1-0.1,0.2,0,0.3,0
				c0,0,1,1,3.4,1c2.4,0,3.4-1,3.4-1c0,0,0.1-0.1,0.2-0.1c0,0,0.1,0,0.1,0C19.9,14.9,19.9,15,19.9,15.1"/>
			<path id="SVGCleanerId_0" fill="#A7A092" d="M14.2,22.3c0-1-0.6-1.8-1.3-1.8c-0.7,0-1.3,0.8-1.3,1.8c0,1,0.6,1.8,1.3,1.8
				C13.6,24.1,14.2,23.3,14.2,22.3"/>
			<g transform="translate(12)">
				<path id="SVGCleanerId_0_1_" fill="#A7A092" d="M9,22.3c0-1-0.6-1.8-1.3-1.8c-0.7,0-1.3,0.8-1.3,1.8c0,1,0.6,1.8,1.3,1.8
					C8.4,24.1,9,23.3,9,22.3"/>
			</g>
		</g>
	</g>
</g>
</svg>
