<?xml version="1.0" encoding="utf-8"?>
<!-- Generator: Adobe Illustrator 16.0.0, SVG Export Plug-In . SVG Version: 6.00 Build 0)  -->
<!DOCTYPE svg PUBLIC "-//W3C//DTD SVG 1.1//EN" "http://www.w3.org/Graphics/SVG/1.1/DTD/svg11.dtd">
<svg version="1.1" id="Capa_1" xmlns="http://www.w3.org/2000/svg" xmlns:xlink="http://www.w3.org/1999/xlink" x="0px" y="0px"
	 width="40px" height="40px" viewBox="0 0 40 40" enable-background="new 0 0 40 40" xml:space="preserve">
<g transform="matrix(1.25 0 0 -1.25 0 45)">
	<g>
		<g>
			<path fill="#FFCC4D" d="M32,20c0-8.8-7.2-16-16-16C7.2,4,0,11.2,0,20c0,8.8,7.2,16,16,16C24.8,36,32,28.8,32,20"/>
			<path id="SVGCleanerId_0" fill="#664500" d="M12.4,21.3c0-1.7-1-3.1-2.2-3.1S8,19.6,8,21.3c0,1.7,1,3.1,2.2,3.1
				C11.4,24.4,12.4,23.1,12.4,21.3"/>
			<g transform="translate(13)">
				<path id="SVGCleanerId_0_1_" fill="#664500" d="M12,21.3c0-1.7-1-3.1-2.2-3.1c-1.2,0-2.2,1.4-2.2,3.1c0,1.7,1,3.1,2.2,3.1
					C11,24.4,12,23.1,12,21.3"/>
			</g>
			<path fill="#664500" d="M22.2,12.9H9.8c-0.5,0-0.9,0.4-0.9,0.9c0,0.5,0.4,0.9,0.9,0.9h12.4c0.5,0,0.9-0.4,0.9-0.9
				C23.1,13.3,22.7,12.9,22.2,12.9"/>
		</g>
	</g>
</g>
</svg>
