<?xml version="1.0" encoding="utf-8"?>
<!-- Generator: Adobe Illustrator 16.0.0, SVG Export Plug-In . SVG Version: 6.00 Build 0)  -->
<!DOCTYPE svg PUBLIC "-//W3C//DTD SVG 1.1//EN" "http://www.w3.org/Graphics/SVG/1.1/DTD/svg11.dtd">
<svg version="1.1" id="Capa_1" xmlns="http://www.w3.org/2000/svg" xmlns:xlink="http://www.w3.org/1999/xlink" x="0px" y="0px"
	 width="25px" height="25px" viewBox="2.5 2.5 25 25" enable-background="new 2.5 2.5 25 25" xml:space="preserve">
<g transform="matrix(1.25 0 0 -1.25 0 45)">
	<g>
		<g>
			<path fill="#C5BBA2" d="M21.367,23.967c0-5.169-4.166-9.334-9.334-9.334s-9.334,4.166-9.334,9.334s4.166,9.334,9.334,9.334
				S21.367,29.136,21.367,23.967"/>
			<path fill="#A7A092" d="M8.175,21.035c0-0.077,0.618-2.314,3.857-2.314c3.317,0,3.857,2.16,3.857,2.314
				c0,0.078,0,0.232-0.154,0.309c-0.077,0.077-0.231,0.077-0.309-0.077c0,0-1.002-1.003-3.471-1.003s-3.471,0.926-3.471,1.003
				c-0.077,0.077-0.154,0.077-0.154,0.077c-0.077,0-0.077,0-0.155,0C8.175,21.267,8.098,21.19,8.175,21.035"/>
			<path id="SVGCleanerId_0" fill="#A7A092" d="M10.181,26.281c0-1.003-0.617-1.851-1.311-1.851c-0.695,0-1.311,0.848-1.311,1.851
				c0,1.003,0.617,1.852,1.311,1.852C9.641,28.133,10.181,27.284,10.181,26.281"/>
			<g transform="translate(12)">
				<path id="SVGCleanerId_0_1_" fill="#A7A092" d="M4.97,26.281c0-1.003-0.617-1.851-1.312-1.851c-0.694,0-1.312,0.848-1.312,1.851
					c0,1.003,0.618,1.852,1.312,1.852C4.43,28.133,4.97,27.284,4.97,26.281"/>
			</g>
		</g>
	</g>
</g>
</svg>
