<?xml version="1.0" encoding="utf-8"?>
<!-- Generator: Adobe Illustrator 16.0.0, SVG Export Plug-In . SVG Version: 6.00 Build 0)  -->
<!DOCTYPE svg PUBLIC "-//W3C//DTD SVG 1.1//EN" "http://www.w3.org/Graphics/SVG/1.1/DTD/svg11.dtd">
<svg version="1.1" id="Capa_1" xmlns="http://www.w3.org/2000/svg" xmlns:xlink="http://www.w3.org/1999/xlink" x="0px" y="0px"
	 width="25px" height="25px" viewBox="7.5 7.5 25 25" enable-background="new 7.5 7.5 25 25" xml:space="preserve">
<g transform="matrix(1.25 0 0 -1.25 0 45)">
	<g>
		<g>
			<path fill="#C5BBA2" d="M25.3,20c0-5.2-4.2-9.3-9.3-9.3S6.7,14.8,6.7,20s4.2,9.3,9.3,9.3S25.3,25.2,25.3,20"/>
			<g>
				<path fill="#A7A092" d="M19.9,13.8c0,0.1-0.6,2.3-3.9,2.3c-3.3,0-3.9-2.2-3.9-2.3c0-0.1,0-0.2,0.1-0.3c0.1-0.1,0.2,0,0.3,0
					c0,0,1,1,3.4,1c2.4,0,3.4-1,3.4-1c0,0,0.1-0.1,0.2-0.1c0,0,0.1,0,0.1,0C19.9,13.6,19.9,13.7,19.9,13.8"/>
				<path fill="#A7A092" d="M14.8,20.4c-1.7,1.7-4.4,1.7-4.5,1.7c-0.3,0-0.5-0.2-0.5-0.5c0-0.3,0.2-0.5,0.5-0.5c0,0,1,0,2.1-0.4
					c-0.3-0.3-0.5-0.8-0.5-1.4c0-1,0.6-1.8,1.3-1.8c0.7,0,1.3,0.8,1.3,1.8c0,0.1,0,0.2,0,0.3c0,0,0,0,0,0c0.1,0,0.3,0.1,0.4,0.2
					C15,19.8,15,20.2,14.8,20.4"/>
				<path fill="#A7A092" d="M21.7,22.1c-0.1,0-2.8,0-4.5-1.7c-0.2-0.2-0.2-0.5,0-0.7c0.1-0.1,0.2-0.2,0.4-0.2c0,0,0,0,0,0
					c0-0.1,0-0.2,0-0.3c0-1,0.6-1.8,1.3-1.8c0.7,0,1.3,0.8,1.3,1.8c0,0.6-0.2,1.1-0.5,1.4c1.1,0.4,2.1,0.4,2.1,0.4
					c0.3,0,0.5,0.2,0.5,0.5C22.2,21.8,22,22.1,21.7,22.1"/>
			</g>
		</g>
	</g>
</g>
</svg>
