<?xml version="1.0" encoding="utf-8"?>
<!-- Generator: Adobe Illustrator 16.0.0, SVG Export Plug-In . SVG Version: 6.00 Build 0)  -->
<!DOCTYPE svg PUBLIC "-//W3C//DTD SVG 1.1//EN" "http://www.w3.org/Graphics/SVG/1.1/DTD/svg11.dtd">
<svg version="1.1" id="Capa_1" xmlns="http://www.w3.org/2000/svg" xmlns:xlink="http://www.w3.org/1999/xlink" x="0px" y="0px"
	 width="40px" height="40px" viewBox="0 0 40 40" enable-background="new 0 0 40 40" xml:space="preserve">
<g transform="matrix(1.25 0 0 -1.25 0 45)">
	<g>
		<g>
			<path fill="#FFCC4D" d="M32,20c0-8.8-7.2-16-16-16S0,11.2,0,20s7.2,16,16,16S32,28.8,32,20"/>
			<path fill="#664500" d="M9.3,15c0-0.2,1-3.9,6.7-3.9c5.6,0,6.6,3.7,6.7,3.9c0,0.2,0,0.4-0.2,0.5c-0.2,0.1-0.4,0.1-0.5-0.1
				c0,0-1.7-1.6-5.9-1.6s-5.9,1.6-5.9,1.6c-0.1,0.1-0.2,0.1-0.3,0.1c-0.1,0-0.1,0-0.2-0.1C9.4,15.4,9.3,15.2,9.3,15"/>
			<path id="SVGCleanerId_0" fill="#664500" d="M12.9,24c0-1.7-1-3.1-2.2-3.1S8.5,22.3,8.5,24c0,1.7,1,3.1,2.2,3.1
				S12.9,25.7,12.9,24"/>
			<g transform="translate(12)">
				<path id="SVGCleanerId_0_1_" fill="#664500" d="M12.5,24c0-1.7-1-3.1-2.2-3.1C9,20.9,8,22.3,8,24c0,1.7,1,3.1,2.2,3.1
					C11.5,27.1,12.5,25.7,12.5,24"/>
			</g>
		</g>
	</g>
</g>
</svg>
