<?xml version="1.0" encoding="utf-8"?>
<!-- Generator: Adobe Illustrator 16.0.0, SVG Export Plug-In . SVG Version: 6.00 Build 0)  -->
<!DOCTYPE svg PUBLIC "-//W3C//DTD SVG 1.1//EN" "http://www.w3.org/Graphics/SVG/1.1/DTD/svg11.dtd">
<svg version="1.1" id="Capa_1" xmlns="http://www.w3.org/2000/svg" xmlns:xlink="http://www.w3.org/1999/xlink" x="0px" y="0px"
	 width="150px" height="150px" viewBox="0 0 150 150" enable-background="new 0 0 150 150" xml:space="preserve">
<path fill="#3D4E61" d="M143.5,75c0,23.2-11.5,43.7-29.1,56.1c-3.6,2.5-7.4,4.7-11.4,6.5c-1.8,0.8-3.6,1.5-5.5,2.2
	c-7.1,2.5-14.7,3.8-22.6,3.8c-8.2,0-16-1.4-23.2-4c-4-1.4-7.8-3.2-11.4-5.3c-1.9-1.1-3.7-2.3-5.5-3.6C17.7,118.1,6.5,97.9,6.5,75
	C6.5,37.2,37.2,6.5,75,6.5S143.5,37.2,143.5,75z"/>
<path fill="#E8ECFF" d="M62.7,74.9c-2.1,1.7-4.1,3.4-6.1,5.1c-4.9,4.1-7.8,10.4-7.8,17.2v30.1c-4-1.2-7.8-2.9-11.4-5V97.2
	c0-6.7-2.9-13.1-7.8-17.2c-2-1.7-4.1-3.4-6.1-5.1c-5.6-4.6-8.3-12.3-6.9-19.9c1.7-9.2,3.6-18.6,5.7-28.1c1.2-5.6,2.4-11.1,3.7-16.8
	c0.2-0.8,0.8-1.3,1.5-1.4l0,0c1-0.1,1.9,0.8,1.8,1.9l-0.6,9.6l-1.7,27.7c-0.1,2.2,1.7,4,3.8,3.6c1.4-0.3,2.5-1.7,2.6-3.3l2.6-33.5
	l0.4-4.5c0.1-1.1,0.9-2,1.9-2.1l0,0c1.2-0.1,2.2,0.9,2.2,2.2v38.2c0,0.8,0.3,1.6,0.8,2.1c0.5,0.5,1.2,0.9,1.9,0.9h0
	c1.5,0,2.7-1.3,2.7-3V10.5c0-0.2,0-0.4,0.1-0.6c0.3-1,1.1-1.7,2.2-1.6l0,0c0.4,0,0.8,0.2,1.2,0.5c0.4,0.4,0.7,0.9,0.7,1.5l3,38.1
	c0.1,1.8,1.5,3.2,3.2,3.3c1.8,0.1,3.3-1.7,3.2-3.8L57,10.7c-0.1-1.1,0.8-2,1.8-1.9l0,0c0.7,0.1,1.3,0.6,1.5,1.4
	c3.4,15.3,6.6,30.3,9.3,44.9C71,62.5,68.3,70.3,62.7,74.9z"/>
<g>
	<path fill="#A1A7CF" d="M44.8,51.7L44.8,51.7c1.5,0,2.7-1.3,2.7-3V10.5c0-0.9,0.5-1.7,1.2-2c-0.2-0.1-0.5-0.2-0.7-0.2l0,0
		c-1.2-0.1-2.2,0.9-2.2,2.2v38.2c0,1.3-0.8,2.4-1.8,2.8C44.2,51.6,44.5,51.7,44.8,51.7z"/>
	<path fill="#A1A7CF" d="M59.2,47.9c0.1,1.7-0.9,3.2-2.2,3.6c0.3,0.1,0.5,0.1,0.8,0.1c1.8,0.1,3.3-1.7,3.2-3.8l-2.2-37.2
		c0-0.7,0.3-1.3,0.8-1.7c-0.2-0.1-0.5-0.2-0.7-0.3l0,0c-1-0.1-1.9,0.8-1.8,1.9L59.2,47.9z"/>
	<path fill="#A1A7CF" d="M32.4,51.6c1.4-0.3,2.5-1.7,2.6-3.3l3-38c0.1-0.8,0.5-1.5,1.2-1.8c-0.3-0.2-0.7-0.2-1.1-0.2l0,0
		c-1,0.1-1.8,1-1.9,2.1l-3,38c-0.1,1.5-1,2.8-2.4,3.2C31.4,51.7,31.9,51.7,32.4,51.6z"/>
	<path fill="#A1A7CF" d="M48.8,97.2v26.1c-0.6-0.3-10.9-0.7-11.4-1V97.2c0-6.7-2.9-13.1-7.8-17.2c-2-1.7-4.1-3.4-6.1-5.1
		c-5.6-4.6-8.3-12.3-6.9-19.9c1.7-9.2,3.6-18.6,5.7-28.1c1.2-5.6,2.4-11.1,3.6-16.8c0.2-0.8,0.8-1.3,1.5-1.4l0,0
		c0.4,0,0.7,0.1,1,0.3c-0.4,0.2-0.6,0.6-0.7,1.1c-1,4.7-2.1,9.4-3.1,14.1c-2.2,10.4-4.4,20.7-6.2,30.8c-1.4,7.5,1.3,15.2,6.9,19.9
		c2.1,1.7,4.1,3.4,6.1,5.1C36.2,84.1,48.8,90.4,48.8,97.2z"/>
	<path fill="#A1A7CF" d="M133.8,47.9c0-0.3,0-0.7,0-1c-0.1-3.2-0.6-6.6-1.4-10.1c-3.6-14.6-13.5-29.3-25.3-30.2c-0.2,0-0.3,0-0.5,0
		c-0.2,0-0.4,0-0.6,0c-0.2,0-0.4,0-0.6,0c-0.2,0-0.3,0-0.5,0C93,7.5,83.1,22.2,79.5,36.8c-0.8,3.4-1.3,6.8-1.4,10.1c0,0.3,0,0.7,0,1
		c0,12.1,5.9,22.6,14.6,28c4.5,2.8,7.4,7.7,7.4,13v22.6c0,3,2.7,5.4,5.9,5.4s5.9-2.4,5.9-5.4V88.9c0-5.3,2.8-10.2,7.4-13
		C127.9,70.5,133.8,60,133.8,47.9z"/>
</g>
<path fill="#844ABA" d="M114.4,106.4v24.7c-3.6,2.5-7.4,4.7-11.4,6.5c-1.8,0.8-3.6,1.5-5.5,2.2v-33.3c0-4.6,3.8-8.4,8.4-8.4
	c1,0,1.9,0.2,2.7,0.5c1.2,0.4,2.3,1.1,3.2,2C113.4,102,114.4,104.1,114.4,106.4z"/>
<path fill="#844ABA" d="M51.8,105.3v34.2c-4-1.4-7.8-3.2-11.4-5.3c-1.9-1.1-3.7-2.3-5.5-3.6v-25.3c0-2.3,0.9-4.4,2.5-6
	c1.5-1.5,3.6-2.5,5.9-2.5c1,0,1.9,0.2,2.7,0.5C49.4,98.5,51.8,101.6,51.8,105.3z"/>
<path fill="#C680FF" d="M114.4,106.4v24.7c-3.6,2.5-7.4,4.7-11.4,6.5v-31.1c0-3.7,2.4-6.8,5.7-8c1.2,0.4,2.3,1.1,3.2,2
	C113.4,102,114.4,104.1,114.4,106.4z"/>
<path fill="#C680FF" d="M51.8,105.3v34.2c-4-1.4-7.8-3.2-11.4-5.3v-28.8c0-2.3,0.9-4.4,2.5-6c0.9-0.9,2-1.6,3.2-2
	C49.4,98.5,51.8,101.6,51.8,105.3z"/>
<path fill="#E8ECFF" d="M130.7,46c0,15.2-7,19.7-15.7,19.7c-8.6,0-23.7-12.3-23.7-27.5s10.4-27.5,19.1-27.5S130.7,30.8,130.7,46z"/>
</svg>
