<svg xmlns="http://www.w3.org/2000/svg" width="150" height="150" xmlns:v="https://vecta.io/nano"><path fill="#7383bf" d="M103.5 56c4.7-3.1 7.5-8.4 7.5-14.1V15H39v26.9c0 5.7 2.8 11 7.5 14.1l23.7 15.8v6.4L46.5 94c-4.7 3.1-7.5 8.4-7.5 14.1V135h72v-26.9c0-5.7-2.8-11-7.5-14.1L79.8 78.2v-6.4L103.5 56z"/><g fill="#424a60"><path d="M99.5 50c2.7-1.8 4.3-4.8 4.3-8.1h0c0-3.1-2.1-5.9-5.2-6.6l-36.1-9c-8.3-2.1-16.3 4.2-16.3 12.7v2.9c0 3.3 1.6 6.3 4.3 8.1l22.1 16.2v38.1c0 8.7-9 14.5-16.9 10.8h0c-4.3-2-9.4.9-9.5 5.6V135h57.6v-27c0-4.6-4.5-8-9.1-7.2l-4.9.9c-6.5 1.1-12.4-3.9-12.4-10.4v-25L99.5 50z"/><path d="M27 135h96v9.6H27z"/></g><path fill="#556080" d="M132.6 142.2h-7.2v-9.6H24.6v9.6h-7.2c-1.3 0-2.4 1.1-2.4 2.4s1.1 2.4 2.4 2.4h115.2c1.3 0 2.4-1.1 2.4-2.4s-1.1-2.4-2.4-2.4zm-103.2-4.8h91.2v4.8H29.4v-4.8z"/><path fill="#424a60" d="M27 5.4h96V15H27z"/><path fill="#556080" d="M132.6 3H17.4C16.1 3 15 4.1 15 5.4s1.1 2.4 2.4 2.4h7.2v9.6h100.8V7.8h7.2c1.3 0 2.4-1.1 2.4-2.4S133.9 3 132.6 3zm-12 9.6H29.4V7.8h91.2v4.8z"/><path d="M63 60.6c-.5 0-.9-.1-1.3-.4l-11.1-7.4c-2.7-1.8-4.3-4.8-4.3-8.1v-5.3c0-1.3 1.1-2.4 2.4-2.4s2.4 1.1 2.4 2.4v5.3c0 1.7.8 3.2 2.2 4.1l11.1 7.4c1.1.7 1.4 2.2.7 3.3-.6.7-1.3 1.1-2.1 1.1zm38.4 52.8c-1.3 0-2.4-1.1-2.4-2.4v-5.3c0-1.7-.8-3.2-2.2-4.1l-11.1-7.4c-1.1-.7-1.4-2.2-.7-3.3s2.2-1.4 3.3-.7l11.1 7.4c2.7 1.8 4.3 4.8 4.3 8.1v5.3c.1 1.3-1 2.4-2.3 2.4z" fill="#7fabda"/></svg>