<?xml version="1.0" encoding="utf-8"?>
<!-- Generator: Adobe Illustrator 16.0.0, SVG Export Plug-In . SVG Version: 6.00 Build 0)  -->
<!DOCTYPE svg PUBLIC "-//W3C//DTD SVG 1.1//EN" "http://www.w3.org/Graphics/SVG/1.1/DTD/svg11.dtd">
<svg version="1.1" id="Layer_1" xmlns="http://www.w3.org/2000/svg" xmlns:xlink="http://www.w3.org/1999/xlink" x="0px" y="0px"
	 width="150px" height="150px" viewBox="0 0 150 150" enable-background="new 0 0 150 150" xml:space="preserve">
<ellipse fill="#FECE46" cx="75.3" cy="76" rx="71.8" ry="71.2"/>
<g>
	<path opacity="0.8" fill="#F1C342" enable-background="new    " d="M144.7,91.98l-0.5-0.491l0,0l-0.5-0.491l0,0l-0.5-0.491l0,0
		l-0.5-0.491l0,0l-0.5-0.491l0,0l-0.5-0.491l0,0l-0.5-0.491l0,0l-0.5-0.491l0,0l-0.5-0.491l0,0l-0.5-0.491l0,0l-0.5-0.491l0,0
		l-0.5-0.491l0,0l-0.5-0.491l0,0l-0.5-0.491l0,0l-0.5-0.491l0,0l-0.5-0.491l0,0l-0.5-0.491l0,0l-0.5-0.491l0,0l-0.5-0.491l0,0
		l-0.5-0.491l0,0l-0.5-0.491l0,0l-0.5-0.491l0,0l-0.5-0.492l0,0l-0.5-0.491l0,0l-0.5-0.491l0,0l-0.5-0.491l0,0l-0.5-0.491l0,0
		l-0.5-0.491l0,0l-0.5-0.491l0,0l-0.5-0.491l0,0l-0.5-0.491l0,0l-0.5-0.491l0,0l-0.5-0.491l0,0l-0.5-0.491l0,0l-0.5-0.491l0,0
		l-0.5-0.491l0,0l-0.5-0.491l0,0l-0.5-0.491l0,0l-0.5-0.491l0,0l-0.5-0.491l0,0l-0.5-0.491l0,0l-0.5-0.491l0,0l-0.5-0.491l0,0
		l-0.5-0.491l0,0l-0.5-0.491l0,0l-0.5-0.492l0,0l-0.5-0.491l0,0l-0.5-0.491l0,0l-0.5-0.491l0,0l-0.5-0.491l0,0l-0.5-0.491l0,0
		l-0.5-0.491l0,0l-0.5-0.491l0,0l-0.5-0.491l0,0l-0.5-0.491l0,0l-0.5-0.491l0,0l-0.5-0.491l0,0l-0.5-0.491l0,0l-0.5-0.491l0,0
		l-0.5-0.491l0,0l-0.5-0.492l0,0l-0.5-0.491l0,0l-0.5-0.491l0,0l-0.5-0.491l0,0l-0.5-0.491l0,0l-0.5-0.491l0,0l-0.5-0.491l0,0
		l-0.5-0.491l0,0l-0.5-0.491l0,0l-0.5-0.491l0,0l-0.5-0.491l0,0l-0.5-0.491l0,0l-0.5-0.491l0,0l-0.5-0.491l0,0l-0.5-0.491l0,0
		l-0.5-0.492l0,0l-0.5-0.491l0,0l-0.5-0.491l0,0l-0.5-0.491l0,0l-0.5-0.491l0,0l-0.5-0.491l0,0l-0.9-0.491l0,0l-0.5-0.491l0,0
		l-0.5-0.491l0,0l-0.5-0.491l0,0l-0.5-0.491l0,0l-0.5-0.491l0,0l-0.5-0.491l0,0l-0.5-0.491l0,0l-0.5-0.491l0,0l-0.5-0.492l0,0
		l-0.5-0.491l0,0l-0.5-0.491l0,0l-0.5-0.491l0,0l-0.5-0.491l0,0l2.101,2.457l0,0l-0.5-0.492l0,0l-0.5-0.491l0,0l-0.5-0.491l0,0
		L97,45.902l0,0l-0.5-0.491l0,0L96,45.018l0,0l-0.5-0.491l0,0L95,44.036l0,0l-0.5-0.491l0,0L94,43.053l0,0l-0.5-0.491l0,0L93,42.071
		l0,0l-0.5-0.492l0,0L92,41.088l0,0l-0.5-0.491l0,0L91,40.105l0,0l-0.2-0.196l0,0l-0.5-0.492l0,0l-0.5-0.491l0,0l-0.5-0.491l0,0
		l-0.5-0.491l0,0l-0.5-0.491l0,0L88,37.158l0,0l-0.5-0.491l0,0L87,36.273l0,0l-0.4-0.491l0,0l-0.5-0.491l0,0L85.6,34.8H46.9v80.761
		h0.5v0.491h0.5v0.491h0.5v0.491h0.5v0.491h0.5v0.491h0.5v0.491h0.5v0.491h0.5v0.491h0.5v0.491h0.5v0.491h0.5v0.491h0.5v0.491h0.5
		v0.491h0.5v0.491H54v0.491h0.5v0.491H55v0.491h0.5v0.491H56v0.492h0.5v0.491H57v0.491h0.5v0.491H58v0.491h0.5v0.491H59v0.491h0.5
		v0.491H60v0.491h0.5v0.491H61v0.491h0.5v0.491H62v0.491h0.5v0.491H63v0.491l0,0v0.491h0.5v0.491H64v0.491h0.5v0.491H65v0.491h0.5
		v0.491H66v0.491h0.5v0.491H67v0.491h0.5v0.491H68v0.491h0.5v0.491H69v0.491h0.5v0.491H70v0.491h0.5v0.491H71v0.492l0,0v0.491h0.5
		v0.491H72v0.491h0.5v0.491H73v0.491h0.5v0.491H74v0.491h0.5v0.491H75v0.491h0.5v0.491H76v0.491h0.5v0.491H77v0.491h0.5V147H78l0,0
		c32.4-1.179,59.4-23.285,66.9-53.055L144.7,91.98L144.7,91.98z"/>
</g>
<polygon fill="#FFF5DA" points="47,34.9 47,117.1 103.5,117.1 103.5,53.5 85.6,34.9 "/>
<g>
	<polygon fill="#FFFFFF" points="103.5,53.5 85.6,34.9 85.6,53.5 	"/>
</g>
<rect x="47.1" y="34.8" fill="#FFFFFF" width="28.3" height="82.2"/>
<g>
	<g>
		<rect x="64.2" y="62.7" fill="#B7B7B7" width="31" height="0.9"/>
	</g>
	<g>
		<rect x="64.2" y="69" fill="#B7B7B7" width="31" height="0.9"/>
	</g>
	<g>
		<rect x="64.2" y="75.5" fill="#B7B7B7" width="31" height="0.9"/>
	</g>
	<g>
		<rect x="64.2" y="82.1" fill="#B7B7B7" width="31" height="0.9"/>
	</g>
</g>
<g>
	<g>
		<rect x="55.1" y="62.7" fill="#B7B7B7" width="6.1" height="0.9"/>
	</g>
	<g>
		<rect x="55.1" y="69" fill="#B7B7B7" width="6.1" height="0.9"/>
	</g>
	<g>
		<rect x="55.1" y="75.5" fill="#B7B7B7" width="6.1" height="0.9"/>
	</g>
	<g>
		<rect x="55.1" y="82.1" fill="#B7B7B7" width="6.1" height="0.9"/>
	</g>
</g>
<g>
	<rect x="61.1" y="105.4" fill="#B7B7B7" width="21.6" height="0.899"/>
	
		<text transform="matrix(0.9104 0 0 1 86.1855 112.9082)" display="none" fill="#4A4A4A" enable-background="new    " font-family="'Rupee'" font-size="21.2162">`</text>
	<g>
		<path fill="#4A4A4A" d="M95,100.9c-0.1-0.101-0.1-0.101-0.2-0.101h-1.5c-0.1-0.6-0.3-1.2-0.6-1.6h2.1c0.101,0,0.2,0,0.2-0.101
			c0-0.1,0-0.199,0-0.3v-1.1c0-0.101,0-0.2-0.1-0.3C94.8,97.3,94.8,97.3,94.7,97.3h-7.5c-0.101,0-0.2,0-0.2,0.101
			c-0.1,0.1-0.1,0.199-0.1,0.3v1.5c0,0.1,0,0.2,0.1,0.3s0.1,0.1,0.2,0.1h1.3c1.3,0,2.1,0.4,2.4,1.301h-3.7c-0.101,0-0.2,0-0.2,0.1
			c-0.1,0.1-0.1,0.2-0.1,0.3v1.101c0,0.1,0,0.199,0.1,0.3c0.1,0.1,0.1,0.1,0.2,0.1H91.1C91,103.4,90.7,103.9,90.2,104.2
			s-1.101,0.5-1.9,0.5h-1c-0.1,0-0.1,0-0.2,0.1C87,104.9,87,105,87,105.1v1.4c0,0.1,0,0.2,0.1,0.2c1.2,1.5,2.7,3.7,4.5,6.399
			C91.7,113.2,91.7,113.2,91.8,113.2h1.8c0.101,0,0.2-0.101,0.301-0.2c0.1-0.1,0-0.3,0-0.4c-1.801-2.699-3.101-4.699-4.101-6
			c1-0.1,1.9-0.6,2.5-1.199c0.601-0.7,1-1.601,1.2-2.601H95c0.1,0,0.2,0,0.2-0.1c0.1-0.101,0.1-0.2,0.1-0.3V101.3
			C95.1,101,95,101,95,100.9z"/>
	</g>
</g>
</svg>
