<?xml version="1.0" standalone="no"?><!DOCTYPE svg PUBLIC "-//W3C//DTD SVG 1.1//EN" "http://www.w3.org/Graphics/SVG/1.1/DTD/svg11.dtd"><svg class="icon" height="512" viewBox="0 0 1024 1024" version="1.1" xmlns="http://www.w3.org/2000/svg"><path d="M442.692 64.223h139.283v378.771H442.692z" fill="" /><path d="M775.65 202.393l-15.989-12.658-76.117 102.178 14.856 11.959c100.589 80.967 137.462 221.27 89.672 341.188-29.354 73.653-85.63 131.468-158.465 162.794-72.838 31.323-153.507 32.409-227.162 3.058-152.043-60.594-226.444-233.587-165.849-385.63 17.055-42.804 44.395-81.653 79.064-112.346l14.249-12.616-80.655-98.72-15.409 13.412c-50.846 44.254-90.868 100.633-115.744 163.045-41.967 105.305-40.412 220.648 4.373 324.782 44.788 104.136 127.446 184.598 232.748 226.565 50.572 20.155 103.459 30.373 157.189 30.373 57.605-0.003 113.99-11.693 167.595-34.746 104.136-44.788 184.598-127.446 226.56-232.748 68.889-172.863 15.055-374.312-130.916-489.89z" fill="" /></svg>