<svg xmlns="http://www.w3.org/2000/svg" viewBox="0 0 512 512" xmlns:v="https://vecta.io/nano"><path d="M330 45v362c0 24.9-20.1 45-45 45H180L31.2 2.4C35.7.9 40.2 0 45 0h240c24.9 0 45 20.1 45 45z" fill="#063e8b"/><path d="M330 256v151c0 24.9-20.1 45-45 45H180l-64.8-196H330z" fill="#032e68"/><path d="M210 123.6v343.316c0 36.9-41.1 57-69.9 37.5L20.1 428.3C7.5 419.9 0 406.1 0 390.8V45C0 24.9 13.2 8.1 31.2 2.4l151.5 79.5c17.4 8.7 27.3 24 27.3 41.7z" fill="#c85f03"/><path d="M210 256v210.916c0 36.9-41.1 57-69.9 37.5L20.1 428.3C7.5 419.9 0 406.1 0 390.8V256h210z" fill="#994c0f"/><path d="M150 226v60c0 8.4-6.6 15-15 15s-15-6.6-15-15v-60c0-8.4 6.6-15 15-15s15 6.6 15 15z" fill="#fedb41"/><path d="M512 256c0 4.5-1.8 9-6 12l-103.5 73.5c-9.3 9.6-25.5 2.7-25.5-10.5v-45H255c-8.4 0-15-6.6-15-15v-30c0-8.4 6.6-15 15-15h122v-45c0-13.2 16.2-20.1 25.5-10.5L506 244c4.2 3 6 7.5 6 12z" fill="#32d736"/><path d="M150 256v30c0 8.4-6.6 15-15 15s-15-6.6-15-15v-30h30z" fill="#fc3"/><path d="M512 256c0 4.5-1.8 9-6 12l-103.5 73.5c-9.3 9.6-25.5 2.7-25.5-10.5v-45H255c-8.4 0-15-6.6-15-15v-15h272z" fill="#10bb67"/></svg>