<?xml version="1.0" encoding="utf-8"?>
<!-- Generator: Adobe Illustrator 23.0.1, SVG Export Plug-In . SVG Version: 6.00 Build 0)  -->
<svg version="1.1" xmlns="http://www.w3.org/2000/svg" xmlns:xlink="http://www.w3.org/1999/xlink" x="0px" y="0px"
	 viewBox="0 0 25 25" style="enable-background:new 0 0 25 25;" xml:space="preserve">
<style type="text/css">
	.st0{display:none;}
	.st1{display:inline;}
	.st2{fill:#FDCC38;}
	.st3{display:inline;fill:#FDCC38;}
</style>
<g id="Layer_1" class="st0">
	<g class="st1">
		<path class="st2" d="M19.8,19.7c0.3,1.8,0.6,3.5,0.9,5.3c-0.1,0-0.2-0.1-0.3-0.1c-2.3-1.3-4.6-2.6-6.9-3.9c-0.9-0.5-0.9-0.5-1.9,0
			c-2.4,1.4-4.8,2.7-7.2,4.1c0.3-1.6,0.5-3.2,0.8-4.8c0.1-0.8,0.3-1.6,0.4-2.4c0.1-0.4,0.1-0.8,0.2-1.2c0-0.3,0.2-0.7,0-0.9
			c-0.9-0.9-1.7-1.9-2.6-2.8c-1-1-1.9-2.1-2.9-3.1c0,0,0-0.1,0.1-0.1C1.2,9.5,2.1,9.4,3,9.3C3.8,9.2,4.6,9.1,5.5,9
			C6.3,8.9,7.1,8.8,8,8.7c0.3,0,0.5-0.1,0.6-0.4c0.7-1.5,1.4-3,2.1-4.5c0.4-0.8,0.8-1.7,1.2-2.5c0.2-0.4,0.4-0.8,0.6-1.3
			c0.4,0.9,0.8,1.7,1.2,2.5c0.9,2,1.9,4,2.8,5.9c0.1,0.2,0.2,0.3,0.4,0.3c0.4,0.1,0.8,0.1,1.2,0.1c0.8,0.1,1.6,0.2,2.5,0.3
			c1.3,0.2,2.5,0.3,3.8,0.4c0.1,0,0.4,0,0.4,0.2c0,0.1-0.3,0.4-0.4,0.4c-0.3,0.3-0.6,0.6-0.9,0.9c-0.4,0.4-0.8,0.9-1.2,1.3
			c-0.8,0.9-1.7,1.8-2.5,2.7c-0.1,0.2-0.3,0.3-0.4,0.5c-0.3,0.3-0.1,0.8-0.1,1.2C19.5,17.7,19.6,18.7,19.8,19.7z"/>
	</g>
</g>
<g id="Layer_2">
	<g>
		
			<image style="overflow:visible;opacity:0.33;" width="32" height="32" xlink:href="B5B952F9.png"  transform="matrix(1 0 0 1 -3.5 -3.2059)">
		</image>
		<g>
			<polygon class="st2" points="12.5,2.6 15.5,8.6 22.2,9.6 17.4,14.3 18.5,21 12.5,17.9 6.5,21 7.6,14.3 2.8,9.6 9.5,8.6 			"/>
		</g>
	</g>
</g>
<g id="Layer_3" class="st0">
	<polygon class="st3" points="11.5,0.7 15.3,8.5 23.9,9.7 17.7,15.8 19.2,24.3 11.5,20.3 3.8,24.3 5.3,15.8 -0.9,9.7 7.7,8.5 	"/>
</g>
</svg>
