<?xml version="1.0" encoding="utf-8"?>
<!-- Generator: Adobe Illustrator 16.0.0, SVG Export Plug-In . SVG Version: 6.00 Build 0)  -->
<!DOCTYPE svg PUBLIC "-//W3C//DTD SVG 1.1//EN" "http://www.w3.org/Graphics/SVG/1.1/DTD/svg11.dtd">
<svg version="1.1" id="Layer_1" xmlns="http://www.w3.org/2000/svg" xmlns:xlink="http://www.w3.org/1999/xlink" x="0px" y="0px"
	 width="40px" height="40px" viewBox="0 0 40 40" enable-background="new 0 0 40 40" xml:space="preserve">
<path fill="#CBE8F8" d="M36.5,1.3h-33C1.6,1.3,0,2.8,0,4.8v23.4c0,1.9,1.6,3.5,3.5,3.5h3.6v5.9c0,0.5,0.3,0.9,0.7,1.1
	c0.1,0.1,0.3,0.1,0.4,0.1c0.3,0,0.6-0.1,0.8-0.4l6.7-6.7h20.7c1.9,0,3.5-1.6,3.5-3.5V4.8C40,2.8,38.4,1.3,36.5,1.3z"/>
<path fill="#B7E0F6" d="M40,4.8v23.4c0,1.9-1.6,3.5-3.5,3.5H20V1.3h16.5C38.4,1.3,40,2.8,40,4.8z"/>
<path fill="#FBC479" d="M24.7,15.2l-1.4-0.9c-1.3-0.9-2.1-2.3-2.1-3.9V7.1c0-0.6-0.5-1.2-1.2-1.2c-1.9,0-3.5,1.6-3.5,3.5v4.7h-4.8
	c-1.5,0-2.6,1.4-2.3,2.8l1.4,8.2c0.2,1.1,1.2,1.9,2.3,1.9h6.6c1,0,2.1-0.2,3-0.5l1.9-0.7L24.7,15.2z"/>
<path fill="#F9B659" d="M22.7,26.5l1.9-0.7l0-10.6l-1.4-0.9c-1.3-0.9-2.1-2.3-2.1-3.9V7.1c0-0.6-0.5-1.2-1.2-1.2V27
	C20.9,27,21.9,26.8,22.7,26.5z"/>
<path fill="#427DC0" d="M29.4,27h-3.5c-0.6,0-1.2-0.5-1.2-1.2V15.3c0-0.6,0.5-1.2,1.2-1.2h3.5V27z"/>
</svg>
