<svg xmlns="http://www.w3.org/2000/svg" width="70" height="70" viewBox="-5 -5 70 70" xmlns:v="https://vecta.io/nano"><g fill="#dc4e41"><circle cx="30.5" cy="30.5" r="35"/><path d="M12.92 30.522c-.157 7.49 5.005 14.637 12.1 16.975 6.687 2.242 14.905.56 19.352-5.164 3.255-4.007 3.99-9.36 3.64-14.357l-17.17-.024.01 6.11c3.428.1 6.856.052 10.282.125-.864 2.96-2.835 5.726-5.825 6.79-5.777 2.552-13.147-.78-14.965-6.837-2.193-5.802 1.397-12.804 7.328-14.493 3.677-1.292 7.465.166 10.612 2.076 1.59-1.492 3.085-3.088 4.55-4.697-3.574-3-8.165-4.824-12.892-4.422-9.265.11-17.374 8.663-17.02 17.918z"/></g><path fill="#fff" d="M12.92 30.522c-.353-9.256 7.756-17.8 17.02-17.92 4.723-.403 9.317 1.43 12.892 4.424-1.464 1.61-2.958 3.205-4.55 4.697-3.15-1.915-6.935-3.37-10.61-2.076-5.933 1.69-9.523 8.69-7.33 14.493 1.82 6.057 9.188 9.384 14.968 6.837 2.99-1.074 4.96-3.832 5.825-6.798l-10.282-.12-.01-6.107 17.17.024c.35 4.996-.386 10.35-3.64 14.357-4.444 5.724-12.665 7.406-19.352 5.155-7.095-2.328-12.256-9.473-12.1-16.965z"/></svg>