<svg xmlns="http://www.w3.org/2000/svg" height="512" viewBox="0 -52 512 512" width="512" xmlns:v="https://vecta.io/nano"><path d="M0 0h113.293v113.293H0zm0 0" fill="#512da8"/><path d="M149.297.004H512v113.293H149.297zm0 0" fill="#212121"/><path d="M0 147.008h113.293V260.3H0zm0 0" fill="#512da8"/><path d="M149.297 147.008H512V260.3H149.297zm0 0" fill="#212121"/><path d="M0 294.012h113.293V407.31H0zm0 0" fill="#512da8"/><path d="M149.297 294.012H512v113.293H149.297zm0 0" fill="#212121"/><path d="M255.676.004H512v113.293H255.676zm0 147.004H512V260.3H255.676zm0 147.004H512v113.293H255.676zm0 0" fill="#2dbc28"/></svg>