<?xml version="1.0" encoding="utf-8"?>
<!-- Generator: Adobe Illustrator 16.0.0, SVG Export Plug-In . SVG Version: 6.00 Build 0)  -->
<!DOCTYPE svg PUBLIC "-//W3C//DTD SVG 1.1//EN" "http://www.w3.org/Graphics/SVG/1.1/DTD/svg11.dtd">
<svg version="1.1" id="Layer_1" xmlns="http://www.w3.org/2000/svg" xmlns:xlink="http://www.w3.org/1999/xlink" x="0px" y="0px"
	 width="120px" height="120px" viewBox="190 190 120 120" enable-background="new 190 190 120 120" xml:space="preserve">
<g id="Black">
	<title>Dinamic_Logo</title>
	<g id="Logo">
		<polygon fill="#FFBB00" points="256.2,222.1 245.9,244.8 258.1,257.1 268.4,234.5 278.7,211.9 		"/>
		<polygon fill="#55D292" points="243.9,209.9 221.3,220.2 233.7,232.4 256.2,222.1 266.5,199.6 		"/>
		<polygon opacity="0.2" fill="#BF360C" enable-background="new    " points="268.4,234.5 278.7,211.9 266.5,217.4 		"/>
		<path fill="#694C99" d="M256.6,222.5L256.6,222.5L256.6,222.5z"/>
		<polygon fill="#5B32BC" points="278.7,211.9 256.2,222.1 266.5,199.6 		"/>
		<polygon opacity="0.2" fill="#FFFFFF" enable-background="new    " points="222.1,220.4 265.1,200.8 265.1,200.8 266.1,200.2 
			266.5,199.6 243.9,209.9 221.3,220.2 221.3,220.2 		"/>
		<polygon opacity="0.2" fill="#263238" enable-background="new    " points="233.8,231.9 222.1,220.4 221.3,220.2 233.7,232.4 
			233.7,232.4 		"/>
		<polygon opacity="0.2" fill="#263238" enable-background="new    " points="233.8,231.9 233.7,232.4 256.2,222.1 256.5,221.5 
			255.7,221.8 		"/>
		<polygon opacity="0.2" fill="#FFFFFF" enable-background="new    " points="246.5,244.7 246.5,244.6 256.5,222.6 256.5,222.6 
			256.9,221.8 256.2,222.1 245.9,244.8 245.9,244.8 		"/>
		<polygon opacity="0.2" fill="#BF360C" enable-background="new    " points="268.4,234.5 278.7,211.9 278,212.2 277.7,212.8 
			277.7,212.8 258,256.2 258,256.2 258,256.2 258.1,257 258.1,257.1 		"/>
		<polygon opacity="0.2" fill="#BF360C" enable-background="new    " points="246.5,244.7 245.9,244.8 258.1,257 258,256.2 		"/>
		<polyline fill="none" points="266.6,200.4 257.2,221.1 257.2,221.1 257.2,221.1 277.9,211.7 277.9,211.7 		"/>
		<polyline fill="none" points="277.9,211.7 266.6,200.4 266.6,200.4 		"/>
		<polygon opacity="0.2" fill="#263238" enable-background="new    " points="266.6,200.4 277.9,211.7 278.7,211.9 266.5,199.6 		
			"/>
		<polyline opacity="0.2" fill="#FFFFFF" enable-background="new    " points="266.6,200.4 266.5,199.6 266.5,199.6 256.2,222.1 
			256.2,222.1 257.2,221.1 257.2,221.1 		"/>
		<polyline opacity="0.2" fill="#263238" enable-background="new    " points="256.2,222.1 278.7,211.9 278.7,211.9 277.9,211.7 
			277.9,211.7 257.2,221.1 		"/>
	</g>
	<g opacity="0.87" enable-background="new    ">
		<path d="M219.3,292.3c0,1.4-0.4,2.5-1.2,3.3c-0.8,0.8-1.9,1.2-3.4,1.2h-7.2V273h7.2c1.4,0,2.5,0.4,3.4,1.2
			c0.8,0.8,1.2,1.9,1.2,3.3V292.3z M215.7,291.7V278c0-1.3-0.7-2-2.1-2H211v17.7h2.6C215,293.7,215.7,293,215.7,291.7z"/>
		<path d="M225.4,279.2h-3.5v-3.6h3.5V279.2z M225.4,296.7H222v-15.3h3.4V296.7z"/>
		<path d="M240.2,296.7h-3.1l-5.7-15c0.2,0.7,0.2,1.3,0.2,1.7v13.3h-3.5V273h3.1l5.7,14.7c-0.2-0.7-0.2-1.3-0.2-1.7V273h3.5V296.7z"
			/>
		<path d="M255.1,296.7h-3.5l-0.7-4.5h-4.5l-0.7,4.5h-3.5v-0.1l4.6-23.8h3.7L255.1,296.7z M250.4,289.2l-1.7-10.7l-1.7,10.7H250.4z"
			/>
		<path d="M271.5,296.7h-3.4V285c0-0.6,0.1-1.5,0.2-2.6l-3.1,12.1h-1.8l-3.1-12.1c0.1,1.1,0.2,2,0.2,2.6v11.7h-3.4V273h3.4l3.7,13.1
			c0,0.1,0.1,0.5,0.1,1.1c0-0.3,0-0.6,0.1-1.1l3.7-13.1h3.4V296.7z"/>
		<path d="M277.9,296.7h-3.6V273h3.6V296.7z"/>
		<path d="M292.5,294.6c0,1.5-0.7,2.2-2.2,2.2H283c-1.4,0-2.1-0.7-2.1-2.2v-19.4c0-1.5,0.7-2.2,2.1-2.2h7.4c1.4,0,2.2,0.7,2.2,2.2
			v5.6H289V276h-4.6v17.7h4.6v-5h3.5V294.6z"/>
	</g>
</g>
</svg>
