<svg width="35" height="35" id="Call_Waiter" data-name="Call Waiter" xmlns="http://www.w3.org/2000/svg" viewBox="0 0 29.95 40"><defs><style>.cls-1{fill:#fff;}</style></defs><title>Call Waiter</title><path class="cls-1" d="M24.74,7.44A3.72,3.72,0,1,0,21,3.72,3.73,3.73,0,0,0,24.74,7.44ZM18.05,33.3l1.86-8.18,3.9,3.72V40h3.72V26.05l-3.9-3.72,1.11-5.59A13.64,13.64,0,0,0,35,21.4V17.67a9.15,9.15,0,0,1-8-4.46l-1.86-3A3.86,3.86,0,0,0,22,8.37c-.55,0-.93.19-1.48.19l-9.68,4.09V21.4h3.72V15.07l3.35-1.3-3,15.07L5.77,27,5,30.7Z" transform="translate(-5.02)"/></svg>