<svg xmlns="http://www.w3.org/2000/svg" width="40" height="40" viewBox="5 0 40 40" xmlns:v="https://vecta.io/nano"><path fill="#00e890" d="M42.784 13.32c-1.37 0-2.482-1.114-2.482-2.48V9.744H10.078v1.096c0 1.37-1.115 2.48-2.482 2.48H6.5v15.283h1.096c1.368 0 2.482 1.113 2.482 2.48v1.095h30.224v-1.095c0-1.37 1.115-2.48 2.482-2.48h1.096V13.32h-1.096z"/><path fill="#00c47a" d="M42.784 13.32c-1.37 0-2.482-1.114-2.482-2.48V9.744H25.2V32.18H40.3v-1.095c0-1.37 1.115-2.48 2.482-2.48h1.096V13.32h-1.095z"/><path fill="#fff" d="M16.823 17.842c0-2.346 1.513-3.687 3.517-3.687s3.517 1.342 3.517 3.687c0 2.362-1.512 3.686-3.517 3.686s-3.517-1.32-3.517-3.686zm11.29-3.498h3.195L22.27 27.58h-3.194l9.037-13.236zm-6.94 3.498c0-1.267-.417-1.646-.832-1.646s-.832.38-.832 1.646.416 1.645.832 1.645.832-.377.832-1.645zm5.35 6.24c0-2.345 1.513-3.688 3.518-3.688s3.517 1.342 3.517 3.688c0 2.362-1.513 3.687-3.517 3.687s-3.518-1.325-3.518-3.687zm4.35 0c0-1.27-.417-1.645-.832-1.645s-.83.377-.83 1.645.416 1.645.83 1.645.832-.38.832-1.645z"/><path fill="#0773a4" d="M6.5 19.867h3.3v2.2H6.5z"/><path fill="#054d6e" d="M40.57 19.867h3.31v2.2h-3.31z"/><path d="M25.2 23.302l6.118-8.958h-3.196l-2.922 4.28zm4.84-2.907c-2.005 0-3.518 1.342-3.518 3.688 0 2.362 1.513 3.687 3.518 3.687s3.517-1.324 3.517-3.687c0-2.345-1.513-3.688-3.517-3.688zm0 5.333c-.416 0-.83-.38-.83-1.645s.416-1.645.83-1.645.832.377.832 1.645-.416 1.645-.832 1.645z" fill="#fff1ab"/></svg>