<svg xmlns="http://www.w3.org/2000/svg" width="40" height="40" viewBox="380 480 40 40" xmlns:v="https://vecta.io/nano"><path fill="#ff7816" d="M416.405 480H394.14l5.42 8.838-1.974 6.678 5.93 16.126a1.16 1.16 0 0 0 1.174 1.171h11.717a1.16 1.16 0 0 0 1.173-1.171v-30.47a1.16 1.16 0 0 0-1.173-1.172z"/><path d="M411.72 494.063h-7.03c-.648 0-1.174-.524-1.174-1.172s.525-1.172 1.174-1.172h7.03a1.172 1.172 0 1 1 0 2.344zm0 4.687h-7.03c-.648 0-1.174-.524-1.174-1.172s.525-1.172 1.174-1.172h7.03a1.172 1.172 0 1 1 0 2.344zm0 4.687h-7.03a1.17 1.17 0 0 1-1.174-1.17c0-.648.525-1.172 1.174-1.172h7.03a1.171 1.171 0 1 1 0 2.342zm0 4.687h-7.03a1.17 1.17 0 0 1-1.174-1.171c0-.648.525-1.172 1.174-1.172h7.03a1.172 1.172 0 0 1 0 2.343z" fill="#3e322e"/><path fill="#68544f" d="M405.86 487.03l-8.273 8.484-2.273-6.14a1.16 1.16 0 0 1-1.172-1.172V480l11.718 7.03z"/><path fill="#fdbf00" d="M383.594 487.03a1.16 1.16 0 0 0-1.172 1.172v30.626a1.16 1.16 0 0 0 1.172 1.171h21.095a1.16 1.16 0 0 0 1.171-1.171V487.03h-22.266z"/><path fill="#ff9f00" d="M405.86 487.03v31.798a1.16 1.16 0 0 1-1.171 1.171H394.14v-32.97h11.72z"/><g fill="#68544f"><path d="M395.313 492.9v2.344a1.172 1.172 0 1 1-2.344 0V492.9a1.172 1.172 0 1 1 2.344 0zm5.86 14.063a1.16 1.16 0 0 1-1.173 1.171h-11.72a1.172 1.172 0 1 1 0-2.343H400a1.16 1.16 0 0 1 1.173 1.172z"/><path d="M401.173 511.642a1.16 1.16 0 0 1-1.173 1.171h-11.72a1.172 1.172 0 1 1 0-2.344H400a1.16 1.16 0 0 1 1.173 1.173zm-2.345-12.892a4.5 4.5 0 0 1-.117.961h-9.14a4.5 4.5 0 0 1-.117-.961c0-2.578 2.1-4.688 4.687-4.688a4.7 4.7 0 0 1 4.688 4.688z"/></g><g fill="#53433f"><path d="M394.14 496.406v-4.688a1.16 1.16 0 0 1 1.172 1.172v2.344a1.16 1.16 0 0 1-1.172 1.172zm7.033 15.236a1.16 1.16 0 0 1-1.173 1.171h-5.86v-2.344H400a1.16 1.16 0 0 1 1.173 1.173z"/><path d="M401.173 506.953a1.16 1.16 0 0 1-1.173 1.171h-5.86v-2.343H400a1.16 1.16 0 0 1 1.173 1.172zm-2.345-8.203a4.5 4.5 0 0 1-.117.961h-4.57v-5.648c2.577 0 4.687 2.1 4.687 4.687z"/></g><path fill="#68544f" d="M401.173 499.922c0 .656-.518 1.173-1.173 1.173h-11.72a1.16 1.16 0 1 1 0-2.345H400a1.16 1.16 0 0 1 1.173 1.172z"/><path fill="#53433f" d="M400 501.095h-5.86v-2.345H400a1.16 1.16 0 0 1 1.173 1.172c0 .656-.518 1.173-1.173 1.173z"/></svg>