<svg xmlns="http://www.w3.org/2000/svg" width="180" viewBox="0 0 150 150" shape-rendering="geometricPrecision" height="150" xmlns:v="https://vecta.io/nano"><style>#A{animation:eguil5v29aka2_to__to 1000ms linear infinite normal forwards}#B{animation:eguil5v29aka2_ts__ts 1000ms linear infinite normal forwards}#C{animation:eguil5v29aka15_to__to 1000ms linear infinite normal forwards}#D{animation:eguil5v29aka18_c_o 1000ms linear infinite normal forwards}#E{animation:eguil5v29aka19_tr__tr 1000ms linear infinite normal forwards}@keyframes eguil5v29aka2_to__to{0%{transform:translate(48px,20px)}100%{transform:translate(-10px,21px)}} @keyframes eguil5v29aka2_ts__ts{0%{transform:scale(0.500000,0.500000)}100%{transform:scale(1,1)}} @keyframes eguil5v29aka15_to__to{0%{transform:translate(0px,0px)}50%{transform:translate(5px,0px)}100%{transform:translate(0px,0px)}} @keyframes eguil5v29aka18_c_o{0%{opacity:1;animation-timing-function:cubic-bezier(0.250000,1,0.250000,1)}50%{opacity:0.600000;animation-timing-function:cubic-bezier(0.250000,1,0.250000,1)}100%{opacity:1}} @keyframes eguil5v29aka19_tr__tr{0%{transform:translate(0px,0px) rotate(0deg)}50%{transform:translate(0px,0px) rotate(1deg)}100%{transform:translate(0px,0px) rotate(0deg)}}</style><g id="A"><g id="B"><path d="M80.8 46.45l-.65 2.4-.4 1.55c-.55 2.05-3 2.9-4.7 1.75-.1-.1-.25-.2-.35-.3l-.2-.2c-1.55-1.7-.65-4.45 1.55-5l4-.95a.63.63 0 0 1 .75.75z" fill="#865b47"/><path d="M80.15 48.85l-.4 1.55c-.55 2.05-3 2.9-4.7 1.75.15-1.2 1-2.3 2.35-2.6l2.75-.7z" fill="#ad7b64"/></g></g><path d="M15.5 91.1h12.8a2.69 2.69 0 0 0 2.7-2.7v-2.6a2.69 2.69 0 0 0-2.7-2.7H11.2c-4.8.2-8.6 4.3-8.6 9.1v1.9A4.91 4.91 0 0 0 7.5 99h0c2.2 0 4-1.8 4-4h0c0-2.1 1.8-3.9 4-3.9zm119 0h-12.8a2.69 2.69 0 0 1-2.7-2.7v-2.6a2.69 2.69 0 0 1 2.7-2.7h17.1c4.8.2 8.6 4.3 8.6 9.1v1.9a4.91 4.91 0 0 1-4.9 4.9h0c-2.2 0-4-1.8-4-4h0c0-2.1-1.8-3.9-4-3.9z" fill="#5a5555"/><path d="M126.2 72.9v49.6c0 3.8-.7 7.4-2.1 10.6-3.8 9.2-12.4 15.7-22.3 15.7H48.2c-13.5 0-24.4-11.8-24.4-26.3V72.9c0-1.1.9-2 2-2h98.5c1 .1 1.9.9 1.9 2z" fill="#4172cc"/><path d="M126.2 72.9v49.6c0 3.8-.7 7.4-2.1 10.6-3.3 1.8-7.1 2.9-11.1 2.9H59.4C46 136 35 124.3 35 109.8V71h89.2c1.1 0 2 .8 2 1.9z" fill="#6990d7"/><g id="C"><path d="M95.7 148.9h-43c-.7-.8-1.3-1.8-1.7-2.8-1.7-3.3-2.4-7.2-2-10.9.7-6.8 4.2-12.9 7.8-18.8.4-.7 1.4-.7 1.8 0l7.1 11.9c1.8-1.7 3.3-3.7 4.2-6 .3-.8 1.5-.9 1.9-.1 1.9 3.9 2.1 8.6.2 12.5 5.7-4.5 10.2-10.4 13-17.1.5-1.2 1.5-2.8 2.8-2.4 2.2.7 9.7 13.5 3.9 26.3 4-1.9 7.5-4.8 10.1-8.4.5-.7 1.7-.5 1.9.4 1.4 5.8-2.4 12.4-8 15.4z" fill="#fb5858"/><path id="D" d="M94.8 148.9H52.6c-.7-.8-1.3-1.8-1.7-2.8v-.2c.6-5.9 3.6-11.3 6.8-16.4.4-.6 1.2-.6 1.6 0 2.1 3.5 2.5 6.5 4.6 10 1.6-1.5 3.1-5.4 3.9-7.4.3-.7 1.3-.8 1.7-.1 1.7 3.4 3.2 10.1 1.6 13.6 5-3.9 9-9.1 11.4-15 .4-1.1 1.3-2.4 2.4-2.1 1.9.6 5.6 8 .5 19.1 3.5-1.7 8.6-3.5 10.9-6.6.5-.6 1.5-.4 1.7.3.6 2.2-.9 4.9-3.2 7.6z" fill="#ff883e"/></g><g id="E"><path d="M135.8 50.6l-28.3.4c-4.2.1-8.4.7-12.5 1.8l-13.2 3.8-3.8-8.5-4-8.9L85.8 32c3.6-2.2 6.8-4.9 9.7-8l1.4-1.5 17.8-19.3c3-3.3 8.3-2.4 10.1 1.7l15.7 35.2.9 2.1c1.7 3.8-1.2 8.4-5.6 8.4z" fill="#ebe1dc"/><path d="M135.8 50.6l-28.3.4c-4.2.1-8.4.7-12.5 1.8l-13.2 3.8-3.2-7.1-.6-1.4-4-8.9L85.8 32c3.6-2.2 6.8-4.9 9.7-8l1.4-1.5a24.37 24.37 0 0 0 1 .7c10.4 6.9 21.8 11.9 33.9 14.7l8.6 2.1.2.5.7 1.6c1.8 3.9-1.1 8.5-5.5 8.5z" fill="#865b47"/><path d="M140.6 40.4c-1.1 1.9-3.2 3.2-5.6 3.2l-30.6.4c-4.6.1-9.1.7-13.5 2l-12.2 3.5-.6-1.4-4-8.9L85.8 32c3.6-2.2 6.8-4.9 9.7-8l1.4-1.5a24.37 24.37 0 0 0 1 .7c10.4 6.9 21.8 11.9 33.9 14.7l8.6 2.1.2.4z" fill="#ad7b64"/><path d="M84.9 61.9l-1.2.5c-2.7 1.2-5.8 0-7-2.7L75 55.9l-6.4-14.3c-1.2-2.7 0-5.8 2.7-7l.7-.3.5-.2c2.7-1.2 5.8 0 7 2.7l8.1 18.1c1.2 2.6 0 5.8-2.7 7z" fill="#ff883e"/><path d="M75.6 55.6l-.6.3-6.4-14.3c-1.2-2.7 0-5.8 2.7-7l.7-.3 6.4 14.3c1.1 2.6-.1 5.8-2.8 7z" fill="#ff9d60"/></g></svg>