<?xml version="1.0" encoding="utf-8"?>
<!-- Generator: Adobe Illustrator 16.0.0, SVG Export Plug-In . SVG Version: 6.00 Build 0)  -->
<!DOCTYPE svg PUBLIC "-//W3C//DTD SVG 1.1//EN" "http://www.w3.org/Graphics/SVG/1.1/DTD/svg11.dtd">
<svg version="1.1" id="Capa_1" xmlns="http://www.w3.org/2000/svg" xmlns:xlink="http://www.w3.org/1999/xlink" x="0px" y="0px"
	 width="150px" height="150px" viewBox="0 0 150 150" enable-background="new 0 0 150 150" xml:space="preserve">
<path fill="#EBE1DC" d="M135.8,50.6L107.5,51c-4.2,0.1-8.4,0.7-12.5,1.8l-13.2,3.8l-3.8-8.5l-4-8.9L85.8,32c3.6-2.2,6.8-4.9,9.7-8
	l1.4-1.5l17.8-19.3c3-3.3,8.3-2.4,10.1,1.7l8.4,18.8l7.3,16.4l0.9,2.1C143.1,46,140.2,50.6,135.8,50.6z"/>
<path fill="#865B47" d="M135.8,50.6L107.5,51c-4.2,0.1-8.4,0.7-12.5,1.8l-13.2,3.8l-3.2-7.1l-0.6-1.4l-4-8.9L85.8,32
	c3.6-2.2,6.8-4.9,9.7-8l1.4-1.5c0,0,0.4,0.3,1,0.7c10.4,6.9,21.8,11.9,33.9,14.7l8.6,2.1l0.2,0.5l0.7,1.6
	C143.1,46,140.2,50.6,135.8,50.6z"/>
<path fill="#AD7B64" d="M140.6,40.4c-1.1,1.9-3.2,3.2-5.6,3.2L104.4,44c-4.6,0.1-9.1,0.7-13.5,2l-12.2,3.5l-0.6-1.4l-4-8.9L85.8,32
	c3.6-2.2,6.8-4.9,9.7-8l1.4-1.5c0,0,0.4,0.3,1,0.7c10.4,6.9,21.8,11.9,33.9,14.7l8.6,2.1L140.6,40.4z"/>
<path fill="#865B47" d="M65.6,52.9l-1.3,4.8l-0.8,3.1c-1.1,4.1-6,5.8-9.4,3.5c-0.2-0.2-0.5-0.4-0.7-0.6c-0.1-0.1-0.1-0.1-0.2-0.2
	c-0.1-0.1-0.1-0.1-0.2-0.2c-3.1-3.4-1.3-8.9,3.1-10l8-1.9C65,51.2,65.8,52,65.6,52.9z"/>
<path fill="#AD7B64" d="M64.3,57.7l-0.8,3.1c-1.1,4.1-6,5.8-9.4,3.5c0.3-2.4,2-4.6,4.7-5.2L64.3,57.7z"/>
<g>
	<path fill="#5A5555" d="M15.5,91.1h12.8c1.5,0,2.7-1.2,2.7-2.7v-2.6c0-1.5-1.2-2.7-2.7-2.7H11.6c-0.1,0-0.3,0-0.4,0
		c-4.8,0.2-8.6,4.3-8.6,9.1v1.9c0,2.7,2.2,4.9,4.9,4.9l0,0c2.2,0,4-1.8,4-4l0,0C11.5,92.9,13.3,91.1,15.5,91.1z"/>
	<path fill="#5A5555" d="M134.5,91.1h-12.8c-1.5,0-2.7-1.2-2.7-2.7v-2.6c0-1.5,1.2-2.7,2.7-2.7h16.7c0.1,0,0.3,0,0.4,0
		c4.8,0.2,8.6,4.3,8.6,9.1v1.9c0,2.7-2.2,4.9-4.9,4.9l0,0c-2.2,0-4-1.8-4-4l0,0C138.5,92.9,136.7,91.1,134.5,91.1z"/>
</g>
<path fill="#4172CC" d="M126.2,72.9v49.6c0,3.8-0.7,7.4-2.1,10.6c-3.8,9.2-12.4,15.7-22.3,15.7H48.2c-13.5,0-24.4-11.8-24.4-26.3
	V72.9c0-1.1,0.9-2,2-2h98.5C125.3,71,126.2,71.9,126.2,72.9z"/>
<path fill="#6990D7" d="M126.2,72.9v49.6c0,3.8-0.7,7.4-2.1,10.6c-3.3,1.8-7.1,2.9-11.1,2.9H59.4C46,136,35,124.3,35,109.8V71h89.2
	C125.3,71,126.2,71.9,126.2,72.9z"/>
<path fill="#FB5858" d="M95.7,148.9h-43c-0.7-0.8-1.3-1.8-1.7-2.8c-1.7-3.3-2.4-7.2-2-10.9c0.7-6.8,4.2-12.9,7.8-18.8
	c0.4-0.7,1.4-0.7,1.8,0c2.4,4,4.7,8,7.1,11.9c1.8-1.7,3.3-3.7,4.2-6c0.3-0.8,1.5-0.9,1.9-0.1c1.9,3.9,2.1,8.6,0.2,12.5
	c5.7-4.5,10.2-10.4,13-17.1c0.5-1.2,1.5-2.8,2.8-2.4c2.2,0.7,9.7,13.5,3.9,26.3c4-1.9,7.5-4.8,10.1-8.4c0.5-0.7,1.7-0.5,1.9,0.4
	C105.1,139.3,101.3,145.9,95.7,148.9z"/>
<g>
	<path fill="#FF883E" d="M94.8,148.9H52.6c-0.7-0.8-1.3-1.8-1.7-2.8c0-0.1,0-0.1,0-0.2c0.6-5.9,3.6-11.3,6.8-16.4
		c0.4-0.6,1.2-0.6,1.6,0c2.1,3.5,2.5,6.5,4.6,10c1.6-1.5,3.1-5.4,3.9-7.4c0.3-0.7,1.3-0.8,1.7-0.1c1.7,3.4,3.2,10.1,1.6,13.6
		c5-3.9,9-9.1,11.4-15c0.5-1.1,1.3-2.4,2.4-2.1c1.9,0.6,5.6,8,0.5,19.1c3.5-1.7,8.6-3.5,10.9-6.6c0.5-0.6,1.5-0.4,1.7,0.3
		C98.6,143.5,97.1,146.2,94.8,148.9z"/>
	<path fill="#FF883E" d="M84.9,61.9l-1.2,0.5c-2.7,1.2-5.8,0-7-2.7L75,55.9l-6.4-14.3c-1.2-2.7,0-5.8,2.7-7l0.7-0.3l0.5-0.2
		c2.7-1.2,5.8,0,7,2.7l8.1,18.1C88.8,57.5,87.6,60.7,84.9,61.9z"/>
</g>
<path fill="#FF9D60" d="M75.6,55.6L75,55.9l-6.4-14.3c-1.2-2.7,0-5.8,2.7-7l0.7-0.3l6.4,14.3C79.5,51.2,78.3,54.4,75.6,55.6z"/>
</svg>
