<svg xmlns="http://www.w3.org/2000/svg" width="25" height="25" xmlns:v="https://vecta.io/nano"><path fill="#ffcc4d" d="M24.125 12.5A11.63 11.63 0 0 1 12.5 24.125 11.63 11.63 0 0 1 .875 12.5 11.63 11.63 0 0 1 12.5.875 11.63 11.63 0 0 1 24.125 12.5"/><path d="M17.334 18.558c-.03-.115-.754-2.828-4.834-2.828s-4.806 2.712-4.834 2.828a.32.32 0 0 0 .154.358c.126.072.284.05.386-.05.01-.013 1.26-1.2 4.294-1.2s4.282 1.185 4.294 1.2c.06.06.145.093.226.093a.31.31 0 0 0 .159-.041.32.32 0 0 0 .155-.359M10.24 9.594c0 1.25-.723 2.26-1.614 2.26s-1.614-1-1.614-2.26.723-2.26 1.614-2.26 1.614 1.013 1.614 2.26m8.43 0c0 1.25-.723 2.26-1.615 2.26s-1.614-1-1.614-2.26.724-2.26 1.614-2.26 1.615 1.013 1.615 2.26" fill="#664500"/></svg>