<?xml version="1.0" encoding="utf-8"?>
<!-- Generator: Adobe Illustrator 23.0.1, SVG Export Plug-In . SVG Version: 6.00 Build 0)  -->
<svg version="1.1" id="Layer_1" xmlns="http://www.w3.org/2000/svg" xmlns:xlink="http://www.w3.org/1999/xlink" x="0px" y="0px"
	 viewBox="0 0 40 40" style="enable-background:new 0 0 40 40;" xml:space="preserve">
<style type="text/css">
	.st0{fill:#FF3939;}
</style>
<path class="st0" d="M16.9,0h6.2v16.9h-6.2V0z"/>
<path class="st0" d="M32.4,4.5l-0.7-0.6l-3.6,4.8l0.7,0.6c4.7,3.8,6.4,10.4,4.2,16c-1.4,3.5-4,6.2-7.4,7.6
	c-3.4,1.5-7.2,1.5-10.7,0.1c-7.1-2.8-10.6-11-7.8-18.1c0.8-2,2.1-3.8,3.7-5.3l0.7-0.6L7.7,4.4L7,5.1c-2.4,2.1-4.3,4.7-5.4,7.6
	c-2,4.9-1.9,10.3,0.2,15.2c2.1,4.9,6,8.7,10.9,10.6c2.4,0.9,4.9,1.4,7.4,1.4c2.7,0,5.3-0.5,7.9-1.6c4.9-2.1,8.7-6,10.6-10.9
	C41.8,19.3,39.3,9.9,32.4,4.5L32.4,4.5z"/>
</svg>
