<svg xmlns="http://www.w3.org/2000/svg" opacity=".3" width="200" height="200" fill="#fff" xmlns:v="https://vecta.io/nano"><path d="M127.6 19.7l-.2 36.2c-.1 10 8 18.1 18 18.2l36.2.2c10 .1 18.1-8 18.2-18h0L200 20c.1-10-8-18.1-18-18.2h0l-36.2-.2c-10 0-18.2 8.1-18.2 18.1zm54.3.3l-.2 36.2-36.2-.2.2-36.2 36.2.2zM73.1 55.6l.2-36.2c.1-10-8-18.1-18-18.2h0L19.1 1C9.1.9.9 9 .9 19L.7 55.2c-.1 10 8 18.1 18 18.2l36.2.2c10 .1 18.1-8 18.2-18h0zm-54.3-.3l.2-36.2 36.2.2-.2 36.2-36.2-.2zm53.6 127l.2-36.2c.1-10-8-18.1-18-18.2h0l-36.2-.2c-10-.1-18.1 8-18.2 18L0 181.9c-.1 10 8 18.1 18 18.2l36.2.2c10 .1 18.2-8 18.2-18h0zm-54.3-.3l.2-36.2 36.2.2-.2 36.2-36.2-.2z"/><circle cx="185.5" cy="187.4" r="13.6"/><path d="M153.9 187.3c0 7.5-6.1 13.5-13.6 13.5s-13.5-6.2-13.5-13.7 6.2-13.5 13.7-13.5c7.4.1 13.4 6.2 13.4 13.7z"/><circle cx="185.8" cy="142.2" r="13.6"/><path d="M127.2 101.1c0 5 4 9.1 9 9.1h9.1c5 0 9 4.1 9 9.1h0c0 5 4 9.1 9 9.1s9.1-4 9.1-9 4.1-9 9.1-9h9.1c5 0 9.1-4 9.1-9s-4-9.1-9-9.1h0l-54.3-.3c-5.1.1-9.2 4.1-9.2 9.1h0zm-18.1-.1c0-5 4.1-9 9.1-9s9.1-4 9.1-9-4-9.1-9-9.1-9-4.1-9-9.1l.3-54.3c0-5-4-9.1-9-9.1s-9.1 4-9.1 9l-.3 54.3c0 5-4.1 9-9.1 9h0c-5 0-9.1 4-9.1 9s-4.1 9-9.1 9h0l-18.1-.1c-5 0-9.1 4-9.1 9s4 9.1 9 9.1l54.3.3c4.9.1 9-4 9.1-9h0zm-.5 90.6l.1-27.2c0-5 4.1-9 9.1-9l22.6.1c7.5 0 13.6-6 13.6-13.5s-6-13.6-13.5-13.6H136c-5 0-9-4.1-9-9.1s-4-9.1-9-9.1-9.1 4-9.1 9h0c0 5-4.1 9-9.1 9h0c-5 0-9.1 4-9.1 9l-.3 54.3c0 5 4 9.1 9 9.1 5.1 0 9.2-4 9.2-9h0z"/><circle cx="9.5" cy="100.5" r="9.1"/></svg>