<?xml version="1.0" encoding="utf-8"?>
<!-- Generator: Adobe Illustrator 16.0.0, SVG Export Plug-In . SVG Version: 6.00 Build 0)  -->
<!DOCTYPE svg PUBLIC "-//W3C//DTD SVG 1.1//EN" "http://www.w3.org/Graphics/SVG/1.1/DTD/svg11.dtd">
<svg version="1.1" id="Capa_1" opacity="0.3" xmlns="http://www.w3.org/2000/svg" xmlns:xlink="http://www.w3.org/1999/xlink"
	 x="0px" y="0px" width="200px" height="200px" viewBox="0 0 200 200" enable-background="new 0 0 200 200" xml:space="preserve">
<g>
	<path fill="#FFFFFF" d="M122.793,35.044l-0.152,29.174c-0.043,8.055,6.453,14.621,14.51,14.663l29.172,0.153
		c8.057,0.042,14.619-6.454,14.664-14.51l0,0l0.152-29.174c0.041-8.056-6.455-14.621-14.51-14.663h-0.002l-29.174-0.153
		C129.398,20.492,122.835,26.988,122.793,35.044z M166.549,35.273l-0.15,29.175l-29.174-0.152l0.154-29.175L166.549,35.273z"/>
	<path fill="#FFFFFF" d="M78.879,63.988l0.153-29.172c0.042-8.057-6.451-14.621-14.508-14.663l0,0L35.352,20
		c-8.059-0.042-14.623,6.455-14.665,14.51l-0.153,29.174c-0.042,8.054,6.455,14.62,14.513,14.663L64.219,78.5
		C72.273,78.542,78.837,72.044,78.879,63.988C78.879,63.989,78.879,63.988,78.879,63.988z M35.123,63.759l0.153-29.172l29.172,0.153
		l-0.153,29.174l-29.172-0.153V63.759z"/>
	<path fill="#FFFFFF" d="M78.345,166.094l0.153-29.176c0.042-8.053-6.451-14.618-14.508-14.66l0,0l-29.172-0.152
		c-8.058-0.041-14.623,6.455-14.665,14.508L20,165.791c-0.042,8.053,6.454,14.619,14.513,14.664l29.172,0.152
		C71.739,180.648,78.303,174.15,78.345,166.094L78.345,166.094z M34.589,165.865l0.152-29.176l29.172,0.152l-0.152,29.178
		L34.589,165.865z"/>
	<circle fill="#FFFFFF" cx="169.492" cy="170.216" r="10.94"/>
	<path fill="#FFFFFF" d="M143.965,170.082c-0.031,6.041-4.955,10.916-10.996,10.885s-10.914-4.959-10.884-11
		c0.032-6.039,4.956-10.91,10.999-10.881C139.125,159.119,143.996,164.041,143.965,170.082z"/>
	<circle fill="#FFFFFF" cx="169.682" cy="133.754" r="10.939"/>
	<path fill="#FFFFFF" d="M122.449,100.684c-0.021,4.029,3.229,7.313,7.256,7.333l7.293,0.037c4.027,0.022,7.275,3.304,7.256,7.329
		l0,0c-0.021,4.031,3.227,7.313,7.254,7.332c4.027,0.021,7.311-3.225,7.332-7.254c0.021-4.028,3.305-7.273,7.33-7.253l7.293,0.036
		c4.029,0.021,7.313-3.228,7.334-7.254c0.023-4.028-3.223-7.311-7.25-7.333c-0.002,0-0.004,0-0.006,0l-43.76-0.229
		C125.753,93.408,122.47,96.656,122.449,100.684L122.449,100.684z"/>
	<path fill="#FFFFFF" d="M107.863,100.607c0.021-4.028,3.303-7.276,7.33-7.254c4.028,0.018,7.31-3.232,7.33-7.259
		c0.016-4.025-3.229-7.304-7.254-7.327c-4.027-0.021-7.275-3.303-7.255-7.332l0.229-43.759c0.021-4.029-3.227-7.312-7.256-7.333
		c-4.025-0.021-7.309,3.227-7.331,7.256l-0.229,43.76c-0.021,4.029-3.306,7.276-7.333,7.256l0,0
		c-4.025-0.022-7.31,3.226-7.332,7.253c-0.021,4.029-3.3,7.277-7.328,7.255h-0.004l-14.585-0.076
		c-4.026-0.021-7.307,3.227-7.329,7.254c-0.021,4.029,3.227,7.313,7.252,7.334l43.759,0.229c4.027,0.021,7.312-3.228,7.332-7.256
		C107.863,100.607,107.863,100.607,107.863,100.607L107.863,100.607z"/>
	<path fill="#FFFFFF" d="M107.482,173.543l0.113-21.883c0.021-4.027,3.303-7.277,7.33-7.256l18.232,0.096
		c6.043,0.031,10.965-4.84,10.996-10.881c0.033-6.041-4.838-10.967-10.881-10.998l-3.646-0.02c-4.027-0.021-7.275-3.301-7.256-7.328
		c0.023-4.031-3.223-7.314-7.25-7.341c-4.027-0.021-7.311,3.226-7.336,7.253c0,0.004,0,0.004,0.002,0.012
		c-0.022,4.025-3.305,7.272-7.334,7.252l0,0c-4.024-0.021-7.307,3.226-7.329,7.256l-0.229,43.76
		c-0.021,4.029,3.22,7.313,7.251,7.334c4.026,0.021,7.313-3.223,7.334-7.252C107.482,173.543,107.482,173.543,107.482,173.543
		L107.482,173.543z"/>
	<circle fill="#FFFFFF" cx="27.638" cy="100.19" r="7.295"/>
</g>
</svg>
