<?xml version="1.0" encoding="utf-8"?>
<!-- Generator: Adobe Illustrator 16.0.0, SVG Export Plug-In . SVG Version: 6.00 Build 0)  -->
<!DOCTYPE svg PUBLIC "-//W3C//DTD SVG 1.1//EN" "http://www.w3.org/Graphics/SVG/1.1/DTD/svg11.dtd">
<svg version="1.1" id="Capa_1" opacity="0.3" xmlns="http://www.w3.org/2000/svg" xmlns:xlink="http://www.w3.org/1999/xlink"
	 x="0px" y="0px" width="180px" height="180px" viewBox="10 10 180 180" enable-background="new 10 10 180 180"
	 xml:space="preserve">
<g>
	<path fill="#FFFFFF" d="M124.8,27.8l-0.2,32.6c0,9,7.2,16.3,16.2,16.4l32.6,0.2c9,0,16.3-7.2,16.4-16.2l0,0l0.2-32.6
		c0-9-7.2-16.3-16.2-16.4h0l-32.6-0.2C132.2,11.5,124.9,18.8,124.8,27.8z M173.7,28.1l-0.2,32.6l-32.6-0.2l0.2-32.6L173.7,28.1z"/>
	<path fill="#FFFFFF" d="M75.8,60.1l0.2-32.6c0-9-7.2-16.3-16.2-16.4l0,0L27.1,11c-9,0-16.3,7.2-16.4,16.2l-0.2,32.6
		c0,9,7.2,16.3,16.2,16.4l32.6,0.2C68.4,76.4,75.7,69.1,75.8,60.1C75.8,60.1,75.8,60.1,75.8,60.1z M26.9,59.9l0.2-32.6l32.6,0.2
		L59.5,60L26.9,59.9L26.9,59.9z"/>
	<path fill="#FFFFFF" d="M75.2,174.2l0.2-32.6c0-9-7.2-16.3-16.2-16.4l0,0L26.6,125c-9,0-16.3,7.2-16.4,16.2L10,173.8
		c0,9,7.2,16.3,16.2,16.4l32.6,0.2C67.8,190.4,75.1,183.2,75.2,174.2L75.2,174.2z M26.3,173.9l0.2-32.6l32.6,0.2l-0.2,32.6
		L26.3,173.9z"/>
	<circle fill="#FFFFFF" cx="177" cy="178.8" r="12.2"/>
	<path fill="#FFFFFF" d="M148.5,178.6c0,6.7-5.5,12.2-12.3,12.2s-12.2-5.5-12.2-12.3c0-6.7,5.5-12.2,12.3-12.2
		C143.1,166.4,148.5,171.9,148.5,178.6z"/>
	<circle fill="#FFFFFF" cx="177.2" cy="138.1" r="12.2"/>
	<path fill="#FFFFFF" d="M124.4,101.1c0,4.5,3.6,8.2,8.1,8.2l8.1,0c4.5,0,8.1,3.7,8.1,8.2l0,0c0,4.5,3.6,8.2,8.1,8.2
		c4.5,0,8.2-3.6,8.2-8.1c0-4.5,3.7-8.1,8.2-8.1l8.1,0c4.5,0,8.2-3.6,8.2-8.1c0-4.5-3.6-8.2-8.1-8.2c0,0,0,0,0,0L132.6,93
		C128.1,93,124.5,96.6,124.4,101.1L124.4,101.1z"/>
	<path fill="#FFFFFF" d="M108.1,101c0-4.5,3.7-8.1,8.2-8.1c4.5,0,8.2-3.6,8.2-8.1c0-4.5-3.6-8.2-8.1-8.2c-4.5,0-8.1-3.7-8.1-8.2
		l0.3-48.9c0-4.5-3.6-8.2-8.1-8.2c-4.5,0-8.2,3.6-8.2,8.1L92,68.4c0,4.5-3.7,8.1-8.2,8.1l0,0c-4.5,0-8.2,3.6-8.2,8.1
		c0,4.5-3.7,8.1-8.2,8.1h0l-16.3-0.1c-4.5,0-8.2,3.6-8.2,8.1c0,4.5,3.6,8.2,8.1,8.2l48.9,0.3C104.5,109.2,108.1,105.5,108.1,101
		C108.1,101,108.1,101,108.1,101L108.1,101z"/>
	<path fill="#FFFFFF" d="M107.7,182.5l0.1-24.4c0-4.5,3.7-8.1,8.2-8.1l20.4,0.1c6.8,0,12.2-5.4,12.3-12.2c0-6.7-5.4-12.2-12.2-12.3
		l-4.1,0c-4.5,0-8.1-3.7-8.1-8.2c0-4.5-3.6-8.2-8.1-8.2c-4.5,0-8.2,3.6-8.2,8.1c0,0,0,0,0,0c0,4.5-3.7,8.1-8.2,8.1l0,0
		c-4.5,0-8.2,3.6-8.2,8.1l-0.3,48.9c0,4.5,3.6,8.2,8.1,8.2C104,190.6,107.7,187,107.7,182.5C107.7,182.5,107.7,182.5,107.7,182.5
		L107.7,182.5z"/>
	<circle fill="#FFFFFF" cx="18.5" cy="100.6" r="8.1"/>
</g>
</svg>
