<?xml version="1.0" encoding="utf-8"?>
<!-- Generator: Adobe Illustrator 16.0.0, SVG Export Plug-In . SVG Version: 6.00 Build 0)  -->
<!DOCTYPE svg PUBLIC "-//W3C//DTD SVG 1.1//EN" "http://www.w3.org/Graphics/SVG/1.1/DTD/svg11.dtd">
<svg version="1.1" id="Capa_1" xmlns="http://www.w3.org/2000/svg" xmlns:xlink="http://www.w3.org/1999/xlink" x="0px" y="0px"
	 width="512px" height="512px" viewBox="0 0 512 512" enable-background="new 0 0 512 512" xml:space="preserve">
<g>
	<circle fill="#55D292" cx="256" cy="256" r="256"/>
	<path fill="#FFDCBF" d="M419.4,371.1c-4.3,11.8-10.2,23-17.4,33.3c-38.2,54.5-105.4,74.2-164.6,56.9c-23.6-6.9-45.9-19.6-64.6-38.3
		l-56.6-56.5l-6.3-6l-37.7-36.2c-6.6,0-12.8-1.9-18-5.1c-9.8-6-16.3-16.9-16.3-29.2c0-12.3,6.5-23.2,16.3-29.2
		c5.2-3.2,11.4-5.1,18-5.1c-6.6,0-12.8-1.9-18-5.1c-9.8-6-16.3-16.9-16.3-29.2c0-12.3,6.5-23.2,16.3-29.2c5.2-3.3,11.4-5.1,18-5.1
		v-40.4c-6.6,0-12.8-1.9-18-5.1c-9.8-6-16.3-16.9-16.3-29.2c0-12.3,6.5-23.2,16.3-29.2c5.2-3.2,11.4-5.1,18-5.1l219.3,106.3l8.5,4.1
		l9.6,4.6c0.7-8.6,2.1-17.2,4.3-25.7c2.8-11.3,10.4-20.1,20-24.8c7.7-3.8,16.8-5,25.7-2.8c20.3,5,32.6,25.5,27.6,45.8
		c-5.6,22.6-2.1,46.1,10,66.1C397.1,251.5,439.9,314.1,419.4,371.1z"/>
	<g>
		<path fill="#FCBB8D" d="M237.3,461.2c-23.6-6.9-45.9-19.6-64.6-38.3l-56.6-56.5l-6.3-6l98,20.2
			C148.3,380.6,196.2,435.7,237.3,461.2z"/>
		<path fill="#FCBB8D" d="M337.7,299.1c-1.6,1-3.4,1.4-5.1,1.4c-3.4,0-6.7-1.7-8.5-4.8c-18.9-31.4-27.3-67.1-24.3-103.3
			c0-0.7,0.1-2.1,0.2-4.1l9.6,4.6c0.7-8.6,2.2-17.2,4.3-25.7c2.8-11.3,10.4-20.1,20-24.8c-13.7,26.3-14.1,50.3-14.1,50.6l0,0.8
			c-0.1,1.3-0.2,2.6-0.3,3.9c-1.6,25.6,3.4,50.8,14.3,73.9c2.2,4.7,4.7,9.3,7.4,13.8C343.9,290.1,342.4,296.2,337.7,299.1z"/>
		<path fill="#FCBB8D" d="M291.5,184.1v165.7c0,16.9-16.1,30.7-35.9,30.7H130.4l-14.2-14.2l-44-42.3c-6.6,0-12.8-1.9-18-5.1l0.4-0.5
			c12.8-17.2,12.7-40.8-0.4-57.9l0,0c5.2-3.2,11.4-5.1,18-5.1c-6.6,0-12.8-1.9-18-5.1l2.3-2.9c11.6-14.5,12.2-35,1.5-50.1l-3.8-5.4
			c5.2-3.2,11.4-5.1,18-5.1v-40.4c-6.6,0-12.8-1.9-18-5.1l6-10.1c7.4-12.5,7.1-28.1-0.8-40.3l-5.2-8.1c5.2-3.2,11.4-5.1,18-5.1
			L291.5,184.1z"/>
	</g>
	<path fill="#374266" d="M72.2,150.3v-86c0-16.9,16.1-30.7,35.9-30.7h165.6c19.8,0,35.9,13.7,35.9,30.7v285.6
		c0,16.9-16.1,30.7-35.9,30.7H108.1c-19.8,0-35.9-13.7-35.9-30.7v-19C72.2,330.9,72.2,150.3,72.2,150.3z"/>
	<rect x="90.2" y="86.5" fill="#F2F2F7" width="201.3" height="241.2"/>
	<path fill="#65A3E6" d="M488.9,362.4c-22.3,48.8-59.6,89.4-105.9,115.9c-24.4,14-51.3,24-79.8,29.3L269.5,474L435,308.5
		L488.9,362.4z"/>
	<g>
		<path fill="#495B94" d="M221.5,71.7h-61.3c-4.4,0-8-3.6-8-8l0,0c0-4.4,3.6-8,8-8h61.3c4.4,0,8,3.6,8,8l0,0
			C229.5,68.1,225.9,71.7,221.5,71.7z"/>
		<circle fill="#495B94" cx="190.9" cy="354.1" r="15.1"/>
	</g>
	<path fill="#1B79CF" d="M383,478.3c-24.4,14-51.3,24-79.8,29.3L269.5,474l54.6-54.6L383,478.3z"/>
	<g>
		<rect x="130.4" y="146.6" fill="#495B94" width="13.5" height="13.5"/>
		<rect x="130.4" y="254" fill="#495B94" width="13.5" height="13.5"/>
		<path fill="#495B94" d="M212.7,121.6v63.7h63.7v-63.7H212.7z M260.8,169.6h-32.4v-32.4h32.4V169.6z"/>
		<rect x="237.8" y="146.6" fill="#495B94" width="13.5" height="13.5"/>
		<polygon fill="#495B94" points="197.6,227.4 197.6,213.9 184.1,213.9 184.1,227.4 184.1,240.9 197.6,240.9 197.6,241.3 
			197.6,254.8 211.2,254.8 211.2,241.3 211.2,227.8 197.6,227.8 		"/>
		<polygon fill="#495B94" points="249.3,196.6 249.3,210.2 262.8,210.2 276.4,210.2 276.4,196.6 262.8,196.6 		"/>
		<rect x="184.5" y="255.1" fill="#495B94" width="13.5" height="13.5"/>
		<rect x="170.6" y="200.3" fill="#495B94" width="13.5" height="13.5"/>
		<rect x="262.6" y="225.9" fill="#495B94" width="13.5" height="13.5"/>
		<rect x="262.6" y="239.4" fill="#495B94" width="13.5" height="13.5"/>
		<rect x="208.4" y="265.5" fill="#495B94" width="13.5" height="13.5"/>
		<rect x="208.4" y="279.1" fill="#495B94" width="13.5" height="13.5"/>
		<path fill="#495B94" d="M262.6,252H249h-13.5v13.5v13.5v13.5H249h13.5h13.5v-13.5v-13.5V252H262.6L262.6,252z M262.6,279.1H249
			v-13.5h13.5V279.1z"/>
		<polygon fill="#495B94" points="230.4,198 216.9,198 203.3,198 203.3,211.5 216.9,211.5 216.9,225 230.4,225 230.4,238.6 
			244,238.6 244,225 244,211.5 230.4,211.5 		"/>
		<path fill="#495B94" d="M136.6,200.3v13.5h13.5v-13.5v-15.1H169v-63.7h-63.7v63.7h31.2L136.6,200.3L136.6,200.3z M121,137.2h32.4
			v32.4H121V137.2z"/>
		<path fill="#495B94" d="M118.9,200.3h-13.5V229v5.8v57.9H169V229h-50.1V200.3z M121,244.6h32.4V277H121V244.6z"/>
		<polygon fill="#495B94" points="197.6,173.7 197.6,160.2 197.6,146.6 184.1,146.6 184.1,160.2 184.1,173.7 184.1,187.3 
			197.6,187.3 		"/>
	</g>
</g>
</svg>
