<svg xmlns="http://www.w3.org/2000/svg" width="60" height="60" viewBox="226 226 60 60" xmlns:v="https://vecta.io/nano"><circle fill="#55d292" cx="256" cy="256" r="30"/><path fill="#ffdcbf" d="M275.1 269.5c-.5 1.4-1.2 2.7-2 3.9-4.5 6.4-12.3 8.7-19.3 6.7-2.8-.8-5.4-2.3-7.6-4.5l-7.3-7.3-4.4-4.2c-.8 0-1.5-.2-2.1-.6-1.1-.7-1.9-2-1.9-3.4s.8-2.7 1.9-3.4c.6-.4 1.3-.6 2.1-.6-.8 0-1.5-.2-2.1-.6-1.1-.7-1.9-2-1.9-3.4s.8-2.7 1.9-3.4c.6-.4 1.3-.6 2.1-.6v-4.7c-.8 0-1.5-.2-2.1-.6-1.1-.7-1.9-2-1.9-3.4s.8-2.7 1.9-3.4c.6-.4 1.3-.6 2.1-.6l26.7 13 1.1.5c.1-1 .3-2 .5-3 .3-1.3 1.2-2.4 2.3-2.9.9-.4 2-.6 3-.3 2.4.6 3.8 3 3.2 5.4-.7 2.7-.2 5.4 1.2 7.7 0-.3 5 7 2.6 13.7z"/><g fill="#fcbb8d"><path d="M253.8 280.1c-2.8-.8-5.4-2.3-7.6-4.5l-7.3-7.3 11.5 2.4c-7-.1-1.4 6.4 3.4 9.4zm11.8-19.1c-.2.1-.4.2-.6.2a1.1 1.1 0 0 1-1-.6c-2.2-3.7-3.2-7.9-2.8-12.1v-.5l1.1.5c.1-1 .3-2 .5-3 .3-1.3 1.2-2.4 2.3-2.9-1.6 3.1-1.7 5.9-1.7 5.9v.6c-.2 3 .4 5.9 1.7 8.7.3.6.5 1.1.9 1.6.3.6.1 1.3-.4 1.6z"/><path d="M260.2 247.6V267c0 2-1.9 3.6-4.2 3.6h-14.7l-1.7-1.7-5.2-5c-.8 0-1.5-.2-2.1-.6v-.1a5.7 5.7 0 0 0 0-6.8h0c.6-.4 1.3-.6 2.1-.6-.8 0-1.5-.2-2.1-.6l.3-.3c1.4-1.7 1.4-4.1.2-5.9l-.4-.6c.6-.4 1.3-.6 2.1-.6v-4.7c-.8 0-1.5-.2-2.1-.6l.7-1.2c.9-1.5.8-3.3-.1-4.7l-.6-.9c.6-.4 1.3-.6 2.1-.6l25.7 12.5z"/></g><path fill="#374266" d="M234.5 243.6v-10.1c0-2 1.9-3.6 4.2-3.6h19.4c2.3 0 4.2 1.6 4.2 3.6V267c0 2-1.9 3.6-4.2 3.6h-19.4c-2.3 0-4.2-1.6-4.2-3.6v-23.4z"/><path fill="#f2f2f7" d="M236.6 236.1h23.6v28.3h-23.6z"/><path fill="#65a3e6" d="M283.3 268.5c-2.6 5.7-7 10.5-12.4 13.6-2.9 1.6-6 2.8-9.4 3.4l-3.9-3.9 19.4-19.4 6.3 6.3z"/><g fill="#495b94"><path d="M252 234.4h-7.2c-.5 0-.9-.4-.9-.9h0c0-.5.4-.9.9-.9h7.2c.5 0 .9.4.9.9h0c0 .5-.4.9-.9.9z"/><circle cx="248.4" cy="267.5" r="1.8"/></g><path fill="#1b79cf" d="M270.9 282.1c-2.9 1.6-6 2.8-9.4 3.4l-3.9-3.9 6.4-6.4 6.9 6.9z"/><g fill="#495b94"><path d="M241.3 243.2h1.6v1.6h-1.6zm0 12.6h1.6v1.6h-1.6zm9.6-15.6v7.5h7.5v-7.5h-7.5zm5.7 5.7h-3.8v-3.8h3.8v3.8zm-2.7-2.7h1.6v1.6h-1.6zm-4.7 9.4v-1.5h-1.6v3.1h1.6v1.7h1.5v-3.2h-1.5zm6-3.6v1.6h3.2V249h-1.6z"/><path d="M247.6 255.9h1.6v1.6h-1.6zm-1.6-6.4h1.6v1.6H246zm10.8 3h1.6v1.6h-1.6z"/><path d="M256.8 254.1h1.6v1.6h-1.6zm-6.4 3h1.6v1.6h-1.6z"/><path d="M250.4 258.7h1.6v1.6h-1.6zm6.4-3.2h-3.2v4.8h4.8v-4.8h-1.6zm0 3.2h-1.6v-1.6h1.6v1.6zm-3.8-9.5h-3.2v1.6h1.6v1.6h1.6v1.6h1.6v-3.2H253zm-11 .3v1.6h1.6v-3.4h2.2v-7.5h-7.5v7.5h3.7v1.8zm-1.8-7.4h3.8v3.8h-3.8v-3.8zm-.3 7.4h-1.6v10.9h7.5v-7.5h-5.9v-3.4zm.3 5.2h3.8v3.8h-3.8v-3.8zm9-8.3v-3.2h-1.6v4.7h1.6z"/></g></svg>