<svg xmlns="http://www.w3.org/2000/svg" width="25" height="25" xmlns:v="https://vecta.io/nano"><path fill="#ffcc4d" d="M24.168 12.5c0 6.418-5.25 11.668-11.667 11.668S.833 18.918.833 12.5 6.083.832 12.5.832 24.168 6.082 24.168 12.5"/><path d="M7.614 16.145c0 .146.73 2.845 4.886 2.845 4.084 0 4.814-2.7 4.886-2.845 0-.145 0-.3-.145-.364s-.293-.074-.364.072c0 0-1.24 1.168-4.302 1.168S8.27 15.854 8.27 15.854c-.072-.072-.145-.072-.217-.072s-.074 0-.145.072c-.222.001-.295.148-.295.3m2.627-6.56c0 1.24-.73 2.26-1.605 2.26s-1.605-1.02-1.605-2.26.73-2.26 1.605-2.26 1.605 1.02 1.605 2.26m8.46 0c0 1.24-.73 2.26-1.605 2.26-.95 0-1.676-1.02-1.676-2.26s.73-2.26 1.605-2.26c.947.001 1.676 1.02 1.676 2.26" fill="#664500"/></svg>