<?xml version="1.0" encoding="utf-8"?>
<!-- Generator: Adobe Illustrator 16.0.0, SVG Export Plug-In . SVG Version: 6.00 Build 0)  -->
<!DOCTYPE svg PUBLIC "-//W3C//DTD SVG 1.1//EN" "http://www.w3.org/Graphics/SVG/1.1/DTD/svg11.dtd">
<svg version="1.1" id="Capa_1" xmlns="http://www.w3.org/2000/svg" xmlns:xlink="http://www.w3.org/1999/xlink" x="0px" y="0px"
	 width="150px" height="150px" viewBox="-55 -55 150 150" enable-background="new -55 -55 150 150" xml:space="preserve">
<g>
	<path fill="#F0C419" d="M62.6-40.3L60-51.6l0,0.2l-0.7-0.2h-80c-1.5,0-3,0.7-4,1.9L-34.6-37c-1.2,1.5-1.4,3.6-0.6,5.3
		c0.8,1.7,2.6,2.9,4.5,2.9h10.2L-52.8,91.8c-0.2,0.8,0,1.6,0.4,2.2c0.5,0.6,1.2,1,2,1H92.9L62.6-40.3z"/>
	<polygon fill="#E57E25" points="92.9,95 24.7,95 60,67.2 	"/>
	<g>
		<polygon fill="#F29C1F" points="92.9,95 62.6,78.7 60,77.3 60,-51.6 62.6,-40.3 		"/>
		<polygon fill="#F29C1F" points="60,-51.6 60,77.3 24.7,95 57.5,-41.1 60,-51.4 		"/>
		<path fill="#F29C1F" d="M59.3-51.6L42.9-30.7c-1,1.2-2.4,1.9-4,1.9h-69.6c-1.9,0-3.7-1.1-4.5-2.9c-0.8-1.7-0.6-3.8,0.6-5.3
			l9.9-12.6c1-1.2,2.4-1.9,4-1.9H59.3z"/>
	</g>
	<polygon fill="#E57E25" points="62.6,-40.3 62.6,78.7 60,77.3 57.5,78.6 57.5,-41.1 60,-51.4 60,-51.6 	"/>
	<path fill="#E6E7E8" d="M35.8,0.2l-5,20.2c-0.6,2.3-2.6,3.8-4.9,3.8h-40.3c-1.6,0-3-0.7-4-1.9c-1-1.2-1.3-2.8-0.9-4.3l5-20.2
		c0.6-2.3,2.6-3.8,4.9-3.8h40.3c1.6,0,3,0.7,4,1.9C35.8-2.9,36.1-1.3,35.8,0.2z"/>
</g>
</svg>
