<svg xmlns="http://www.w3.org/2000/svg" width="150" height="150" viewBox="-55 -55 150 150" xmlns:v="https://vecta.io/nano"><path fill="#ff4c4c" d="M37.3-47.6h0c-10.213-6.278-23.026-6.526-33.473-.646L2.7-47.6-3.12 92.5h46.24L37.3-47.6zm-7.704 5.873c0 2.053-1.667 3.72-3.72 3.72H14.113a3.72 3.72 0 0 1-3.719-3.719h0a3.72 3.72 0 0 1 3.719-3.721h11.774a3.72 3.72 0 0 1 3.72 3.72h0z"/><path fill="#f33a3a" d="M37.3-47.6h0c-7.16-4.404-15.603-5.836-23.6-4.273 3.82.745 7.535 2.168 10.958 4.273h0l.1 2.152h1.14a3.72 3.72 0 0 1 3.72 3.72h0a3.72 3.72 0 0 1-3.721 3.72h-.832L30.468 92.5H43.12L37.3-47.6z"/><path fill="#ffb123" d="M10.07-30.414L5.698 86.058h28.604L29.93-30.414c-.032-.7-.612-1.25-1.313-1.25H11.382c-.7.001-1.278.55-1.312 1.25z"/><path fill="#ff901d" d="M29.93-30.414c-.032-.7-.612-1.25-1.313-1.25h-9l2.218 117.72h12.468L29.93-30.414z"/><path fill="#ff4c4c" d="M53.492 92.5h-66.984A10.06 10.06 0 0 1-3.435 82.44h46.87c5.554 0 10.057 4.506 10.057 10.06h0z"/><path fill="#f33a3a" d="M43.435 82.44h-5.36c3.02 3.023 2.67 6.825 2.67 6.825h0-53.702a10.06 10.06 0 0 0-.535 3.235h66.984c0-5.554-4.503-10.06-10.057-10.06z"/><path d="M14.798-15.4c-.016-.064-.032-.13-.032-.177 0-.598.92-1.034 1.614-1.034.403 0 .728.13.823.47l2.262 8.284L21.7-16.14c.098-.34.42-.47.825-.47.693 0 1.613.436 1.613 1.034 0 .048-.018.113-.035.177L21.1-5.54c-.177.566-.904.84-1.646.84s-1.47-.274-1.648-.84l-3.02-9.85zm-.032 28.946c0-.047.016-.1.032-.177l3.004-9.85c.177-.565.904-.84 1.648-.84s1.47.276 1.646.84l3.018 9.85c.018.065.035.13.035.177 0 .6-.92 1.034-1.613 1.034-.404 0-.728-.13-.825-.467l-.55-2.02h-3.407l-.55 2.02c-.096.338-.42.467-.823.467-.695 0-1.616-.435-1.616-1.034zm5.862-3.4L19.45 5.828l-1.18 4.328h2.357zm-3.958 23.8c-.548 0-1.097-.255-1.097-.77V22.9c0-.53.63-.758 1.26-.758s1.258.227 1.258.758v8.85h3.682c.485 0 .726.553.726 1.098 0 .553-.24 1.098-.726 1.098H16.67v-.001zm1.422 12.5h2.423c.483 0 .76.47.76.987 0 .432-.227.95-.76.95h-2.423v2.747h4.33c.48 0 .757.517.757 1.1 0 .517-.227 1.083-.757 1.083H16.67c-.548 0-1.097-.255-1.097-.77v-10.26c0-.518.55-.772 1.097-.772h5.75c.53 0 .757.566.757 1.084 0 .595-.276 1.1-.757 1.1H18.1v2.73h.001zm4.47 14.455c.535 0 .762.58.762 1.1 0 .616-.272 1.146-.762 1.146h-2.226v8.77c0 .518-.63.775-1.26.775s-1.26-.258-1.26-.775v-8.77H15.6c-.485 0-.76-.53-.76-1.146 0-.53.227-1.1.76-1.1h6.973z" fill="#fff"/></svg>