<svg xmlns="http://www.w3.org/2000/svg" width="150" height="150" viewBox="-55 -55 150 150" xmlns:v="https://vecta.io/nano"><path fill="#a8d3d8" d="M-41.1 10.758V39.1h89.32L29.126 10.758z"/><path fill="#deecf1" d="M-41.1 10.758h55.933V39.1H-41.1z"/><path fill="#ff3f5c" d="M-41.1 10.758h30.53V39.1H-41.1z"/><path fill="#c2132c" d="M54.737 36.63L35.322 8.033a4.4 4.4 0 0 0-3.638-1.927h-73.6a4.4 4.4 0 0 0-4.397 4.397 4.4 4.4 0 0 0 4.397 4.397h71.258l18.1 26.67c.852 1.257 2.233 1.93 3.644 1.93a4.35 4.35 0 0 0 2.463-.761c2-1.363 2.535-4.098 1.168-6.108z"/><path fill="#ff3f5c" d="M14.836 6.105h-56.74a4.4 4.4 0 0 0-4.397 4.397 4.4 4.4 0 0 0 4.397 4.397h56.74V6.105z"/><path fill="#c2132c" d="M59.805 34.705H-41.28c-7.468 0-13.544 6.076-13.544 13.544v21.475c0 7.47 6.076 13.544 13.544 13.544H81.28c7.468 0 13.543-6.075 13.543-13.544 0-19.3-15.7-35.02-35.018-35.02z"/><path fill="#ff3f5c" d="M14.836 34.705H-41.28c-7.468 0-13.544 6.076-13.544 13.544v21.475c0 7.47 6.076 13.544 13.544 13.544h56.116V34.705z"/><path d="M63.28-35.022c-12.483-12.484-29.06-19.36-46.668-19.36s-34.186 6.876-46.67 19.36a4.4 4.4 0 0 0 0 6.218 4.38 4.38 0 0 0 6.218 0c10.823-10.823 25.2-16.784 40.452-16.784s29.63 5.96 40.45 16.784a4.4 4.4 0 0 0 6.218 0c1.718-1.717 1.718-4.5 0-6.218zM16.6-36.76c-12.32 0-23.903 4.797-32.615 13.5a4.4 4.4 0 0 0 0 6.218 4.4 4.4 0 0 0 6.218 0 37.08 37.08 0 0 1 26.395-10.933c9.97 0 19.35 3.882 26.396 10.933a4.38 4.38 0 0 0 6.217 0c1.718-1.717 1.718-4.5 0-6.218-8.707-8.712-20.293-13.5-32.6-13.5zm0 17.912a24 24 0 0 0-17.07 7.07 4.4 4.4 0 0 0 0 6.218 4.4 4.4 0 0 0 6.218 0 15.25 15.25 0 0 1 10.853-4.496 15.23 15.23 0 0 1 10.85 4.496 4.39 4.39 0 0 0 3.113 1.288 4.37 4.37 0 0 0 3.105-1.288c1.718-1.717 1.718-4.5 0-6.218a23.96 23.96 0 0 0-17.067-7.07z" fill="#f2a01c"/><path d="M16.6-54.382c-17.612 0-34.186 6.876-46.67 19.36a4.4 4.4 0 0 0 0 6.218 4.38 4.38 0 0 0 6.218 0C-13.02-39.627 1.348-45.588 16.6-45.588v-8.794zm0 17.622c-12.32 0-23.903 4.797-32.615 13.5a4.4 4.4 0 0 0 0 6.218 4.4 4.4 0 0 0 6.218 0 37.08 37.08 0 0 1 26.395-10.933v-8.794zm0 17.912a24 24 0 0 0-17.07 7.07 4.4 4.4 0 0 0 0 6.218 4.4 4.4 0 0 0 6.218 0 15.25 15.25 0 0 1 10.853-4.496v-8.793z" fill="#ffc87d"/><path fill="#deecf1" d="M31.685 49.366h-6.942a4.4 4.4 0 0 0-4.398 4.399c0 2.43 1.965 4.398 4.398 4.398h6.942a4.4 4.4 0 0 0 4.397-4.398 4.4 4.4 0 0 0-4.397-4.399z"/><path fill="#3b4a51" d="M-23.6 63.36c-8.553 0-15.5 6.96-15.5 15.513s6.958 15.5 15.5 15.5 15.5-6.96 15.5-15.5-6.958-15.513-15.5-15.513z"/><g fill="#6099b1"><path d="M-23.6 63.36c-8.553 0-15.5 6.96-15.5 15.513s6.958 15.5 15.5 15.5V63.36z"/><circle cx="-23.612" cy="78.871" r="6.658"/></g><path fill="#deecf1" d="M-23.6 85.53a6.66 6.66 0 0 1-6.661-6.657 6.66 6.66 0 0 1 6.661-6.659V85.53z"/><path fill="#3b4a51" d="M57.515 63.36C48.958 63.36 42 70.32 42 78.872s6.957 15.5 15.514 15.5c8.55 0 15.5-6.96 15.5-15.5s-6.96-15.513-15.5-15.513z"/><g fill="#6099b1"><path d="M57.515 63.36C48.958 63.36 42 70.32 42 78.872s6.957 15.5 15.514 15.5V63.36z"/><path d="M57.515 72.213a6.66 6.66 0 1 1-6.665 6.659 6.66 6.66 0 0 1 6.665-6.659z"/></g><path fill="#deecf1" d="M57.515 85.53c-3.68 0-6.665-2.98-6.665-6.657s2.985-6.66 6.665-6.66V85.53z"/></svg>