<svg xmlns="http://www.w3.org/2000/svg" width="150" height="150" viewBox="-55 -55 150 150" xmlns:v="https://vecta.io/nano"><linearGradient id="A" gradientUnits="userSpaceOnUse" x1="19.868" y1="119.216" x2="19.868" y2="-55.658"><stop offset="0" stop-color="#fff"/><stop offset="1" stop-color="#e8efee"/></linearGradient><circle fill="url(#A)" cx="20" cy="20" r="69"/><linearGradient id="B" gradientUnits="userSpaceOnUse" x1="19.869" y1="-76.312" x2="19.869" y2="92.894"><stop offset="0" stop-color="#fff"/><stop offset="1" stop-color="#e8efee"/></linearGradient><circle fill="url(#B)" cx="20" cy="20" r="66.763"/><linearGradient id="C" gradientUnits="userSpaceOnUse" x1="-12.823" y1="-12.844" x2="49.383" y2="49.361"><stop offset="0" stop-color="#1aceb8"/><stop offset="1" stop-color="#0bbfba"/></linearGradient><circle fill="url(#C)" cx="20" cy="20.001" r="60.212"/><radialGradient id="D" cx="3712.013" cy="4326.882" r="780.091" gradientTransform="matrix(0.0833 0 0 0.0833 -285.286 -335.3182)" gradientUnits="userSpaceOnUse"><stop offset="0" stop-color="#1aceb8" stop-opacity="0"/><stop offset=".504" stop-color="#19ccb7" stop-opacity=".503"/><stop offset=".685" stop-color="#17c5b4" stop-opacity=".685"/><stop offset=".814" stop-color="#12baae" stop-opacity=".814"/><stop offset=".918" stop-color="#0ca9a6" stop-opacity=".918"/><stop offset="1" stop-color="#04959c"/></radialGradient><circle fill="url(#D)" cx="20" cy="20.001" r="60.212"/><linearGradient id="E" gradientUnits="userSpaceOnUse" x1="28.569" y1="27.845" x2="-1.129" y2="-1.851"><stop offset="0" stop-color="#1aceb8" stop-opacity="0"/><stop offset="1" stop-color="#04959c"/></linearGradient><path fill="url(#E)" d="M79.526 29.094L59.398 9.13l-5.707 1.405-29.183-28.932a2.92 2.92 0 0 0-1.418-1.418c-.47-1-1.48-1.696-2.655-1.696h-.87a2.93 2.93 0 0 0-2.931 2.931v34.16A5.54 5.54 0 0 0 14.436 20c0 .563.086 1.104.24 1.614l-18.97 18.97c-1.144 1.146-1.144 3 0 4.145l34.64 34.595c25.38-4.394 45.314-24.677 49.182-50.23z"/><linearGradient id="F" gradientUnits="userSpaceOnUse" x1="56.372" y1="61.795" x2="14.254" y2="5.723"><stop offset="0" stop-color="#1aceb8" stop-opacity="0"/><stop offset="1" stop-color="#04959c"/></linearGradient><path fill="url(#F)" d="M79.526 29.1c-3.868 25.56-23.804 45.837-49.183 50.23l-33.98-33.934c1.144 1.102 2.973 1.088 4.104-.044l19.79-19.794a5.55 5.55 0 0 0 5.301-5.519l34.434-8.48c.47-.113.814-.483.916-.925L79.526 29.1z"/><linearGradient id="G" gradientUnits="userSpaceOnUse" x1="19.869" y1="-37.162" x2="19.869" y2="23.384"><stop offset="0" stop-color="#fff"/><stop offset="1" stop-color="#e8efee"/></linearGradient><path fill="url(#G)" d="M20.435 20h-.87a2.93 2.93 0 0 1-2.931-2.931v-35.65c0-1.617 1.312-2.93 2.93-2.93h.87a2.93 2.93 0 0 1 2.932 2.931v35.65A2.93 2.93 0 0 1 20.435 20z"/><linearGradient id="H" gradientUnits="userSpaceOnUse" x1="14.042" y1="26.723" x2="-6.158" y2="46.922"><stop offset="0" stop-color="#fff"/><stop offset="1" stop-color="#e8efee"/></linearGradient><path fill="url(#H)" d="M20.435 20l.615.615a2.93 2.93 0 0 1 0 4.146L.466 45.343a2.93 2.93 0 0 1-4.144 0l-.615-.613a2.93 2.93 0 0 1 0-4.145L16.29 20a2.93 2.93 0 0 1 4.144 0z"/><linearGradient id="I" gradientUnits="userSpaceOnUse" x1="18.895" y1="20.028" x2="68.312" y2="8.271"><stop offset="0" stop-color="#d63305"/><stop offset=".366" stop-color="#cf3004"/><stop offset=".899" stop-color="#bc2602"/><stop offset="1" stop-color="#b72401"/></linearGradient><path fill="url(#I)" d="M60.908 10.042h0c.165.67-.242 1.344-.913 1.508l-39.372 9.696c-.668.166-1.344-.244-1.51-.913h0a1.25 1.25 0 0 1 .913-1.508L59.4 9.13a1.25 1.25 0 0 1 1.509.913z"/><linearGradient id="J" gradientUnits="userSpaceOnUse" x1="19.869" y1="31.434" x2="19.869" y2="13.877"><stop offset="0" stop-color="#97aaaa"/><stop offset="1" stop-color="#e8efee"/></linearGradient><circle fill="url(#J)" cx="20" cy="20.001" r="5.565"/><linearGradient id="K" gradientUnits="userSpaceOnUse" x1="19.869" y1="-39.241" x2="19.869" y2="-24.33"><stop offset="0" stop-color="#fff"/><stop offset="1" stop-color="#e8efee"/></linearGradient><path fill="url(#K)" d="M20.216-25.065h-.432a3.15 3.15 0 0 1-3.15-3.15v-3.92a3.15 3.15 0 0 1 3.15-3.152h.432c1.738 0 3.15 1.412 3.15 3.152v3.92a3.15 3.15 0 0 1-3.15 3.15z"/><linearGradient id="L" gradientUnits="userSpaceOnUse" x1="19.869" y1="61.073" x2="19.869" y2="75.982"><stop offset="0" stop-color="#fff"/><stop offset="1" stop-color="#e8efee"/></linearGradient><path fill="url(#L)" d="M20.216 75.287h-.432a3.15 3.15 0 0 1-3.15-3.153v-3.918a3.15 3.15 0 0 1 3.15-3.15h.432a3.15 3.15 0 0 1 3.15 3.15v3.918c0 1.742-1.412 3.153-3.15 3.153z"/><linearGradient id="M" gradientUnits="userSpaceOnUse" x1="78.5" y1="119.252" x2="63.588" y2="-55.61"><stop offset="0" stop-color="#fff"/><stop offset="1" stop-color="#e8efee"/></linearGradient><path fill="url(#M)" d="M65.065 20.216v-.432a3.15 3.15 0 0 1 3.15-3.15h3.918a3.15 3.15 0 0 1 3.153 3.15v.432c0 1.738-1.41 3.15-3.153 3.15h-3.918a3.15 3.15 0 0 1-3.15-3.15z"/><linearGradient id="N" gradientUnits="userSpaceOnUse" x1="-21.81" y1="119.263" x2="-36.72" y2="-55.624"><stop offset="0" stop-color="#fff"/><stop offset="1" stop-color="#e8efee"/></linearGradient><path fill="url(#N)" d="M-35.288 20.216v-.432a3.15 3.15 0 0 1 3.152-3.15h3.92a3.15 3.15 0 0 1 3.15 3.15v.432a3.15 3.15 0 0 1-3.15 3.15h-3.92c-1.74 0-3.152-1.412-3.152-3.15z"/></svg>