<svg xmlns="http://www.w3.org/2000/svg" width="150" height="150" viewBox="-55 -55 150 150" xmlns:v="https://vecta.io/nano"><path d="M42.73 28.84v58.087l7.577 7.573 7.577-7.573V76.82l-5.053-5.05 5.053-5.048v-2.53L52.83 59.14l5.053-5.05v-2.525l-5.053-5.05 5.053-5.053V28.84zM30.102 6.1C13.374 6.093-.186-7.466-.204-24.194h5.05A25.26 25.26 0 0 0 30.1 1.06c6.442 0 12.645-2.465 17.334-6.886l3.463 3.672A30.17 30.17 0 0 1 30.101 6.11z" fill="#555160"/><path fill="#ffbc05" d="M52.83-19.144h-5.053c-11.153 0-20.204 9.045-20.204 20.204v17.677a10.11 10.11 0 0 0 10.106 10.102H62.93c5.58 0 10.103-4.525 10.103-10.102V1.06A20.21 20.21 0 0 0 52.83-19.144zM55.358 1.06H45.253a5.05 5.05 0 0 1 0-10.102h10.105c2.786 0 5.05 2.26 5.05 5.05a5.05 5.05 0 0 1-5.049 5.051z"/><path fill="#555160" d="M-.204 18.738c-4.13.007-8.16-1.26-11.546-3.625l2.887-4.142c6.866 4.784 16.312 3.094 21.095-3.776a15.15 15.15 0 0 0 2.717-8.66H20c-.013 11.152-9.05 20.2-20.204 20.204z"/><path fill="#2b2733" d="M-10.306-3.992c-12.554 0-22.73 10.176-22.73 22.73v47.985c0 5.576 4.524 10.098 10.102 10.098H2.323c5.578 0 10.102-4.52 10.102-10.098V18.738c-.001-12.554-10.177-22.73-22.73-22.73zm7.577 22.73h-17.68v-3.8c0-4.882 3.958-8.84 8.84-8.84a8.84 8.84 0 0 1 8.839 8.84v3.8z"/><path fill="#d12136" d="M-2.73 28.84h-15.153a5.05 5.05 0 0 0-5.051 5.049v27.78c0 2.8 2.26 5.053 5.05 5.053H-2.73c2.8 0 5.05-2.263 5.05-5.053V33.9a5.05 5.05 0 0 0-5.051-5.049z"/><path fill="#2b2733" d="M-22.932 51.568H2.323v5.05h-25.255z"/><path d="M50.898-2.155l-3.463-3.672a25.04 25.04 0 0 0 7.923-18.367c0-13.95-11.306-25.255-25.257-25.255S4.847-38.143 4.847-24.194h-5.05C-.204-40.93 13.364-54.5 30.1-54.5s30.306 13.568 30.306 30.306a30.02 30.02 0 0 1-9.509 22.039zM-11.75 15.113c-9.156-6.38-11.408-18.97-5.03-28.125S2.2-24.42 11.346-18.04C16.768-14.265 20-8.076 20-1.466h-5.05c0-8.37-6.786-15.153-15.155-15.15S-15.36-9.83-15.357-1.46c0 4.956 2.428 9.602 6.497 12.434l-2.9 4.14z" fill="#555160"/><path fill="#2b2733" d="M-22.932 38.94H2.323v5.053h-25.255z"/><path fill="#1a1721" d="M2.323 43.965V61.67c0 2.8-2.26 5.053-5.05 5.053H-17.88c-2.8 0-5.05-2.263-5.05-5.053v-1.946c-3.294 1.208-6.67 2.176-10.102 2.892v4.107c0 5.576 4.524 10.098 10.102 10.098H2.323c5.578 0 10.102-4.52 10.102-10.098v-34.65C9.487 36.384 6.1 40.367 2.323 43.965z"/><path d="M-22.932 59.724v1.946c0 2.8 2.26 5.053 5.05 5.053H-2.73c2.8 0 5.05-2.263 5.05-5.053v-5.053h-18.065a73.1 73.1 0 0 1-7.19 3.107zm25.255-8.156v-7.604a73.85 73.85 0 0 1-9.393 7.604h9.393z" fill="#9c1928"/><path fill="#1a1721" d="M-15.742 56.617H2.323v-5.05H-7.07a73.88 73.88 0 0 1-8.672 5.049z"/><path fill="#e38100" d="M30.858 26.147a10.05 10.05 0 0 0 6.82 2.692H62.93c5.58 0 10.103-4.525 10.103-10.102V1.06c0-.176-.022-.348-.025-.522a52.93 52.93 0 0 1-42.151 25.61z"/><path fill="#3b3944" d="M57.883 40.895V28.84H42.73v5.783c5.427 1.026 10.585 3.162 15.154 6.272z"/></svg>