<svg xmlns="http://www.w3.org/2000/svg" width="25" height="25" xmlns:v="https://vecta.io/nano"><path fill="#ffcc4d" d="M24.168 12.5A11.67 11.67 0 0 1 12.5 24.168 11.67 11.67 0 0 1 .833 12.5 11.67 11.67 0 0 1 12.5.832 11.67 11.67 0 0 1 24.168 12.5"/><path fill="#664500" d="M12.5 14.445c-2.347 0-3.907-.275-5.834-.65-.44-.086-1.297 0-1.297 1.296 0 2.593 2.98 5.833 7.13 5.833s7.13-3.24 7.13-5.833c0-1.296-.855-1.38-1.296-1.296-1.926.375-3.486.65-5.834.65"/><path fill="#fff" d="M6.666 15.093s1.945.65 5.834.65 5.834-.65 5.834-.65-1.296 2.592-5.834 2.592-5.834-2.592-5.834-2.592"/><path d="M10.23 9.583c0 1.254-.725 2.27-1.62 2.27S7 10.836 7 9.583s.725-2.27 1.62-2.27 1.62 1.016 1.62 2.27m8.454 0c0 1.254-.725 2.27-1.62 2.27s-1.62-1.015-1.62-2.27.725-2.27 1.62-2.27 1.62 1.016 1.62 2.27" fill="#664500"/></svg>