<svg xmlns="http://www.w3.org/2000/svg" width="25" height="25" xmlns:v="https://vecta.io/nano"><g transform="matrix(1.25 0 0 -1.25 0 45)"><path fill="#ffcc4d" d="M19.3 26c0-5.136-4.164-9.3-9.3-9.3S.7 20.864.7 26s4.164 9.3 9.3 9.3 9.3-4.164 9.3-9.3"/><path d="M13.867 19.862c-.023.092-.603 2.263-3.867 2.263s-3.845-2.17-3.867-2.263c-.03-.112.022-.228.123-.286a.26.26 0 0 1 .309.04c.01.01 1 .96 3.435.96s3.426-.95 3.435-.96c.05-.05.116-.075.18-.075a.26.26 0 0 1 .127.033c.102.06.153.176.124.288m-5.05 6.503c-1.682 1.682-4.384 1.702-4.5 1.702-.285 0-.516-.23-.516-.516s.23-.516.516-.516c.015 0 .995-.012 2.058-.38-.307-.33-.508-.844-.508-1.427 0-1 .578-1.8 1.292-1.8s1.3.8 1.3 1.8c0 .1-.01.176-.02.262.007 0 .013-.003.02-.003a.52.52 0 0 1 .366.152c.2.2.2.525 0 .727m6.87 1.7c-.115 0-2.816-.02-4.5-1.702-.202-.202-.202-.528 0-.73a.52.52 0 0 1 .366-.152c.01-.083 0-.17 0-.26 0-1 .578-1.8 1.3-1.8s1.292.8 1.292 1.8c0 .584-.2 1.097-.508 1.427 1.063.37 2.043.38 2.06.38.284 0 .516.233.515.516s-.23.52-.516.52" fill="#664500"/></g></svg>