<svg id="View_Bill" width="40" height="40" data-name="View Bill" xmlns="http://www.w3.org/2000/svg" viewBox="0 0 36 40"><defs><style>.cls-1{fill:#212121;}</style></defs><title>View Bill</title><path class="cls-1" d="M35,3,32,0,29,3,26,0,23,3,20,0,17,3,14,0,11,3,8,0V28H2v6a6,6,0,0,0,6,6H32a6,6,0,0,0,6-6V0ZM26,36H8a2,2,0,0,1-2-2V32H26Zm8-2a2,2,0,0,1-4,0V28H12V6H34Z" transform="translate(-2)"/><rect class="cls-1" x="12" y="10" width="12" height="4"/><rect class="cls-1" x="26" y="10" width="4" height="4"/><rect class="cls-1" x="12" y="16" width="12" height="4"/><rect class="cls-1" x="26" y="16" width="4" height="4"/></svg>