<svg xmlns="http://www.w3.org/2000/svg" width="40" height="40" xmlns:v="https://vecta.io/nano"><path fill="#d03b00" d="M37.2 0h-10l-8.8 1.6L20 37.5h17.2z"/><path fill="#e27726" d="M2.8 0v37.5H20V1.6L12.8 0z"/><path fill="#efe2dd" d="M32.2 5H20l-1.6 17.5L20 40h12.2z"/><path fill="#fff5f5" d="M7.8 5H20v35H7.8z"/><path fill="#b4d2d7" d="M27.2 0H20l-1.6 3.7L20 7.5h7.2z"/><path fill="#e1ebf0" d="M12.8 0H20v7.5h-7.2z"/><circle fill="#324a5e" cx="20" cy="23" r="6.7"/><path fill="#2b3b4e" d="M26.7 23.8L22.9 20l-2.9.5-3 .1.9.9-1 .5 1.4 1.4-.3.4 2.4 3.3 2.1 2.1a6.71 6.71 0 0 0 4.2-5.4z"/><path fill="#ffd15d" d="M22.5 21.3h-1.1c0-.2-.1-.4-.2-.5h1.3a.47.47 0 0 0 .5-.5.47.47 0 0 0-.5-.5h-5.2a.47.47 0 0 0-.5.5.47.47 0 0 0 .5.5h2.2c.4 0 .7.2.9.5h-3.1a.47.47 0 0 0-.5.5.47.47 0 0 0 .5.5h3.1c-.2.3-.5.5-.9.5h-2.2c-.2 0-.4.1-.4.3-.1.2 0 .4.1.5l3.7 3.7c.1.1.2.1.3.1s.2 0 .3-.1c.2-.2.2-.5 0-.7l-2.9-2.9h1.1c.9 0 1.7-.6 1.9-1.5h1.1a.47.47 0 0 0 .5-.5c0-.2-.2-.4-.5-.4z"/><path d="M20.7 27.3c.1.1.2.1.3.1s.2 0 .3-.1c.2-.2.2-.5 0-.7l-1.8-1.8v1.3l1.2 1.2zm1.8-6h-1.1c0-.2-.1-.4-.2-.5h1.3a.47.47 0 0 0 .5-.5.47.47 0 0 0-.5-.5h-3v.9c.4 0 .7.2.9.5h-.9v.9h.9c-.2.3-.5.5-.9.5h0v.9c.9 0 1.7-.6 1.9-1.5h1.1a.47.47 0 0 0 .5-.5s-.2-.2-.5-.2z" fill="#f9b54c"/></svg>