<svg xmlns="http://www.w3.org/2000/svg" width="40" height="40" xmlns:v="https://vecta.io/nano"><path fill="#f3d8b6" d="M29.3 29.3c-2.1-.7-5.8-1.3-5.8-9.1h-7.2c0 7.8-3.7 8.4-5.8 9.1 0 5.3 7.7 5.5 9 6v.2s.1 0 .3-.1c.2.1.3.1.3.1v-.2c1.5-.5 9.2-.7 9.2-6z"/><path fill="#eec8a2" d="M23.6 20.2H20v15.2c.2.1.3.1.3.1v-.2c1.3-.5 9-.7 9-6-2.1-.8-5.7-1.3-5.7-9.1z"/><path fill="#b7cae9" d="M33.5 35.4V40h-27v-4.6c0-3.4 1.9-6.4 4.6-8 .7-.4 2.2-.8 3-1 .7-.2 6 1.4 6 1.4s5.5-1.5 6.1-1.3c.8.2 2 .5 2.7.9 2.6 1.6 4.6 4.6 4.6 8z"/><path fill="#96b3d4" d="M28.9 27.5c-.7-.4-1.9-.7-2.7-.9-.7-.2-6.1 1.3-6.1 1.3H20V40h13.5v-4.6c0-3.4-2-6.4-4.6-7.9z"/><path fill="#f3dbc4" d="M20 22.6c-3.1 0-5.4-2.6-6.5-4.5s-1.8-8.9.5-12c2.2-3 6-1.6 6-1.6s3.8-1.5 6 1.6c2.3 3.1 1.5 10 .5 12-1.1 1.9-3.4 4.5-6.5 4.5z"/><path fill="#edceae" d="M26 6.1c-2.2-3-6-1.6-6-1.6h0v18.1c3.1 0 5.4-2.6 6.5-4.5 1-1.9 1.8-8.9-.5-12z"/><path fill="#3a4755" d="M28.4 27.2V40h-6.8L26 26.4c.9.2 1.7.4 2.4.8z"/><path fill="#455465" d="M14 26.4L18.4 40h-6.8V27.2z"/><path fill="#d16154" d="M22.4 26.3l-2.4 1-2.4-1.1c-.5-.2-1.1.1-1.1.5v2.7c0 .4.6.7 1.1.5l2.4-1.1 2.4 1.1c.5.2 1.1-.1 1.1-.5v-2.7c0-.4-.6-.6-1.1-.4z"/><path fill="#b55044" d="M22.4 26.3l-2.4 1v1.5l2.4 1.1c.5.2 1.1-.1 1.1-.5v-2.7c0-.4-.6-.6-1.1-.4z"/><path fill="#e1a98c" d="M26.4 5.7C26.2 5.7 25 2.2 22 3c-2 .5-2.3.8-3.1 1-3.3-1-6.5 1.6-6.3 4.1.2 4.2-.5 4.1 0 5.5l.9 2.6s.1.4.3-1.9-.5-3.5 1.2-3.5c5.9 0-2.2 2.3 1.6 2.3 3.7 0 6.6-3.1 8.4-3.3s1 2.2 1.2 4.5.3 1.9.3 1.9 1-1.1.9-2.6c.1-1.7.9-8-1-7.9z"/><path fill="#d2987b" d="M26.4 5.7C26.2 5.7 25 2.2 22 3l-2 .6v8.8c2.1-.9 3.8-2.4 5-2.5 1.8-.2 1 2.2 1.2 4.5s.3 1.9.3 1.9 1-1.1.9-2.6c.1-1.8.9-8.1-1-8z"/><ellipse transform="matrix(-.3545 .9351 -.9351 -.3545 50.5984 -4.8368)" fill="#edceae" cx="27" cy="15" rx="1.9" ry="1.1"/><ellipse transform="matrix(-.354 -.9353 .9353 -.354 3.5282 32.5738)" fill="#f3dbc4" cx="13" cy="15.1" rx="1.9" ry="1.1"/></svg>