<svg id="Need_Help_" width="40" height="40" data-name="Need Help?" xmlns="http://www.w3.org/2000/svg" viewBox="0 0 34.29 40"><defs><style>.cls-1{fill:#212121;}</style></defs><title>Need Help?</title><path class="cls-1" d="M33.33,0H6.67A3.8,3.8,0,0,0,2.86,3.81V30.48a3.81,3.81,0,0,0,3.81,3.81h7.62L20,40l5.71-5.71h7.62a3.82,3.82,0,0,0,3.81-3.81V3.81A3.82,3.82,0,0,0,33.33,0Zm0,30.48h-9.2L23,31.6l-3,3-3-3-1.1-1.1H6.67V3.81H33.33ZM18.1,24.76h3.8v3.81H18.1ZM20,9.52a3.82,3.82,0,0,1,3.81,3.81c0,3.81-5.71,3.34-5.71,9.53h3.8c0-4.29,5.72-4.76,5.72-9.53a7.62,7.62,0,0,0-15.24,0h3.81A3.82,3.82,0,0,1,20,9.52Z" transform="translate(-2.86)"/></svg>