<?xml version="1.0" encoding="utf-8"?>
<!-- Generator: Adobe Illustrator 16.0.0, SVG Export Plug-In . SVG Version: 6.00 Build 0)  -->
<!DOCTYPE svg PUBLIC "-//W3C//DTD SVG 1.1//EN" "http://www.w3.org/Graphics/SVG/1.1/DTD/svg11.dtd">
<svg version="1.1" id="Capa_1" xmlns="http://www.w3.org/2000/svg" xmlns:xlink="http://www.w3.org/1999/xlink" x="0px" y="0px"
	 width="40px" height="40px" viewBox="0 0 40 40" enable-background="new 0 0 40 40" xml:space="preserve">
<g>
	<path fill="#512DA8" d="M8.4,10.2l3,27.2c0.2,1.5,1.4,2.6,2.9,2.6h14.8c1.5,0,2.801-1.1,2.899-2.6l3-27.2H8.4z M31.102,19.2H12.3
		l-0.7-6h20L31.102,19.2z"/>
</g>
<path fill="#512DA8" d="M17.3,7.9c0,0-1.5-1.5-0.6-2.5C18,4,17.2,2.9,16.6,2.5c-0.2-0.2-0.6-0.1-0.8,0.1c-0.1,0.2-0.1,0.5,0.2,0.6
	c0.1,0.1,0.8,0.6-0.1,1.5c-1.6,1.7,0.5,3.7,0.6,3.8s0.3,0.2,0.4,0.2s0.3,0,0.4-0.1C17.5,8.4,17.5,8.101,17.3,7.9z"/>
<path fill="#512DA8" d="M22.3,7.9c0,0-1.499-1.5-0.6-2.5C23,4,22.2,2.9,21.6,2.5C21.4,2.3,21,2.4,20.801,2.6
	C20.7,2.8,20.7,3.101,21,3.2c0.1,0.1,0.801,0.6-0.1,1.5c-1.601,1.7,0.5,3.7,0.6,3.8s0.301,0.2,0.4,0.2c0.099,0,0.3,0,0.398-0.1
	C22.5,8.4,22.5,8.101,22.3,7.9z"/>
<path fill="#512DA8" d="M27.3,7.9c0,0-1.5-1.5-0.6-2.5C28,4,27.2,2.9,26.6,2.5C26.4,2.3,26,2.4,25.8,2.601c-0.1,0.2-0.1,0.5,0.2,0.6
	c0.102,0.1,0.8,0.6-0.1,1.5c-1.602,1.7,0.5,3.7,0.6,3.8c0.102,0.1,0.3,0.2,0.4,0.2c0.1,0,0.3,0,0.398-0.1
	C27.5,8.4,27.5,8.101,27.3,7.9z"/>
</svg>
