<?xml version="1.0" encoding="utf-8"?>
<!-- Generator: Adobe Illustrator 16.0.0, SVG Export Plug-In . SVG Version: 6.00 Build 0)  -->
<!DOCTYPE svg PUBLIC "-//W3C//DTD SVG 1.1//EN" "http://www.w3.org/Graphics/SVG/1.1/DTD/svg11.dtd">
<svg version="1.1" id="Capa_1" xmlns="http://www.w3.org/2000/svg" xmlns:xlink="http://www.w3.org/1999/xlink" x="0px" y="0px"
	 width="40px" height="40px" viewBox="0 0 40 40" enable-background="new 0 0 40 40" xml:space="preserve">
<g>
	<path fill="#512DA8" d="M15.5,6.1c0.1,0.1,0.3,0.2,0.4,0.2s0.3,0,0.4-0.1c0.2-0.2,0.2-0.5,0-0.7c0,0-1.5-1.5-0.6-2.5
		c1.3-1.4,0.5-2.5-0.1-2.9C15.4-0.1,15,0,14.8,0.2c-0.1,0.2-0.1,0.5,0.2,0.6c0.1,0.1,0.8,0.6-0.1,1.5C13.3,4,15.4,6,15.5,6.1z"/>
	<path fill="#512DA8" d="M20.5,6.1c0.1,0.1,0.3,0.2,0.4,0.2c0.1,0,0.3,0,0.4-0.1c0.2-0.2,0.2-0.5,0-0.7c0,0-1.5-1.5-0.6-2.5
		c1.3-1.4,0.5-2.5-0.1-2.9C20.4-0.1,20,0,19.8,0.2c-0.1,0.2-0.1,0.5,0.2,0.6c0.1,0.1,0.8,0.6-0.1,1.5C18.3,4,20.4,6,20.5,6.1z"/>
	<path fill="#512DA8" d="M25.5,6.1c0.1,0.1,0.3,0.2,0.4,0.2c0.1,0,0.3,0,0.4-0.1c0.2-0.2,0.2-0.5,0-0.7c0,0-1.5-1.5-0.6-2.5
		c1.3-1.4,0.5-2.5-0.1-2.9C25.4-0.1,25,0,24.8,0.2c-0.1,0.2-0.1,0.5,0.2,0.6c0.1,0.1,0.8,0.6-0.1,1.5C23.3,4,25.4,6,25.5,6.1z"/>
</g>
<g>
	<path fill="#512DA8" d="M6.5,8l3,27.4c0.3,1.5,1.4,2.7,2.9,2.7h15.1c1.5,0,2.8-1.1,2.9-2.7L33.5,8L6.5,8L6.5,8z M29.6,17H10.5
		l-0.6-6h20.3L29.6,17z"/>
</g>
</svg>
