<svg xmlns="http://www.w3.org/2000/svg" width="40" height="50" fill="#512da8" xmlns:v="https://vecta.io/nano"><path d="M7.4 8.8l3 27.2c.2 1.5 1.4 2.6 2.9 2.6h14.8c1.5 0 2.8-1.1 2.9-2.6l3-27.2H7.4zm22.7 9H11.3l-.7-6h20l-.5 6zM16.3 5.5S14.8 4 15.7 3c1.3-1.4.5-2.5-.1-2.9-.2-.2-.6-.1-.8.1-.1.2-.1.5.2.6.1.1.8.6-.1 1.5-1.6 1.7.5 3.7.6 3.8a.76.76 0 0 0 .4.2c.1 0 .3 0 .4-.1.2-.2.2-.5 0-.7zm5 0S19.8 4 20.7 3c1.3-1.4.5-2.5-.1-2.9-.2-.2-.6-.1-.8.1-.1.2-.1.5.2.6.1.1.8.6-.1 1.5-1.6 1.7.5 3.7.6 3.8a.76.76 0 0 0 .4.2c.1 0 .3 0 .4-.1.2-.2.2-.5 0-.7zm5 0S24.8 4 25.7 3c1.3-1.4.5-2.5-.1-2.9-.2-.2-.6-.1-.8.1-.1.2-.1.5.2.6.1.1.8.6-.1 1.5-1.6 1.7.5 3.7.6 3.8a.76.76 0 0 0 .4.2c.1 0 .3 0 .4-.1.2-.2.2-.5 0-.7z"/></svg>