<?xml version="1.0" encoding="utf-8"?>
<!-- Generator: Adobe Illustrator 16.0.0, SVG Export Plug-In . SVG Version: 6.00 Build 0)  -->
<!DOCTYPE svg PUBLIC "-//W3C//DTD SVG 1.1//EN" "http://www.w3.org/Graphics/SVG/1.1/DTD/svg11.dtd">
<svg version="1.1" id="Capa_1" xmlns="http://www.w3.org/2000/svg" xmlns:xlink="http://www.w3.org/1999/xlink" x="0px" y="0px"
	 width="70px" height="70px" viewBox="0 0 70 70" enable-background="new 0 0 70 70" xml:space="preserve">
<path fill="#1F7AED" d="M40.8,57.1c0-3.9,0-7.7,0-11.6c0-0.3,0.1-0.4,0.4-0.4c2.4,0,4.8,0,7.2,0c0.3,0,0.4,0,0.4-0.4
	c0.3-2.3,0.7-4.5,1.1-6.8c0.1-0.8,0.2-1.7,0.4-2.5c0-0.3-0.1-0.3-0.3-0.3c-2.9,0-5.8,0-8.8,0c-0.3,0-0.4-0.1-0.4-0.4c0-2,0-4,0-6
	c0-1.3,0.3-2.5,1.1-3.5c0.8-1,1.8-1.5,3-1.7c1.2-0.2,2.4-0.1,3.6-0.1c0.6,0,1.3,0,1.9,0c0.2,0,0.2,0,0.2-0.2c0-2.7,0-5.3,0-8
	c0-0.3-0.2-0.2-0.3-0.3c-0.8-0.1-1.5-0.2-2.3-0.3c-1.8-0.2-3.6-0.4-5.4-0.3c-2.6,0.1-5.1,0.6-7.3,2.1c-2.5,1.7-4,4.1-4.7,6.9
	c-0.4,1.5-0.5,3-0.5,4.5c0,2.3,0,4.7,0,7c0,0.2-0.1,0.3-0.3,0.3c-2.7,0-5.3,0-8,0c-0.3,0-0.3,0.1-0.3,0.4c0,3.1,0,6.2,0,9.2
	c0,0.3,0.1,0.4,0.3,0.4c2.6,0,5.3,0,7.9,0c0.3,0,0.3,0.1,0.3,0.4c0,7.7,0,15.4,0,23.1c0,0.4,0,0.4-0.4,0.3c-6.6-1.2-12.4-4-17.4-8.6
	c-5.3-4.9-8.7-11-10.2-18.1c-0.4-1.9-0.6-3.8-0.7-5.7C1.3,30.6,2.5,25,5.1,19.9c4.9-9.6,12.7-15.6,23.2-18.1
	c2.9-0.7,5.9-0.9,8.8-0.7c6.3,0.3,12.1,2.2,17.3,5.7c7.2,4.9,11.9,11.6,14.1,20.2c0.8,3.3,1.2,6.7,1,10.1c-0.2,4.7-1.4,9.3-3.6,13.5
	c-3.3,6.6-8.3,11.6-14.9,15.1c-3.1,1.6-6.5,2.7-9.9,3.3c-0.3,0.1-0.3-0.1-0.3-0.3C40.8,64.8,40.8,60.9,40.8,57.1z"/>
</svg>
