<?xml version="1.0" encoding="utf-8"?>
<!-- Generator: Adobe Illustrator 16.0.0, SVG Export Plug-In . SVG Version: 6.00 Build 0)  -->
<!DOCTYPE svg PUBLIC "-//W3C//DTD SVG 1.1//EN" "http://www.w3.org/Graphics/SVG/1.1/DTD/svg11.dtd">
<svg version="1.1" id="Capa_1" xmlns="http://www.w3.org/2000/svg" xmlns:xlink="http://www.w3.org/1999/xlink" x="0px" y="0px"
	 width="70px" height="70px" viewBox="0 0 70 70" enable-background="new 0 0 70 70" xml:space="preserve">
<path fill="#FBBB00" d="M16.4,42.6L14,51.4l-8.7,0.2c-2.6-4.8-4.1-10.3-4.1-16.1c0-5.6,1.4-11,3.8-15.6h0l7.7,1.4l3.4,7.7
	c-0.7,2.1-1.1,4.3-1.1,6.6C15.1,38,15.5,40.4,16.4,42.6z"/>
<path fill="#518EF8" d="M68.7,29.1c0.4,2.1,0.6,4.2,0.6,6.4c0,2.4-0.3,4.8-0.7,7.1c-1.7,7.8-6,14.6-12,19.4l0,0l-9.7-0.5l-1.4-8.6
	c4-2.3,7.1-6,8.7-10.3H36V29.1h18.4H68.7L68.7,29.1z"/>
<path fill="#28B446" d="M56.6,62L56.6,62c-5.8,4.7-13.2,7.5-21.3,7.5c-12.9,0-24.2-7.2-29.9-17.9l11-9c2.9,7.7,10.3,13.1,18.9,13.1
	c3.7,0,7.2-1,10.2-2.8L56.6,62z"/>
<path fill="#F14336" d="M57,9.3l-11,9c-3.1-1.9-6.8-3.1-10.7-3.1c-8.9,0-16.4,5.7-19.1,13.6L5.1,19.9h0C10.8,9,22.2,1.5,35.3,1.5
	C43.5,1.5,51.1,4.4,57,9.3z"/>
</svg>
