<?xml version="1.0" encoding="utf-8"?>
<!-- Generator: Adobe Illustrator 16.0.0, SVG Export Plug-In . SVG Version: 6.00 Build 0)  -->
<!DOCTYPE svg PUBLIC "-//W3C//DTD SVG 1.1//EN" "http://www.w3.org/Graphics/SVG/1.1/DTD/svg11.dtd">
<svg version="1.1" id="Layer_1" xmlns="http://www.w3.org/2000/svg" xmlns:xlink="http://www.w3.org/1999/xlink" x="0px" y="0px"
	 width="200px" height="100px" viewBox="0 0 200 100" enable-background="new 0 0 200 100" xml:space="preserve">
<g display="none">
	<path display="inline" fill-rule="evenodd" clip-rule="evenodd" fill="#38454F" d="M226.6,229.8H-26.6
		c-99.1,0-179.4-80.3-179.4-179.4h0C-206-48.7-125.7-129-26.6-129l253.2,0C325.7-129,406-48.7,406,50.4l0,0
		C406,149.4,325.7,229.8,226.6,229.8L226.6,229.8L226.6,229.8z"/>
	<path display="inline" fill-rule="evenodd" clip-rule="evenodd" fill="#E0E1E2" d="M363.8,50.4c0-69.9-56.7-126.6-126.6-126.6
		S110.6-19.6,110.6,50.4c0,69.9,56.7,126.6,126.6,126.6S363.8,120.3,363.8,50.4L363.8,50.4z"/>
	
		<path display="inline" fill="none" stroke="#61B872" stroke-width="21.1034" stroke-linecap="round" stroke-miterlimit="2.6131" d="
		M-100.5,50.4l42.2,42.2 M-58.3,92.6L26.1,8.2"/>
</g>
<g>
	<path fill-rule="evenodd" clip-rule="evenodd" fill="#38454F" d="M134.6,99.3H65.4c-27,0-49-21.9-49-49l0,0c0-27,21.9-49,49-49
		h69.1c27,0,49,21.9,49,49l0,0C183.5,77.4,161.6,99.3,134.6,99.3L134.6,99.3L134.6,99.3z"/>
	<path fill-rule="evenodd" clip-rule="evenodd" fill="#E0E1E2" d="M172,50.4c0-19.1-15.5-34.6-34.6-34.6s-34.6,15.5-34.6,34.6
		s15.5,34.6,34.6,34.6S172,69.5,172,50.4L172,50.4z"/>
	<path fill="none" stroke="#61B872" stroke-width="10" stroke-linecap="round" stroke-miterlimit="2.6131" d="M45.3,50.4l11.5,11.5
		 M56.8,61.9l23-23"/>
</g>
</svg>
