<?xml version="1.0" encoding="utf-8"?>
<!-- Generator: Adobe Illustrator 16.0.0, SVG Export Plug-In . SVG Version: 6.00 Build 0)  -->
<!DOCTYPE svg PUBLIC "-//W3C//DTD SVG 1.1//EN" "http://www.w3.org/Graphics/SVG/1.1/DTD/svg11.dtd">
<svg version="1.1" id="Layer_1" xmlns="http://www.w3.org/2000/svg" xmlns:xlink="http://www.w3.org/1999/xlink" x="0px" y="0px"
	 width="200px" height="100px" viewBox="0 0 200 100" enable-background="new 0 0 200 100" xml:space="preserve">
<g>
	<path fill-rule="evenodd" clip-rule="evenodd" fill="#38454F" d="M65.4,1.4h69.1c27,0,49,21.9,49,49l0,0c0,27-21.9,49-49,49H65.4
		c-27,0-49-21.9-49-49l0,0C16.5,23.3,38.4,1.4,65.4,1.4L65.4,1.4L65.4,1.4z"/>
	<path fill-rule="evenodd" clip-rule="evenodd" fill="#E0E1E2" d="M97.1,50.4c0-19.1-15.5-34.6-34.6-34.6C43.5,15.8,28,31.3,28,50.4
		s15.5,34.6,34.6,34.6C81.6,84.9,97.1,69.5,97.1,50.4L97.1,50.4z"/>
	
		<line fill="none" stroke="#ED7161" stroke-width="10" stroke-linecap="round" stroke-miterlimit="2.6131" x1="137.4" y1="27.3" x2="137.4" y2="73.4"/>
</g>
<g display="none">
	<path display="inline" fill-rule="evenodd" clip-rule="evenodd" fill="#38454F" d="M134.6,99.3H65.4c-27,0-49-21.9-49-49l0,0
		c0-27,21.9-49,49-49h69.1c27,0,49,21.9,49,49l0,0C183.5,77.4,161.6,99.3,134.6,99.3L134.6,99.3L134.6,99.3z"/>
	<path display="inline" fill-rule="evenodd" clip-rule="evenodd" fill="#E0E1E2" d="M172,50.4c0-19.1-15.5-34.6-34.6-34.6
		s-34.6,15.5-34.6,34.6s15.5,34.6,34.6,34.6S172,69.5,172,50.4L172,50.4z"/>
	<path display="inline" fill="none" stroke="#61B872" stroke-width="10" stroke-linecap="round" stroke-miterlimit="2.6131" d="
		M45.3,50.4l11.5,11.5 M56.8,61.9l23-23"/>
</g>
</svg>
