<?xml version="1.0" encoding="utf-8"?>
<!-- Generator: Adobe Illustrator 19.2.0, SVG Export Plug-In . SVG Version: 6.00 Build 0)  -->
<svg version="1.1" id="Capa_1" xmlns="http://www.w3.org/2000/svg" xmlns:xlink="http://www.w3.org/1999/xlink" x="0px" y="0px"
	 viewBox="0 0 30 30" style="enable-background:new 0 0 30 30;" xml:space="preserve">
<style type="text/css">
	.st0{fill:#b2b2b2;}
	.st1{fill:#FAFAFA;}
</style>
<path class="st0" d="M26.3,0H3.8C1.7,0,0,1.7,0,3.8v22.5C0,28.3,1.7,30,3.8,30h22.5c2.1,0,3.8-1.7,3.8-3.8V3.8C30,1.7,28.3,0,26.3,0
	z"/>
<path class="st1" d="M25.3,15h-4.7v-3.8c0-1,0.8-0.9,1.9-0.9h1.9V5.6h-3.8l0,0c-3.1,0-5.6,2.5-5.6,5.6V15h-3.8v4.7H15V30h5.6V19.7
	h2.8L25.3,15z"/>
</svg>
